<svg width="97" height="70" fill="none" xmlns="http://www.w3.org/2000/svg"><path d="M7.232 16.236a6.835 6.835 0 00-1.495.348c-.105.035-.14.07-.21.104v.035c.175.278.592.73 1.218 1.217l10.082 7.823a18.45 18.45 0 012.086 1.981L74.924 7.336l-67.692 8.9zm32.681 26.737l9.944 7.475a5.89 5.89 0 003.615 1.217 5.94 5.94 0 002.678-.626 6.362 6.362 0 002.19-1.808l27.57-37.097L39.322 42.59c.174.14.382.244.591.383z" fill="#fff"/><path d="M36.61 47.319c-.973-.73-1.807-.974-2.433-.974-.591 0-1.008.174-1.46.557-.453.382-.904 1.078-1.217 2.155l-2.817 10.326 12.17-8.9-4.242-3.164z" fill="#96C9E4"/><path d="M22.495 32.265l-.313.104a24.893 24.893 0 012.12 5.215c.418 1.53.661 3.06.661 4.555l.07 9.943 1.216-4.45c.487-1.773 1.357-3.303 2.573-4.485l1.391-1.112c.035-.035.07-.035.104-.07l2.504-1.634L73.81 13.56 22.496 32.265z" fill="#CFE1EF"/><path d="M95.507 2.99a4.973 4.973 0 00-1.078-1.425A5.404 5.404 0 0092.204.348 8.542 8.542 0 0089.7 0c-.556 0-1.112.035-1.669.104L6.572 10.813c-.834.104-1.634.278-2.364.521-1.078.383-2.086.939-2.886 1.773-.417.418-.73.94-.973 1.53C.104 15.193 0 15.82 0 16.445c0 .591.104 1.182.313 1.738.278.8.73 1.53 1.252 2.19.521.661 1.182 1.252 1.912 1.843l10.082 7.823c.73.556 1.495 1.356 2.226 2.295a20.348 20.348 0 012.711 4.902c.66 1.739 1.043 3.512 1.043 4.902l.14 20.791c0 .66.034 1.287.069 1.843.035.417.07.8.14 1.147.034.279.103.522.173.8.104.417.243.834.626 1.356.174.278.452.556.869.834.417.278 1.008.452 1.6.452.66 0 1.216-.208 1.599-.452.07-.034.104-.07.139-.104l.034.035 20.479-14.985 1.182.904c2.05 1.565 4.52 2.295 6.918 2.295 1.739 0 3.512-.383 5.076-1.183 1.6-.764 3.025-1.947 4.138-3.442l31.325-42.103c.591-.8 1.078-1.634 1.426-2.469.348-.834.556-1.703.556-2.642 0-.695-.174-1.495-.521-2.225zM56.15 51.039a6.049 6.049 0 01-2.677.626c-1.287 0-2.538-.383-3.616-1.217l-9.944-7.475c-.174-.14-.382-.244-.59-.383L85.91 12.134 58.34 49.23c-.591.8-1.356 1.39-2.19 1.808zm-31.187-8.9c0-1.496-.243-3.026-.66-4.555a24.888 24.888 0 00-2.121-5.215l.313-.105L73.812 13.56 32.82 40.365 30.317 42l-.104.07-1.39 1.112c-1.218 1.182-2.087 2.712-2.573 4.485l-1.217 4.45-.07-9.978zm-8.1-16.376L6.78 17.94c-.626-.487-1.043-.939-1.217-1.217v-.035c.07-.034.104-.07.208-.104.313-.139.835-.278 1.495-.348l67.728-8.9-56.01 20.408c-.696-.695-1.392-1.39-2.122-1.981zm11.82 33.62L31.5 49.057c.313-1.078.765-1.773 1.217-2.156.452-.382.904-.556 1.46-.556.626 0 1.46.244 2.434.974l4.207 3.163-12.134 8.901z" fill="url(#paint0_linear_2_26)"/><defs><linearGradient id="paint0_linear_2_26" x1="2.029" y1="0" x2="95.157" y2="7.412" gradientUnits="userSpaceOnUse"><stop offset=".206" stop-color="#4F9CFF"/><stop offset=".94" stop-color="#A483E2"/></linearGradient></defs></svg>