<?xml version="1.0" standalone="no"?>
  <!DOCTYPE svg PUBLIC "-//W3C//DTD SVG 1.1//EN" "http://www.w3.org/Graphics/SVG/1.1/DTD/svg11.dtd" >
  <svg>
  <metadata>
  Created by font-carrier
  </metadata>
  <defs>
  <font id="Gilroy-Bold" horiz-adv-x="1139" vert-adv-y="1139" >
    <font-face
      
      font-family="Gilroy"
      
      font-weight="400"
      
      font-stretch="normal"
      
      units-per-em="1000"
      
      ascent="773"
      
      descent="-227"
      
    />
      <missing-glyph />

      

      
      <glyph glyph-name="uni21" unicode="&#x21;" d="M185 235L83 235L56 500L56 700L211 700L211 500L185 235M219 72Q219 72 219 54.50Q219 37 194 12Q169-13 134-13Q99-13 74 12Q49 37 49 72Q49 107 74 132Q99 157 134 157Q169 157 194 132Q219 107 219 72Z"  horiz-adv-x="268" vert-adv-y="1000"  />

      
      <glyph glyph-name="uni22" unicode="&#x22;" d="M148 470L60 470L43 700L165 700L148 470M318 470L230 470L213 700L335 700L318 470Z"  horiz-adv-x="378" vert-adv-y="1000"  />

      
      <glyph glyph-name="uni23" unicode="&#x23;" d="M593 493L577 395L469 395L454 305L563 305L547 208L437 208L411 50L309 50L335 208L233 208L207 50L106 50L132 208L23 208L39 305L149 305L164 395L53 395L69 493L180 493L206 650L307 650L281 493L383 493L409 650L511 650L485 493L593 493M250 305L352 305L367 395L265 395L250 305Z"  horiz-adv-x="616" vert-adv-y="1000"  />

      
      <glyph glyph-name="uni24" unicode="&#x24;" d="M524 196Q524 110 469 54.50Q414-1 322-12L322-100L255-100L255-13Q171-7 111 34Q51 75 25 145L144 214Q176 133 255 123L255 296L254 296L252 297Q191 319 143 349Q62 400 56 511Q56 600 113 652Q173 706 255 713L255 800L322 800L322 711Q458 694 514 570L398 502Q374 562 322 575L322 408Q419 369 447 349Q524 293 524 196M193 510Q193 488 207 471.50Q221 455 255 438L255 578Q193 566 193 510M322 269L322 125Q386 138 386 195Q386 240 322 269Z"  horiz-adv-x="549" vert-adv-y="1000"  />

      
      <glyph glyph-name="uni25" unicode="&#x25;" d="M334 431Q285 384 214 384Q142 384 93 432Q45 480 45 549Q45 618 93 666Q143 714 214 714Q286 714 334 666Q382 620 382 549Q382 479 334 431M176 71L116 106L572 613L633 579L176 71M168 503Q186 485 213 485Q240 485 258 503Q276 522 276 549Q276 576 258 594Q240 612 213 612Q186 612 168 594Q151 576 151 549Q151 522 168 503M720 153Q720 153 720 118.50Q720 84 672 36Q624-12 552-12Q480-12 432 36Q384 84 384 153Q384 222 432 270Q480 318 552 318Q624 318 672 270Q720 222 720 153M596.50 107.50Q596.50 107.50 605.25 116.75Q614 126 614 153Q614 180 596.50 198.50Q579 217 552 217Q525 217 507.50 198.50Q490 180 490 153Q490 126 507.50 107.50Q525 89 552 89Q579 89 596.50 107.50Z"  horiz-adv-x="765" vert-adv-y="1000"  />

      
      <glyph glyph-name="uni26" unicode="&#x26;" d="M562 139L652 40L542-23L478 46Q397-14 290-14Q183-14 113 42Q45 99 45 194Q45 257 75.50 309.50Q106 362 162 395Q128 448 128 512Q128 601 190 657Q252 714 347 714Q423 714 482 675Q541 636 570 564L452 496Q424 580 349 580Q313 580 289.50 559Q266 538 266 506Q266 479 278.50 456.50Q291 434 323 400L473 236Q495 281 507 352L623 286Q603 204 562 139M299 113Q352 113 392 138L241 302Q239 304 239 305Q184 271 184 208Q184 164 214 138.50Q244 113 299 113Z"  horiz-adv-x="673" vert-adv-y="1000"  />

      
      <glyph glyph-name="uni27" unicode="&#x27;" d="M148 470L60 470L43 700L165 700L148 470Z"  horiz-adv-x="208" vert-adv-y="1000"  />

      
      <glyph glyph-name="uni28" unicode="&#x28;" d="M292-100L163-100Q53 120 53 350Q53 580 163 800L292 800Q182 580 182 350Q182 120 292-100Z"  horiz-adv-x="307" vert-adv-y="1000"  />

      
      <glyph glyph-name="uni29" unicode="&#x29;" d="M144-100L15-100Q125 120 125 350Q125 580 15 800L144 800Q254 580 254 350Q254 120 144-100Z"  horiz-adv-x="307" vert-adv-y="1000"  />

      
      <glyph glyph-name="uni2a" unicode="&#x2a;" d="M255 601L346 609L346 529L255 536L310 466L242 424L199 508L156 424L89 466L143 536L53 529L53 609L143 601L89 672L156 714L199 630L242 714L310 672L255 601Z"  horiz-adv-x="398" vert-adv-y="1000"  />

      
      <glyph glyph-name="uni2b" unicode="&#x2b;" d="M338 411L503 411L503 290L338 290L338 125L217 125L217 290L53 290L53 411L217 411L217 575L338 575L338 411Z"  horiz-adv-x="555" vert-adv-y="1000"  />

      
      <glyph glyph-name="uni2c" unicode="&#x2c;" d="M89 138L229 138L154-140L49-140L89 138Z"  horiz-adv-x="278" vert-adv-y="1000"  />

      
      <glyph glyph-name="uni2d" unicode="&#x2d;" d="M440 240L65 240L65 364L440 364L440 240Z"  horiz-adv-x="505" vert-adv-y="1000"  />

      
      <glyph glyph-name="uni2e" unicode="&#x2e;" d="M219 72Q219 72 219 54.50Q219 37 194 12Q169-13 134-13Q99-13 74 12Q49 37 49 72Q49 107 74 132Q99 157 134 157Q169 157 194 132Q219 107 219 72Z"  horiz-adv-x="268" vert-adv-y="1000"  />

      
      <glyph glyph-name="uni2f" unicode="&#x2f;" d="M490 800L90-100L33-100L433 800L490 800Z"  horiz-adv-x="523" vert-adv-y="1000"  />

      
      <glyph glyph-name="uni30" unicode="&#x30;" d="M315-14Q184-14 109 85Q35 186 35 350Q35 514 109 614Q184 714 315 714Q448 714 521 614Q595 514 595 350Q595 186 521 85Q448-14 315-14M458 350Q458 462 421.50 521Q385 580 315 580Q245 580 209 521Q173 462 173 350Q173 238 209 179.50Q245 121 315 121Q385 121 421.50 180Q458 239 458 350Z"  horiz-adv-x="630" vert-adv-y="1000"  />

      
      <glyph glyph-name="uni31" unicode="&#x31;" d="M11 635L195 700L315 700L315 0L177 0L177 554L45 517L11 635Z"  horiz-adv-x="387" vert-adv-y="1000"  />

      
      <glyph glyph-name="uni32" unicode="&#x32;" d="M495 0L27 0L27 103L266 349Q346 434 346 489Q346 530 320.50 555Q295 580 255 580Q175 580 138 498L22 566Q54 637 115.50 675.50Q177 714 253 714Q348 714 416 654Q484 595 484 494Q484 385 369 270L232 133L495 133L495 0Z"  horiz-adv-x="531" vert-adv-y="1000"  />

      
      <glyph glyph-name="uni33" unicode="&#x33;" d="M484 586L353 416Q426 395 469.50 342Q513 289 513 216Q513 108 440 47Q369-14 263-14Q180-14 116 24.50Q52 63 23 134L141 202Q166 121 263 121Q316 121 345.50 146.50Q375 172 375 216Q375 259 345.50 285Q316 311 263 311L233 311L180 391L318 571L44 571L44 700L484 700L484 586Z"  horiz-adv-x="545" vert-adv-y="1000"  />

      
      <glyph glyph-name="uni34" unicode="&#x34;" d="M491 247L566 247L566 119L491 119L491 0L352 0L352 119L21 119L21 247L254 700L402 700L170 247L352 247L352 413L491 413L491 247Z"  horiz-adv-x="580" vert-adv-y="1000"  />

      
      <glyph glyph-name="uni35" unicode="&#x35;" d="M208 445L280 445Q382 445 450 384Q519 324 519 216Q519 108 446 47Q375-14 269-14Q183-14 118.50 24.50Q54 63 25 136L143 205Q168 121 269 121Q322 121 351.50 146.50Q381 172 381 216Q381 259 352 285Q323 311 273 311L61 311L89 700L486 700L486 571L217 571L208 445Z"  horiz-adv-x="548" vert-adv-y="1000"  />

      
      <glyph glyph-name="uni36" unicode="&#x36;" d="M440 700L285 473Q394 470 462 402Q530 334 530 230Q530 123 459 54Q388-14 276-14Q164-14 93 54Q23 121 23 230Q23 309 64 371L282 700L440 700M393 230Q393 280 360 311.50Q327 343 276 343Q225 343 192.50 312Q160 281 160 230Q160 179 192.50 147.50Q225 116 276 116Q327 116 360 147.50Q393 179 393 230Z"  horiz-adv-x="553" vert-adv-y="1000"  />

      
      <glyph glyph-name="uni37" unicode="&#x37;" d="M13 568L13 700L465 700L465 583L228 0L82 0L312 568L13 568Z"  horiz-adv-x="490" vert-adv-y="1000"  />

      
      <glyph glyph-name="uni38" unicode="&#x38;" d="M438 364Q535 306 535 195Q535 98 467.50 42Q400-14 284-14Q167-14 100 42Q33 98 33 195Q33 305 129 364Q56 416 56 509Q56 606 121 660Q187 714 284 714Q382 714 446 660Q511 606 511 509Q511 416 438 364M374 502Q374 540 349 562Q324 584 284 584Q244 584 219 562Q194 540 194 502Q194 463 219 441Q244 419 284 419Q324 419 349 441Q374 463 374 502M367 142Q367 142 382.50 155Q398 168 398 213Q398 258 367 283.50Q336 309 284 309Q232 309 201 283.50Q170 258 170 213Q170 168 201 142Q232 116 284 116Q336 116 367 142Z"  horiz-adv-x="568" vert-adv-y="1000"  />

      
      <glyph glyph-name="uni39" unicode="&#x39;" d="M530 471Q530 390 488 329L489 329L271 0L113 0L269 228Q160 229 91 297Q23 365 23 471Q23 579 93 646Q164 714 276 714Q388 714 459 646Q530 578 530 471M160 471Q160 420 193 388.50Q226 357 276 357Q328 357 360.50 388.50Q393 420 393 471Q393 522 360.50 553Q328 584 276 584Q226 584 193 552.50Q160 521 160 471Z"  horiz-adv-x="553" vert-adv-y="1000"  />

      
      <glyph glyph-name="uni3a" unicode="&#x3a;" d="M219 430Q219 430 219 412.50Q219 395 194 370Q169 345 134 345Q99 345 74 370Q49 395 49 430Q49 465 74 490Q99 515 134 515Q169 515 194 490Q219 465 219 430M219 72Q219 72 219 54.50Q219 37 194 12Q169-13 134-13Q99-13 74 12Q49 37 49 72Q49 107 74 132Q99 157 134 157Q169 157 194 132Q219 107 219 72Z"  horiz-adv-x="268" vert-adv-y="1000"  />

      
      <glyph glyph-name="uni3b" unicode="&#x3b;" d="M230 430Q230 430 230 412.50Q230 395 205 370Q180 345 145 345Q110 345 85 370Q60 395 60 430Q60 465 85 490Q110 515 145 515Q180 515 205 490Q230 465 230 430M89 138L229 138L154-140L49-140L89 138Z"  horiz-adv-x="279" vert-adv-y="1000"  />

      
      <glyph glyph-name="uni3c" unicode="&#x3c;" d="M45 408L483 598L483 464L192 350L483 237L483 103L45 293L45 408Z"  horiz-adv-x="528" vert-adv-y="1000"  />

      
      <glyph glyph-name="uni3d" unicode="&#x3d;" d="M480 393L45 393L45 514L480 514L480 393M480 186L45 186L45 307L480 307L480 186Z"  horiz-adv-x="525" vert-adv-y="1000"  />

      
      <glyph glyph-name="uni3e" unicode="&#x3e;" d="M45 464L45 598L483 408L483 293L45 103L45 237L336 350L45 464Z"  horiz-adv-x="528" vert-adv-y="1000"  />

      
      <glyph glyph-name="uni3f" unicode="&#x3f;" d="M333 235L195 235Q195 276 220 316Q245 356 279 383Q363 451 363 507Q363 542 339 561Q315 580 272 580Q188 580 153 491L35 559Q65 632 130 673Q195 714 277 714Q367 714 434 661Q501 609 501 517Q501 476 483.50 439.50Q466 403 441.50 377.50Q417 352 392.50 329.50Q368 307 350.50 283Q333 259 333 235M349 72Q349 72 349 54.50Q349 37 324 12Q299-13 264-13Q229-13 204 12Q179 37 179 72Q179 107 204 132Q229 157 264 157Q299 157 324 132Q349 107 349 72Z"  horiz-adv-x="553" vert-adv-y="1000"  />

      
      <glyph glyph-name="uni40" unicode="&#x40;" d="M397 612Q503 612 585 560Q665 510 706 433.50Q747 357 747 270Q747 168 703 110.50Q659 53 588 53Q487 53 456 132Q419 86 357 86Q293 86 251 132Q210 179 210 250Q210 320 251 367Q293 414 357 414Q411 414 448 377L448 403L555 403L555 172Q555 99 613 99Q657 99 683 143Q709 187 709 270Q709 400 619 489Q528 578 397 578Q259 578 164 483Q70 389 70 250Q70 108 168 15Q266-78 415-78Q511-78 577-53L577-89Q508-112 415-112Q251-112 142-9Q33 93 33 250Q33 400 137 506Q242 612 397 612M384 182Q412 182 429.50 201Q447 220 447 250Q447 281 429.50 299.50Q412 318 384 318Q355 318 337 299.50Q319 281 319 250Q319 220 337 201Q355 182 384 182Z"  horiz-adv-x="779" vert-adv-y="1000"  />

      
      <glyph glyph-name="uni41" unicode="&#x41;" d="M665 0L515 0L473 126L194 126L152 0L3 0L248 700L419 700L665 0M334 541L238 255L430 255L334 541Z"  horiz-adv-x="668" vert-adv-y="1000"  />

      
      <glyph glyph-name="uni42" unicode="&#x42;" d="M488 363Q580 310 580 203Q580 114 517 57Q454 0 362 0L65 0L65 700L341 700Q430 700 492 644Q554 588 554 503Q554 416 488 363M341 571L203 571L203 417L341 417Q373 417 394.50 439Q416 461 416 494Q416 527 395 549Q374 571 341 571M203 129L362 129Q397 129 420 152.50Q443 176 443 212Q443 247 420 270.50Q397 294 362 294L203 294L203 129Z"  horiz-adv-x="605" vert-adv-y="1000"  />

      
      <glyph glyph-name="uni43" unicode="&#x43;" d="M397-14Q240-14 136 91Q33 195 33 350Q33 506 136 609Q240 714 397 714Q492 714 572.50 669.50Q653 625 698 549L579 480Q553 527 505 553.50Q457 580 397 580Q295 580 232 516Q170 451 170 350Q170 250 232 185Q295 121 397 121Q457 121 505.50 147.50Q554 174 579 220L698 151Q653 75 572.50 30.50Q492-14 397-14Z"  horiz-adv-x="726" vert-adv-y="1000"  />

      
      <glyph glyph-name="uni44" unicode="&#x44;" d="M65 700L343 700Q487 700 583 599Q680 499 680 350Q680 201 583 101Q487 0 343 0L65 0L65 700M203 132L343 132Q434 132 491 192Q548 254 548 350Q548 447 491 507Q434 568 343 568L203 568L203 132Z"  horiz-adv-x="713" vert-adv-y="1000"  />

      
      <glyph glyph-name="uni45" unicode="&#x45;" d="M203 289L203 132L498 132L498 0L65 0L65 700L493 700L493 568L203 568L203 419L468 419L468 289L203 289Z"  horiz-adv-x="530" vert-adv-y="1000"  />

      
      <glyph glyph-name="uni46" unicode="&#x46;" d="M483 700L483 568L203 568L203 402L475 402L475 270L203 270L203 0L65 0L65 700L483 700Z"  horiz-adv-x="519" vert-adv-y="1000"  />

      
      <glyph glyph-name="uni47" unicode="&#x47;" d="M401 376L752 376L752 322Q752 172 656 79Q560-14 408-14Q246-14 139 91Q33 197 33 349Q33 502 138 608Q244 714 400 714Q497 714 578 670Q659 626 705 551L587 483Q562 526 511 553Q460 580 399 580Q298 580 234 514Q170 450 170 349Q170 250 235 185Q300 121 409 121Q488 121 541 156Q594 191 613 254L401 254L401 376Z"  horiz-adv-x="785" vert-adv-y="1000"  />

      
      <glyph glyph-name="uni48" unicode="&#x48;" d="M463 422L463 700L600 700L600 0L463 0L463 290L203 290L203 0L65 0L65 700L203 700L203 422L463 422Z"  horiz-adv-x="665" vert-adv-y="1000"  />

      
      <glyph glyph-name="uni49" unicode="&#x49;" d="M65 0L65 700L203 700L203 0L65 0Z"  horiz-adv-x="268" vert-adv-y="1000"  />

      
      <glyph glyph-name="uni4a" unicode="&#x4a;" d="M264-14Q99-14 33 119L152 187Q185 121 264 121Q318 121 345.50 146.50Q373 172 373 218L373 700L510 700L510 218Q510 108 441 47Q373-14 264-14Z"  horiz-adv-x="569" vert-adv-y="1000"  />

      
      <glyph glyph-name="uni4b" unicode="&#x4b;" d="M343 360L612 0L453 0L203 328L203 0L65 0L65 700L203 700L203 391L443 700L602 700L343 360Z"  horiz-adv-x="615" vert-adv-y="1000"  />

      
      <glyph glyph-name="uni4c" unicode="&#x4c;" d="M203 700L203 132L470 132L470 0L65 0L65 700L203 700Z"  horiz-adv-x="483" vert-adv-y="1000"  />

      
      <glyph glyph-name="uni4d" unicode="&#x4d;" d="M608 700L750 700L750 0L613 0L613 454L416 129L400 129L203 453L203 0L65 0L65 700L207 700L408 369L608 700Z"  horiz-adv-x="815" vert-adv-y="1000"  />

      
      <glyph glyph-name="uni4e" unicode="&#x4e;" d="M470 273L470 700L608 700L608 0L503 0L203 428L203 0L65 0L65 700L170 700L470 273Z"  horiz-adv-x="673" vert-adv-y="1000"  />

      
      <glyph glyph-name="uni4f" unicode="&#x4f;" d="M654 91Q548-14 396-14Q244-14 138 91Q33 198 33 350Q33 503 138 608Q244 714 396 714Q548 714 654 608Q760 503 760 350Q760 197 654 91M235 185Q299 121 396 121Q493 121 557 185Q622 250 622 350Q622 450 557 515Q492 580 396 580Q300 580 235 515Q170 450 170 350Q170 250 235 185Z"  horiz-adv-x="792" vert-adv-y="1000"  />

      
      <glyph glyph-name="uni50" unicode="&#x50;" d="M65 700L326 700Q426 700 496 632Q565 564 565 465Q565 366 496 298Q426 230 326 230L203 230L203 0L65 0L65 700M203 359L326 359Q370 359 399 389.50Q428 420 428 465Q428 511 399 541Q370 571 326 571L203 571L203 359Z"  horiz-adv-x="590" vert-adv-y="1000"  />

      
      <glyph glyph-name="uni51" unicode="&#x51;" d="M760 350Q760 215 674 114L746 39L648-48L572 31Q491-14 396-14Q246-14 139 91Q33 197 33 350Q33 503 139 608Q245 714 396 714Q547 714 653 608Q760 503 760 350M396 121Q436 121 474 134L359 254L457 341L580 213Q622 273 622 350Q622 450 557 515Q492 580 396 580Q300 580 235 515Q170 450 170 350Q170 251 235 186Q300 121 396 121Z"  horiz-adv-x="797" vert-adv-y="1000"  />

      
      <glyph glyph-name="uni52" unicode="&#x52;" d="M598 0L449 0L308 243L203 243L203 0L65 0L65 700L345 700Q442 700 510 632Q578 564 578 468Q578 403 541 347.50Q504 292 443 264L598 0M345 571L203 571L203 364L345 364Q384 364 412 394.50Q440 425 440 468Q440 511 412 541Q384 571 345 571Z"  horiz-adv-x="614" vert-adv-y="1000"  />

      
      <glyph glyph-name="uni53" unicode="&#x53;" d="M304-14Q201-14 130 32Q59 78 29 159L147 228Q188 121 308 121Q364 121 392 141Q420 161 420 195Q420 232 387 252Q354 273 269 297Q177 325 124 362Q58 411 58 506Q58 602 125 657Q192 714 288 714Q372 714 437 673Q502 632 538 557L422 490Q380 580 288 580Q246 580 221 560.50Q196 541 196 510Q196 477 223 456Q253 435 329 412L377 396Q390 392 422 379Q452 368 466 358Q515 328 532 296Q558 254 558 197Q558 100 487 43Q416-14 304-14Z"  horiz-adv-x="583" vert-adv-y="1000"  />

      
      <glyph glyph-name="uni54" unicode="&#x54;" d="M13 700L528 700L528 568L339 568L339 0L201 0L201 568L13 568L13 700Z"  horiz-adv-x="540" vert-adv-y="1000"  />

      
      <glyph glyph-name="uni55" unicode="&#x55;" d="M326-14Q209-14 134 52Q59 118 59 229L59 700L196 700L196 240Q196 184 228.50 152.50Q261 121 326 121Q391 121 423.50 152.50Q456 184 456 240L456 700L594 700L594 229Q594 118 519 52Q444-14 326-14Z"  horiz-adv-x="653" vert-adv-y="1000"  />

      
      <glyph glyph-name="uni56" unicode="&#x56;" d="M409 0L238 0L3 700L153 700L324 162L494 700L645 700L409 0Z"  horiz-adv-x="647" vert-adv-y="1000"  />

      
      <glyph glyph-name="uni57" unicode="&#x57;" d="M368 0L211 0L15 700L160 700L294 181L440 700L558 700L705 181L839 700L984 700L788 0L631 0L499 462L368 0Z"  horiz-adv-x="999" vert-adv-y="1000"  />

      
      <glyph glyph-name="uni58" unicode="&#x58;" d="M383 360L598 0L441 0L305 228L169 0L13 0L227 359L24 700L180 700L305 490L430 700L586 700L383 360Z"  horiz-adv-x="610" vert-adv-y="1000"  />

      
      <glyph glyph-name="uni59" unicode="&#x59;" d="M463 700L619 700L379 273L379 0L242 0L242 273L3 700L159 700L311 408L463 700Z"  horiz-adv-x="621" vert-adv-y="1000"  />

      
      <glyph glyph-name="uni5a" unicode="&#x5a;" d="M503 591L212 132L509 132L509 0L36 0L36 110L327 568L43 568L43 700L503 700L503 591Z"  horiz-adv-x="535" vert-adv-y="1000"  />

      
      <glyph glyph-name="uni5b" unicode="&#x5b;" d="M290 800L290 676L182 676L182 24L290 24L290-100L53-100L53 800L290 800Z"  horiz-adv-x="310" vert-adv-y="1000"  />

      
      <glyph glyph-name="uni5c" unicode="&#x5c;" d="M490-100L433-100L33 800L90 800L490-100Z"  horiz-adv-x="523" vert-adv-y="1000"  />

      
      <glyph glyph-name="uni5d" unicode="&#x5d;" d="M20 800L257 800L257-100L20-100L20 24L128 24L128 676L20 676L20 800Z"  horiz-adv-x="310" vert-adv-y="1000"  />

      
      <glyph glyph-name="uni5e" unicode="&#x5e;" d="M231 700L329 700L520 370L381 370L280 552L179 370L40 370L231 700Z"  horiz-adv-x="560" vert-adv-y="1000"  />

      
      <glyph glyph-name="uni5f" unicode="&#x5f;" d="M488-171L33-171L33-47L488-47L488-171Z"  horiz-adv-x="520" vert-adv-y="1000"  />

      
      <glyph glyph-name="uni60" unicode="&#x60;" d="M255 563L131 563L20 700L175 700L255 563Z"  horiz-adv-x="275" vert-adv-y="1000"  />

      
      <glyph glyph-name="uni61" unicode="&#x61;" d="M439 441L439 500L568 500L568 0L439 0L439 59Q381-14 276-14Q176-14 104 62Q33 139 33 250Q33 360 104 437Q176 514 276 514Q381 514 439 441M201 148Q240 109 300 109Q360 109 399 148Q439 188 439 250Q439 312 399 351Q360 391 300 391Q240 391 201 351Q162 312 162 250Q162 188 201 148Z"  horiz-adv-x="626" vert-adv-y="1000"  />

      
      <glyph glyph-name="uni62" unicode="&#x62;" d="M350 514Q451 514 522 437Q594 360 594 250Q594 138 522 62Q452-14 350-14Q245-14 188 59L188 0L59 0L59 700L188 700L188 441Q245 514 350 514M227 148Q266 109 326 109Q386 109 425 148Q465 188 465 250Q465 312 425 351Q386 391 326 391Q266 391 227 351Q188 312 188 250Q188 188 227 148Z"  horiz-adv-x="626" vert-adv-y="1000"  />

      
      <glyph glyph-name="uni63" unicode="&#x63;" d="M297-14Q184-14 108 62Q33 138 33 250Q33 362 108 438Q184 514 297 514Q370 514 430 479Q490 444 521 385L410 320Q395 351 364.50 369Q334 387 296 387Q238 387 200 348.50Q162 310 162 250Q162 192 200 152Q238 114 296 114Q335 114 365.50 131.50Q396 149 411 180L523 116Q490 56 429.50 21Q369-14 297-14Z"  horiz-adv-x="536" vert-adv-y="1000"  />

      
      <glyph glyph-name="uni64" unicode="&#x64;" d="M438 441L438 700L567 700L567 0L438 0L438 59Q381-14 276-14Q175-14 103 62Q32 139 32 250Q32 360 103 437Q175 514 276 514Q381 514 438 441M200 148Q241 109 300 109Q360 109 399 148Q438 188 438 250Q438 312 399 351Q360 391 300 391Q240 391 200 351Q161 312 161 250Q161 188 200 148Z"  horiz-adv-x="626" vert-adv-y="1000"  />

      
      <glyph glyph-name="uni65" unicode="&#x65;" d="M545 197L168 197Q193 103 309 103Q383 103 421 153L525 93Q451-14 307-14Q183-14 108 61Q33 136 33 250Q33 362 107 438Q180 514 297 514Q408 514 478 438Q550 362 550 250Q550 229 545 197M166 297L421 297Q410 346 376.50 372Q343 398 297 398Q245 398 211 371.50Q177 345 166 297Z"  horiz-adv-x="581" vert-adv-y="1000"  />

      
      <glyph glyph-name="uni66" unicode="&#x66;" d="M328 714L328 590Q222 597 222 505L222 500L328 500L328 376L222 376L222 0L93 0L93 376L21 376L21 500L93 500L93 505Q93 612 152.50 666.50Q212 721 328 714Z"  horiz-adv-x="328" vert-adv-y="1000"  />

      
      <glyph glyph-name="uni67" unicode="&#x67;" d="M442 438L442 500L568 500L568 24Q568-91 491-153Q415-214 307-214Q137-214 70-92L180-29Q217-99 311-99Q372-99 407-67Q442-35 442 24L442 78Q385 2 282 2Q176 2 104 76Q33 152 33 258Q33 364 105 439Q177 514 282 514Q385 514 442 438M402.50 159.50Q402.50 159.50 422.25 178.75Q442 198 442 258Q442 318 402 355Q363 394 302 394Q242 394 201 355Q162 318 162 258Q162 198 201.50 159.50Q241 121 302 121Q363 121 402.50 159.50Z"  horiz-adv-x="626" vert-adv-y="1000"  />

      
      <glyph glyph-name="uni68" unicode="&#x68;" d="M337 514Q420 514 472 459Q526 403 526 307L526 0L397 0L397 291Q397 340 370.50 367Q344 394 298 394Q247 394 217.50 362.50Q188 331 188 270L188 0L59 0L59 700L188 700L188 444Q234 514 337 514Z"  horiz-adv-x="577" vert-adv-y="1000"  />

      
      <glyph glyph-name="uni69" unicode="&#x69;" d="M123 560Q91 560 67.50 583.50Q44 607 44 639Q44 671 67.50 695Q91 719 123 719Q156 719 179.50 695Q203 671 203 639Q203 607 179.50 583.50Q156 560 123 560M188 0L59 0L59 500L188 500L188 0Z"  horiz-adv-x="247" vert-adv-y="1000"  />

      
      <glyph glyph-name="uni6a" unicode="&#x6a;" d="M141 560Q108 560 84.50 583.50Q61 607 61 639Q61 671 84.50 695Q108 719 141 719Q173 719 196.50 695Q220 671 220 639Q220 607 196.50 583.50Q173 560 141 560M76-10L76 500L205 500L205-10Q205-120 151.50-170.50Q98-221-13-214L-13-90Q33-93 54.50-74Q76-55 76-10Z"  horiz-adv-x="264" vert-adv-y="1000"  />

      
      <glyph glyph-name="uni6b" unicode="&#x6b;" d="M313 253L520 0L370 0L188 227L188 0L59 0L59 700L188 700L188 280L360 500L514 500L313 253Z"  horiz-adv-x="525" vert-adv-y="1000"  />

      
      <glyph glyph-name="uni6c" unicode="&#x6c;" d="M188 0L59 0L59 730L188 730L188 0Z"  horiz-adv-x="247" vert-adv-y="1000"  />

      
      <glyph glyph-name="uni6d" unicode="&#x6d;" d="M612 514Q698 514 749.50 458Q801 402 801 308L801 0L672 0L672 299Q672 344 650 369Q628 394 588 394Q544 394 519.50 365Q495 336 495 281L495 0L366 0L366 299Q366 344 344 369Q322 394 282 394Q239 394 213.50 364.50Q188 335 188 281L188 0L59 0L59 500L188 500L188 447Q233 514 327 514Q420 514 463 442Q512 514 612 514Z"  horiz-adv-x="852" vert-adv-y="1000"  />

      
      <glyph glyph-name="uni6e" unicode="&#x6e;" d="M337 514Q420 514 472 459Q526 403 526 307L526 0L397 0L397 291Q397 340 370.50 367Q344 394 298 394Q247 394 217.50 362.50Q188 331 188 270L188 0L59 0L59 500L188 500L188 444Q234 514 337 514Z"  horiz-adv-x="577" vert-adv-y="1000"  />

      
      <glyph glyph-name="uni6f" unicode="&#x6f;" d="M485 62Q409-14 297-14Q185-14 109 62Q33 138 33 250Q33 361 109 437Q186 514 297 514Q408 514 485 437Q562 360 562 250Q562 139 485 62M200 151Q239 112 297 112Q355 112 394 151Q433 190 433 250Q433 310 394 349Q355 388 297 388Q239 388 200 349Q162 309 162 250Q162 191 200 151Z"  horiz-adv-x="594" vert-adv-y="1000"  />

      
      <glyph glyph-name="uni70" unicode="&#x70;" d="M350 514Q451 514 522 437Q594 360 594 250Q594 138 522 62Q452-14 350-14Q245-14 188 59L188-200L59-200L59 500L188 500L188 441Q245 514 350 514M227 148Q266 109 326 109Q386 109 425 148Q465 188 465 250Q465 312 425 351Q386 391 326 391Q266 391 227 351Q188 312 188 250Q188 188 227 148Z"  horiz-adv-x="626" vert-adv-y="1000"  />

      
      <glyph glyph-name="uni71" unicode="&#x71;" d="M438 441L438 500L567 500L567-200L438-200L438 59Q381-14 276-14Q175-14 103 62Q32 139 32 250Q32 360 103 437Q175 514 276 514Q381 514 438 441M200 148Q241 109 300 109Q360 109 399 148Q438 188 438 250Q438 312 399 351Q360 391 300 391Q240 391 200 351Q161 312 161 250Q161 188 200 148Z"  horiz-adv-x="626" vert-adv-y="1000"  />

      
      <glyph glyph-name="uni72" unicode="&#x72;" d="M188 500L188 414Q205 461 246 485.50Q287 510 340 510L340 366Q281 374 234 342Q188 311 188 239L188 0L59 0L59 500L188 500Z"  horiz-adv-x="356" vert-adv-y="1000"  />

      
      <glyph glyph-name="uni73" unicode="&#x73;" d="M178 358Q178 326 269 303Q301 296 327 286.50Q353 277 379.50 259.50Q406 242 421 213Q436 184 436 146Q436 69 378 27Q320-14 235-14Q81-14 25 105L137 168Q160 103 235 103Q304 103 304 146Q304 178 213 201Q179 210 155 219Q131 228 103 245.50Q75 263 60.50 290.50Q46 318 46 355Q46 429 100 471Q155 514 236 514Q297 514 347 486.50Q397 459 426 408L316 348Q292 399 236 399Q211 399 194.50 387.50Q178 376 178 358Z"  horiz-adv-x="465" vert-adv-y="1000"  />

      
      <glyph glyph-name="uni74" unicode="&#x74;" d="M345 500L345 376L232 376L232 168Q232 142 245 130Q258 118 283 116.50Q308 115 345 117L345 0Q214-15 158.50 24.50Q103 64 103 168L103 376L16 376L16 500L103 500L103 601L232 640L232 500L345 500Z"  horiz-adv-x="385" vert-adv-y="1000"  />

      
      <glyph glyph-name="uni75" unicode="&#x75;" d="M389 230L389 500L518 500L518 0L389 0L389 56Q343-14 240-14Q158-14 104 41Q51 97 51 193L51 500L180 500L180 209Q180 160 206.50 133Q233 106 279 106Q330 106 359.50 137.50Q389 169 389 230Z"  horiz-adv-x="577" vert-adv-y="1000"  />

      
      <glyph glyph-name="uni76" unicode="&#x76;" d="M266 150L388 500L530 500L340 0L193 0L3 500L145 500L266 150Z"  horiz-adv-x="533" vert-adv-y="1000"  />

      
      <glyph glyph-name="uni77" unicode="&#x77;" d="M537 192L622 500L759 500L600 0L477 0L385 303L293 0L170 0L11 500L148 500L233 193L324 500L446 500L537 192Z"  horiz-adv-x="770" vert-adv-y="1000"  />

      
      <glyph glyph-name="uni78" unicode="&#x78;" d="M337 256L520 0L371 0L263 152L154 0L5 0L188 255L13 500L162 500L263 359L364 500L512 500L337 256Z"  horiz-adv-x="525" vert-adv-y="1000"  />

      
      <glyph glyph-name="uni79" unicode="&#x79;" d="M274 164L385 500L523 500L341 0Q302-108 237.50-156.50Q173-205 77-200L77-80Q128-81 159-58Q190-35 208 16L3 500L144 500L274 164Z"  horiz-adv-x="525" vert-adv-y="1000"  />

      
      <glyph glyph-name="uni7a" unicode="&#x7a;" d="M428 414L216 121L438 121L438 0L43 0L43 86L254 379L53 379L53 500L428 500L428 414Z"  horiz-adv-x="474" vert-adv-y="1000"  />

      
      <glyph glyph-name="uni7b" unicode="&#x7b;" d="M339 17L339-107Q129-122 129 79L129 227Q129 267 111 279.50Q93 292 50 289L50 414Q93 411 111 423.50Q129 436 129 476L129 624Q129 825 339 810L339 686Q296 691 277 677.50Q258 664 258 624L258 476Q258 385 198 352Q258 318 258 227L258 79Q258 39 277 25.50Q296 12 339 17Z"  horiz-adv-x="359" vert-adv-y="1000"  />

      
      <glyph glyph-name="uni7c" unicode="&#x7c;" d="M194-200L65-200L65 720L194 720L194-200Z"  horiz-adv-x="259" vert-adv-y="1000"  />

      
      <glyph glyph-name="uni7d" unicode="&#x7d;" d="M20-107L20 17Q63 12 82 25.50Q101 39 101 79L101 227Q101 318 161 352Q101 385 101 476L101 624Q101 664 82 677.50Q63 691 20 686L20 810Q230 825 230 624L230 476Q230 436 248 423.50Q266 411 309 414L309 289Q266 292 248 279.50Q230 267 230 227L230 79Q230-122 20-107Z"  horiz-adv-x="359" vert-adv-y="1000"  />

      
      <glyph glyph-name="uni7e" unicode="&#x7e;" d="M449 443L554 392Q528 294 459 264Q390 234 304 279Q228 316 198.50 311.50Q169 307 150 255L45 305Q71 402 140 432.50Q209 463 295 419Q374 383 400.50 386.50Q427 390 449 443Z"  horiz-adv-x="599" vert-adv-y="1000"  />

      
      <glyph glyph-name="unia1" unicode="&#xa1;" d="M49 428Q49 428 49 445.50Q49 463 74 488Q99 513 134 513Q169 513 194 488Q219 463 219 428Q219 393 194 368Q169 343 134 343Q99 343 74 368Q49 393 49 428M56 0L83 265L185 265L211 0L211-200L56-200L56 0Z"  horiz-adv-x="268" vert-adv-y="1000"  />

      
      <glyph glyph-name="unia2" unicode="&#xa2;" d="M411 280L523 216Q490 156 429.50 121Q369 86 297 86Q261 86 236 93L206 0L148 0L183 110Q114 141 73.50 205Q33 269 33 350Q33 461 108 538Q184 614 297 614Q326 614 345 610L374 700L432 700L398 594Q481 561 521 485L410 420Q393 455 358 472L276 215Q280 214 296 214Q335 214 365.50 231.50Q396 249 411 280M162 350Q162 271 223 234L305 487L296 487Q238 487 200 448.50Q162 410 162 350Z"  horiz-adv-x="536" vert-adv-y="1000"  />

      
      <glyph glyph-name="unia3" unicode="&#xa3;" d="M243 274L243 133L570 133L570 0L33 0L33 133L106 133L106 274L45 274L45 395L106 395L106 495Q106 601 171 657Q237 714 326 714Q402 714 458.50 675.50Q515 637 543 568L424 500Q398 580 329 580Q291 580 267 556.50Q243 533 243 490L243 395L446 395L446 274L243 274Z"  horiz-adv-x="581" vert-adv-y="1000"  />

      
      <glyph glyph-name="unia4" unicode="&#xa4;" d="M486 350Q486 274 441 219L511 149L473 111L402 182Q348 140 272 140Q199 140 141 181L71 111L33 149L102 219Q57 275 57 350Q57 424 102 482L33 551L71 589L141 519Q200 561 272 561Q344 561 402 519L473 589L511 551L441 481Q486 422 486 350M272 262Q310 262 334.50 287Q359 312 359 350Q359 389 334.50 413.50Q310 438 272 438Q233 438 209 413.50Q185 389 185 350Q185 311 209 286.50Q233 262 272 262Z"  horiz-adv-x="543" vert-adv-y="1000"  />

      
      <glyph glyph-name="unia5" unicode="&#xa5;" d="M463 700L619 700L429 362L531 362L531 282L384 282L379 273L379 237L531 237L531 156L379 156L379 0L242 0L242 156L71 156L71 237L242 237L242 273L237 282L71 282L71 362L192 362L3 700L159 700L311 408L463 700Z"  horiz-adv-x="601" vert-adv-y="1000"  />

      
      <glyph glyph-name="unia6" unicode="&#xa6;" d="M194 350L65 350L65 720L194 720L194 350M194-200L65-200L65 170L194 170L194-200Z"  horiz-adv-x="259" vert-adv-y="1000"  />

      
      <glyph glyph-name="unia7" unicode="&#xa7;" d="M505 284Q505 207 446 156Q479 115 479 56Q479-24 422-68Q364-112 278-112Q109-112 57 14L172 80Q199 2 278 2Q350 2 350 56Q350 80 316 102Q311 106 264 126Q256 130 232.50 139Q209 148 202 151Q126 184 87.50 223.50Q49 263 49 325Q49 403 111 450Q81 489 81 549Q81 627 136 670Q192 714 272 714Q339 714 392.50 681.50Q446 649 472 588L366 530Q335 600 272 600Q244 600 227 586.50Q210 573 210 549Q210 530 228 513Q250 494 266 487L327 462Q331 461 334.50 459.50Q338 458 342 456.50Q346 455 347 454Q417 425 454 394Q505 352 505 284M178 332Q178 286 259 254L299 239L353 219Q376 239 376 269Q376 297 355.50 314.50Q335 332 287 351L202 383Q178 365 178 332Z"  horiz-adv-x="542" vert-adv-y="1000"  />

      
      <glyph glyph-name="unia8" unicode="&#xa8;" d="M135 568Q116 549 88 549Q60 549 40 568Q20 588 20 616Q20 644 40 664Q60 684 88 684Q116 684 135 664Q155 644 155 616Q155 588 135 568M325 568Q306 549 278 549Q250 549 230 568Q210 588 210 616Q210 644 230 664Q250 684 278 684Q306 684 325 664Q345 644 345 616Q345 588 325 568Z"  horiz-adv-x="365" vert-adv-y="1000"  />

      
      <glyph glyph-name="unia9" unicode="&#xa9;" d="M757 350Q757 350 757 275Q757 200 651 94Q545-12 395-12Q245-12 139 94Q33 200 33 350Q33 500 139 606Q245 712 395 712Q545 712 651 606Q757 500 757 350M165 118Q260 22 395 22Q530 22 624 118Q719 215 719 350Q719 485 624 582Q530 678 395 678Q260 678 165 582Q70 485 70 350Q70 215 165 118M398 154Q316 154 258 212Q200 270 200 350Q200 430 258 488Q316 546 398 546Q450 546 495 520.50Q540 495 565 450L469 394Q448 435 395 435Q358 435 334.50 410.50Q311 386 311 350Q311 314 334.50 289.50Q358 265 395 265Q446 265 469 307L566 250Q541 206 495.50 180Q450 154 398 154Z"  horiz-adv-x="789" vert-adv-y="1000"  />

      
      <glyph glyph-name="uniab" unicode="&#xab;" d="M173 497L292 497L182 309L292 122L173 122L63 309L173 497M363 497L482 497L372 309L482 122L363 122L253 309L363 497Z"  horiz-adv-x="545" vert-adv-y="1000"  />

      
      <glyph glyph-name="uniac" unicode="&#xac;" d="M45 290L45 411L505 411L505 171L376 171L376 290L45 290Z"  horiz-adv-x="550" vert-adv-y="1000"  />

      
      <glyph glyph-name="uniae" unicode="&#xae;" d="M33 350Q33 350 33 425Q33 500 139 606Q245 712 395 712Q545 712 651 606Q757 500 757 350Q757 200 651 94Q545-12 395-12Q245-12 139 94Q33 200 33 350M165 118Q260 22 395 22Q530 22 624 118Q719 215 719 350Q719 485 624 582Q530 678 395 678Q260 678 165 582Q70 485 70 350Q70 215 165 118M550 412Q550 340 495 301L571 165L456 165L403 275L365 275L365 165L258 165L258 535L407 535Q468 535 509 500.50Q550 466 550 412M398 438L365 438L365 365L398 365Q419 365 431 375Q443 385 443 401Q443 438 398 438Z"  horiz-adv-x="789" vert-adv-y="1000"  />

      
      <glyph glyph-name="uniaf" unicode="&#xaf;" d="M310 564L20 564L20 669L310 669L310 564Z"  horiz-adv-x="330" vert-adv-y="1000"  />

      
      <glyph glyph-name="unib0" unicode="&#xb0;" d="M201 480Q129 480 81 528Q33 578 33 645Q33 714 81 762Q129 810 201 810Q273 810 321 762Q369 714 369 645Q369 576 321 528Q274 480 201 480M158 602Q175 585 201 585Q227 585 243 602Q260 619 260 645Q260 671 243 688Q227 705 201 705Q175 705 158 688Q142 671 142 645Q142 619 158 602Z"  horiz-adv-x="401" vert-adv-y="1000"  />

      
      <glyph glyph-name="unib1" unicode="&#xb1;" d="M338 648L338 502L503 502L503 381L338 381L338 235L217 235L217 381L53 381L53 502L217 502L217 648L338 648M503 53L53 53L53 174L503 174L503 53Z"  horiz-adv-x="555" vert-adv-y="1000"  />

      
      <glyph glyph-name="unib4" unicode="&#xb4;" d="M20 563L100 700L255 700L144 563L20 563Z"  horiz-adv-x="275" vert-adv-y="1000"  />

      
      <glyph glyph-name="unib5" unicode="&#xb5;" d="M558 121L594 121L594 0L534 0Q459 0 423 50Q377-14 278-14Q225-14 188 8L188-200L59-200L59 500L188 500L188 210Q188 160 214.50 133Q241 106 287 106Q338 106 367.50 137.50Q397 169 397 230L397 500L526 500L526 153Q526 121 558 121Z"  horiz-adv-x="617" vert-adv-y="1000"  />

      
      <glyph glyph-name="unib6" unicode="&#xb6;" d="M240 700L623 700L623 587L561 587L561-200L440-200L440 587L361 587L361-200L240-200L240 270Q151 270 88 333Q25 396 25 485Q25 574 88 637Q151 700 240 700Z"  horiz-adv-x="669" vert-adv-y="1000"  />

      
      <glyph glyph-name="unib7" unicode="&#xb7;" d="M219 347Q219 347 219 329.50Q219 312 194 287Q169 262 134 262Q99 262 74 287Q49 312 49 347Q49 382 74 407Q99 432 134 432Q169 432 194 407Q219 382 219 347Z"  horiz-adv-x="268" vert-adv-y="1000"  />

      
      <glyph glyph-name="unib8" unicode="&#xb8;" d="M170 0L170-46Q201-53 220.50-73Q240-93 240-124Q240-229 20-216L20-125Q128-132 128-105Q128-84 65-80L65 0L170 0Z"  horiz-adv-x="260" vert-adv-y="1000"  />

      
      <glyph glyph-name="unibb" unicode="&#xbb;" d="M63 497L182 497L292 309L182 122L63 122L173 309L63 497M253 497L372 497L482 309L372 122L253 122L363 309L253 497Z"  horiz-adv-x="545" vert-adv-y="1000"  />

      
      <glyph glyph-name="unibc" unicode="&#xbc;" d="M217 700L217 300L110 300L110 592L28 569L3 657L123 700L217 700M117 0L517 700L607 700L207 0L117 0M757 162L798 162L798 64L757 64L757 0L655 0L655 64L468 64L468 162L597 400L711 400L588 162L655 162L655 231L757 231L757 162Z"  horiz-adv-x="814" vert-adv-y="1000"  />

      
      <glyph glyph-name="unibd" unicode="&#xbd;" d="M217 700L217 300L110 300L110 592L28 569L3 657L123 700L217 700M117 0L517 700L607 700L207 0L117 0M706 159L641 97L780 97L780 0L481 0L481 70L631 219Q666 252 666 280Q666 296 655 306Q644 316 625 316Q584 316 563 265L476 315Q518 414 626 414Q690 414 732 378.50Q774 343 774 288Q774 227 706 159Z"  horiz-adv-x="813" vert-adv-y="1000"  />

      
      <glyph glyph-name="unibe" unicode="&#xbe;" d="M321 421Q321 356 280 321Q239 286 166 286Q51 286 10 375L100 427Q117 380 166 380Q214 380 214 421Q214 439 200 450Q186 461 163 461L144 461L104 519L173 603L28 603L28 700L303 700L303 621L231 535Q274 523 297.50 493.50Q321 464 321 421M198 0L598 700L688 700L288 0L198 0M838 162L879 162L879 64L838 64L838 0L736 0L736 64L549 64L549 162L678 400L792 400L669 162L736 162L736 231L838 231L838 162Z"  horiz-adv-x="895" vert-adv-y="1000"  />

      
      <glyph glyph-name="unibf" unicode="&#xbf;" d="M204 428Q204 428 204 445.50Q204 463 229 488Q254 513 289 513Q324 513 349 488Q374 463 374 428Q374 393 349 368Q324 343 289 343Q254 343 229 368Q204 393 204 428M220 265L358 265Q358 198 298 140Q291 133 263.50 107Q236 81 225 69Q214 57 202 35Q190 13 190-7Q190-42 214-61Q238-80 281-80Q365-80 400 9L518-59Q488-132 423-173Q358-214 276-214Q186-214 118-161Q52-108 52-17Q52 24 69.50 60.50Q87 97 111.50 122.50Q136 148 160.50 170.50Q185 193 202.50 217Q220 241 220 265Z"  horiz-adv-x="553" vert-adv-y="1000"  />

      
      <glyph glyph-name="unic0" unicode="&#xc0;" d="M336 900L416 763L292 763L181 900L336 900M665 0L515 0L473 126L194 126L152 0L3 0L248 700L419 700L665 0M334 541L238 255L430 255L334 541Z"  horiz-adv-x="668" vert-adv-y="1000"  />

      
      <glyph glyph-name="unic1" unicode="&#xc1;" d="M334 900L489 900L378 763L254 763L334 900M665 0L515 0L473 126L194 126L152 0L3 0L248 700L419 700L665 0M334 541L238 255L430 255L334 541Z"  horiz-adv-x="668" vert-adv-y="1000"  />

      
      <glyph glyph-name="unic2" unicode="&#xc2;" d="M374 755L331 820L287 755L159 755L265 900L396 900L502 755L374 755M665 0L515 0L473 126L194 126L152 0L3 0L248 700L419 700L665 0M334 541L238 255L430 255L334 541Z"  horiz-adv-x="668" vert-adv-y="1000"  />

      
      <glyph glyph-name="unic3" unicode="&#xc3;" d="M321 784Q292 805 280 800Q268 795 268 760L164 760Q164 806 174.50 838.50Q185 871 203 887Q221 903 244.50 907.50Q268 912 294 905Q320 898 346 881Q375 860 386.50 865Q398 870 398 905L503 905Q503 847 486.50 811Q470 775 443.50 764Q417 753 385.50 758Q354 763 321 784M665 0L515 0L473 126L194 126L152 0L3 0L248 700L419 700L665 0M334 541L238 255L430 255L334 541Z"  horiz-adv-x="668" vert-adv-y="1000"  />

      
      <glyph glyph-name="unic4" unicode="&#xc4;" d="M286 768Q267 749 239 749Q211 749 191 768Q171 788 171 816Q171 844 191 864Q211 884 239 884Q267 884 286 864Q306 844 306 816Q306 788 286 768M476 768Q457 749 429 749Q401 749 381 768Q361 788 361 816Q361 844 381 864Q401 884 429 884Q457 884 476 864Q496 844 496 816Q496 788 476 768M665 0L515 0L473 126L194 126L152 0L3 0L248 700L419 700L665 0M334 541L238 255L430 255L334 541Z"  horiz-adv-x="668" vert-adv-y="1000"  />

      
      <glyph glyph-name="unic5" unicode="&#xc5;" d="M665 0L515 0L473 126L194 126L152 0L3 0L242 684Q208 718 208 768Q208 819 243.50 852.50Q279 886 334 886Q390 886 425 852.50Q460 819 460 768Q460 716 425 683L665 0M334 805Q316 805 305.50 794.50Q295 784 295 768Q295 751 305.50 740.50Q316 730 334 730Q374 730 374 768Q374 805 334 805M334 541L238 255L430 255L334 541Z"  horiz-adv-x="668" vert-adv-y="1000"  />

      
      <glyph glyph-name="unic6" unicode="&#xc6;" d="M584 289L584 132L848 132L848 0L450 0L450 126L229 126L155 0L0 0L414 700L843 700L843 568L584 568L584 419L820 419L820 289L584 289M450 501L305 255L450 255L450 501Z"  horiz-adv-x="880" vert-adv-y="1000"  />

      
      <glyph glyph-name="unic7" unicode="&#xc7;" d="M397 121Q457 121 505.50 147.50Q554 174 579 220L698 151Q660 87 596.50 45Q533 3 455-10L455-46Q486-53 505.50-73Q525-93 525-124Q525-229 305-216L305-125Q413-132 413-105Q413-84 350-80L350-11Q209 6 121 106Q33 207 33 350Q33 506 136 609Q240 714 397 714Q492 714 572.50 669.50Q653 625 698 549L579 480Q553 527 505 553.50Q457 580 397 580Q295 580 232 516Q170 451 170 350Q170 250 232 185Q295 121 397 121Z"  horiz-adv-x="726" vert-adv-y="1000"  />

      
      <glyph glyph-name="unic8" unicode="&#xc8;" d="M281 900L361 763L237 763L126 900L281 900M203 289L203 132L498 132L498 0L65 0L65 700L493 700L493 568L203 568L203 419L468 419L468 289L203 289Z"  horiz-adv-x="530" vert-adv-y="1000"  />

      
      <glyph glyph-name="unic9" unicode="&#xc9;" d="M279 900L434 900L323 763L199 763L279 900M203 289L203 132L498 132L498 0L65 0L65 700L493 700L493 568L203 568L203 419L468 419L468 289L203 289Z"  horiz-adv-x="530" vert-adv-y="1000"  />

      
      <glyph glyph-name="unica" unicode="&#xca;" d="M319 755L276 820L232 755L104 755L210 900L341 900L447 755L319 755M203 289L203 132L498 132L498 0L65 0L65 700L493 700L493 568L203 568L203 419L468 419L468 289L203 289Z"  horiz-adv-x="530" vert-adv-y="1000"  />

      
      <glyph glyph-name="unicb" unicode="&#xcb;" d="M231 768Q212 749 184 749Q156 749 136 768Q116 788 116 816Q116 844 136 864Q156 884 184 884Q212 884 231 864Q251 844 251 816Q251 788 231 768M421 768Q402 749 374 749Q346 749 326 768Q306 788 306 816Q306 844 326 864Q346 884 374 884Q402 884 421 864Q441 844 441 816Q441 788 421 768M203 289L203 132L498 132L498 0L65 0L65 700L493 700L493 568L203 568L203 419L468 419L468 289L203 289Z"  horiz-adv-x="530" vert-adv-y="1000"  />

      
      <glyph glyph-name="unicc" unicode="&#xcc;" d="M216 763L92 763L-19 900L136 900L216 763M65 700L65 0L203 0L203 700L65 700Z"  horiz-adv-x="268" vert-adv-y="1000"  />

      
      <glyph glyph-name="unicd" unicode="&#xcd;" d="M54 763L134 900L289 900L178 763L54 763M65 700L65 0L203 0L203 700L65 700Z"  horiz-adv-x="268" vert-adv-y="1000"  />

      
      <glyph glyph-name="unice" unicode="&#xce;" d="M174 755L131 820L87 755L-41 755L65 900L196 900L302 755L174 755M203 0L65 0L65 700L203 700L203 0Z"  horiz-adv-x="268" vert-adv-y="1000"  />

      
      <glyph glyph-name="unicf" unicode="&#xcf;" d="M86 768Q67 749 39 749Q11 749-9 768Q-29 788-29 816Q-29 844-9 864Q11 884 39 884Q67 884 86 864Q106 844 106 816Q106 788 86 768M276 768Q257 749 229 749Q201 749 181 768Q161 788 161 816Q161 844 181 864Q201 884 229 884Q257 884 276 864Q296 844 296 816Q296 788 276 768M65 0L65 700L203 700L203 0L65 0Z"  horiz-adv-x="268" vert-adv-y="1000"  />

      
      <glyph glyph-name="unid0" unicode="&#xd0;" d="M100 700L378 700Q522 700 618 599Q715 499 715 350Q715 201 618 101Q522 0 378 0L100 0L100 281L22 281L22 405L100 405L100 700M238 132L378 132Q469 132 526 192Q583 254 583 350Q583 447 526 507Q469 568 378 568L238 568L238 405L397 405L397 281L238 281L238 132Z"  horiz-adv-x="748" vert-adv-y="1000"  />

      
      <glyph glyph-name="unid1" unicode="&#xd1;" d="M263 760L159 760Q159 806 169.50 838.50Q180 871 198 887Q216 903 239.50 907.50Q263 912 289 905Q315 898 341 881Q370 860 381.50 865Q393 870 393 905L498 905Q498 847 481.50 811Q465 775 438.50 764Q412 753 380.50 758Q349 763 316 784Q287 805 275 800Q263 795 263 760M470 273L470 700L608 700L608 0L503 0L203 428L203 0L65 0L65 700L170 700L470 273Z"  horiz-adv-x="673" vert-adv-y="1000"  />

      
      <glyph glyph-name="unid2" unicode="&#xd2;" d="M478 771L354 771L243 908L398 908L478 771M654 91Q760 197 760 350Q760 503 654 608Q548 714 396 714Q244 714 138 608Q33 503 33 350Q33 198 138 91Q244-14 396-14Q548-14 654 91M235 185Q170 250 170 350Q170 450 235 515Q300 580 396 580Q492 580 557 515Q622 450 622 350Q622 250 557 185Q493 121 396 121Q299 121 235 185Z"  horiz-adv-x="792" vert-adv-y="1000"  />

      
      <glyph glyph-name="unid3" unicode="&#xd3;" d="M316 771L396 908L551 908L440 771L316 771M654 91Q760 197 760 350Q760 503 654 608Q548 714 396 714Q244 714 138 608Q33 503 33 350Q33 198 138 91Q244-14 396-14Q548-14 654 91M235 185Q170 250 170 350Q170 450 235 515Q300 580 396 580Q492 580 557 515Q622 450 622 350Q622 250 557 185Q493 121 396 121Q299 121 235 185Z"  horiz-adv-x="792" vert-adv-y="1000"  />

      
      <glyph glyph-name="unid4" unicode="&#xd4;" d="M436 763L393 828L349 763L221 763L327 908L458 908L564 763L436 763M138 608Q244 714 396 714Q548 714 654 608Q760 503 760 350Q760 197 654 91Q548-14 396-14Q244-14 138 91Q33 198 33 350Q33 503 138 608M235 185Q299 121 396 121Q493 121 557 185Q622 250 622 350Q622 450 557 515Q492 580 396 580Q300 580 235 515Q170 450 170 350Q170 250 235 185Z"  horiz-adv-x="792" vert-adv-y="1000"  />

      
      <glyph glyph-name="unid5" unicode="&#xd5;" d="M330 768L226 768Q226 814 236.50 846.50Q247 879 265 895Q283 911 306.50 915.50Q330 920 356 913Q382 906 408 889Q437 868 448.50 873Q460 878 460 913L565 913Q565 855 548.50 819Q532 783 505.50 772Q479 761 447.50 766Q416 771 383 792Q354 813 342 808Q330 803 330 768M654 91Q548-14 396-14Q244-14 138 91Q33 198 33 350Q33 503 138 608Q244 714 396 714Q548 714 654 608Q760 503 760 350Q760 197 654 91M235 185Q299 121 396 121Q493 121 557 185Q622 250 622 350Q622 450 557 515Q492 580 396 580Q300 580 235 515Q170 450 170 350Q170 250 235 185Z"  horiz-adv-x="792" vert-adv-y="1000"  />

      
      <glyph glyph-name="unid6" unicode="&#xd6;" d="M348 776Q329 757 301 757Q273 757 253 776Q233 796 233 824Q233 852 253 872Q273 892 301 892Q329 892 348 872Q368 852 368 824Q368 796 348 776M538 776Q519 757 491 757Q463 757 443 776Q423 796 423 824Q423 852 443 872Q463 892 491 892Q519 892 538 872Q558 852 558 824Q558 796 538 776M654 91Q548-14 396-14Q244-14 138 91Q33 198 33 350Q33 503 138 608Q244 714 396 714Q548 714 654 608Q760 503 760 350Q760 197 654 91M235 185Q299 121 396 121Q493 121 557 185Q622 250 622 350Q622 450 557 515Q492 580 396 580Q300 580 235 515Q170 450 170 350Q170 250 235 185Z"  horiz-adv-x="792" vert-adv-y="1000"  />

      
      <glyph glyph-name="unid7" unicode="&#xd7;" d="M376 555L462 471L341 350L462 229L376 145L256 265L136 145L50 229L171 350L50 471L136 555L256 435L376 555Z"  horiz-adv-x="512" vert-adv-y="1000"  />

      
      <glyph glyph-name="unid8" unicode="&#xd8;" d="M719 672L664 605Q766 500 766 350Q766 197 660 91Q554-14 402-14Q291-14 201 46L154-11L86 29L141 95Q39 202 39 350Q39 503 144 608Q250 714 402 714Q512 714 604 654L651 711L719 672M176 350Q176 261 228 200L518 550Q464 580 402 580Q306 580 241 515Q176 450 176 350M402 121Q499 121 563 185Q628 250 628 350Q628 438 577 500L287 150Q340 121 402 121Z"  horiz-adv-x="798" vert-adv-y="1000"  />

      
      <glyph glyph-name="unid9" unicode="&#xd9;" d="M408 763L284 763L173 900L328 900L408 763M326-14Q444-14 519 52Q594 118 594 229L594 700L456 700L456 240Q456 184 423.50 152.50Q391 121 326 121Q261 121 228.50 152.50Q196 184 196 240L196 700L59 700L59 229Q59 118 134 52Q209-14 326-14Z"  horiz-adv-x="653" vert-adv-y="1000"  />

      
      <glyph glyph-name="unida" unicode="&#xda;" d="M246 763L326 900L481 900L370 763L246 763M326-14Q444-14 519 52Q594 118 594 229L594 700L456 700L456 240Q456 184 423.50 152.50Q391 121 326 121Q261 121 228.50 152.50Q196 184 196 240L196 700L59 700L59 229Q59 118 134 52Q209-14 326-14Z"  horiz-adv-x="653" vert-adv-y="1000"  />

      
      <glyph glyph-name="unidb" unicode="&#xdb;" d="M366 755L323 820L279 755L151 755L257 900L388 900L494 755L366 755M456 240L456 700L594 700L594 229Q594 118 519 52Q444-14 326-14Q209-14 134 52Q59 118 59 229L59 700L196 700L196 240Q196 184 228.50 152.50Q261 121 326 121Q391 121 423.50 152.50Q456 184 456 240Z"  horiz-adv-x="653" vert-adv-y="1000"  />

      
      <glyph glyph-name="unidc" unicode="&#xdc;" d="M278 768Q259 749 231 749Q203 749 183 768Q163 788 163 816Q163 844 183 864Q203 884 231 884Q259 884 278 864Q298 844 298 816Q298 788 278 768M468 768Q449 749 421 749Q393 749 373 768Q353 788 353 816Q353 844 373 864Q393 884 421 884Q449 884 468 864Q488 844 488 816Q488 788 468 768M326-14Q209-14 134 52Q59 118 59 229L59 700L196 700L196 240Q196 184 228.50 152.50Q261 121 326 121Q391 121 423.50 152.50Q456 184 456 240L456 700L594 700L594 229Q594 118 519 52Q444-14 326-14Z"  horiz-adv-x="653" vert-adv-y="1000"  />

      
      <glyph glyph-name="unidd" unicode="&#xdd;" d="M310 900L465 900L354 763L230 763L310 900M463 700L619 700L379 273L379 0L242 0L242 273L3 700L159 700L311 408L463 700Z"  horiz-adv-x="621" vert-adv-y="1000"  />

      
      <glyph glyph-name="unide" unicode="&#xde;" d="M203 585L330 585Q428 585 496 516Q565 448 565 350Q565 252 496 183Q428 115 330 115L203 115L203 0L65 0L65 700L203 700L203 585M203 244L330 244Q371 244 399.50 274.50Q428 305 428 350Q428 395 399.50 425.50Q371 456 330 456L203 456L203 244Z"  horiz-adv-x="590" vert-adv-y="1000"  />

      
      <glyph glyph-name="unidf" unicode="&#xdf;" d="M279-6L279 108Q392 97 392 167Q392 196 362 236L302 319Q273 362 273 390Q273 417 304 460Q336 504 336 532Q336 559 317 577.50Q298 596 268 596Q232 596 210 573.50Q188 551 188 509L188 0L59 0L59 508Q59 603 117 658Q176 714 273 714Q360 714 413 666Q465 620 465 552Q465 520 450 488.50Q435 457 420 433.50Q405 410 405 398Q405 366 463 294Q487 264 504 223Q521 182 521 145Q521 68 464 25Q409-18 279-6Z"  horiz-adv-x="537" vert-adv-y="1000"  />

      
      <glyph glyph-name="unie0" unicode="&#xe0;" d="M311 700L391 563L267 563L156 700L311 700M439 441L439 500L568 500L568 0L439 0L439 59Q381-14 276-14Q176-14 104 62Q33 139 33 250Q33 360 104 437Q176 514 276 514Q381 514 439 441M201 148Q240 109 300 109Q360 109 399 148Q439 188 439 250Q439 312 399 351Q360 391 300 391Q240 391 201 351Q162 312 162 250Q162 188 201 148Z"  horiz-adv-x="626" vert-adv-y="1000"  />

      
      <glyph glyph-name="unie1" unicode="&#xe1;" d="M309 700L464 700L353 563L229 563L309 700M439 441L439 500L568 500L568 0L439 0L439 59Q381-14 276-14Q176-14 104 62Q33 139 33 250Q33 360 104 437Q176 514 276 514Q381 514 439 441M201 148Q240 109 300 109Q360 109 399 148Q439 188 439 250Q439 312 399 351Q360 391 300 391Q240 391 201 351Q162 312 162 250Q162 188 201 148Z"  horiz-adv-x="626" vert-adv-y="1000"  />

      
      <glyph glyph-name="unie2" unicode="&#xe2;" d="M349 555L306 620L262 555L134 555L240 700L371 700L477 555L349 555M439 441L439 500L568 500L568 0L439 0L439 59Q381-14 276-14Q176-14 104 62Q33 139 33 250Q33 360 104 437Q176 514 276 514Q381 514 439 441M201 148Q240 109 300 109Q360 109 399 148Q439 188 439 250Q439 312 399 351Q360 391 300 391Q240 391 201 351Q162 312 162 250Q162 188 201 148Z"  horiz-adv-x="626" vert-adv-y="1000"  />

      
      <glyph glyph-name="unie3" unicode="&#xe3;" d="M296 584Q267 605 255 600Q243 595 243 560L139 560Q139 606 149.50 638.50Q160 671 178 687Q196 703 219.50 707.50Q243 712 269 705Q295 698 321 681Q350 660 361.50 665Q373 670 373 705L478 705Q478 647 461.50 611Q445 575 418.50 564Q392 553 360.50 558Q329 563 296 584M439 441L439 500L568 500L568 0L439 0L439 59Q381-14 276-14Q176-14 104 62Q33 139 33 250Q33 360 104 437Q176 514 276 514Q381 514 439 441M201 148Q240 109 300 109Q360 109 399 148Q439 188 439 250Q439 312 399 351Q360 391 300 391Q240 391 201 351Q162 312 162 250Q162 188 201 148Z"  horiz-adv-x="626" vert-adv-y="1000"  />

      
      <glyph glyph-name="unie4" unicode="&#xe4;" d="M261 568Q242 549 214 549Q186 549 166 568Q146 588 146 616Q146 644 166 664Q186 684 214 684Q242 684 261 664Q281 644 281 616Q281 588 261 568M451 568Q432 549 404 549Q376 549 356 568Q336 588 336 616Q336 644 356 664Q376 684 404 684Q432 684 451 664Q471 644 471 616Q471 588 451 568M439 441L439 500L568 500L568 0L439 0L439 59Q381-14 276-14Q176-14 104 62Q33 139 33 250Q33 360 104 437Q176 514 276 514Q381 514 439 441M201 148Q240 109 300 109Q360 109 399 148Q439 188 439 250Q439 312 399 351Q360 391 300 391Q240 391 201 351Q162 312 162 250Q162 188 201 148Z"  horiz-adv-x="626" vert-adv-y="1000"  />

      
      <glyph glyph-name="unie5" unicode="&#xe5;" d="M309 539Q254 539 218.50 573Q183 607 183 658Q183 709 218.50 742.50Q254 776 309 776Q365 776 400 742.50Q435 709 435 658Q435 606 400 572.50Q365 539 309 539M309 695Q291 695 280.50 684.50Q270 674 270 658Q270 641 280.50 630.50Q291 620 309 620Q349 620 349 658Q349 695 309 695M439 441L439 500L568 500L568 0L439 0L439 59Q381-14 276-14Q176-14 104 62Q33 139 33 250Q33 360 104 437Q176 514 276 514Q381 514 439 441M201 148Q240 109 300 109Q360 109 399 148Q439 188 439 250Q439 312 399 351Q360 391 300 391Q240 391 201 351Q162 312 162 250Q162 188 201 148Z"  horiz-adv-x="626" vert-adv-y="1000"  />

      
      <glyph glyph-name="unie6" unicode="&#xe6;" d="M952 197L575 197Q603 103 715 103Q790 103 828 153L932 93Q858-14 730-14Q625-14 560 63L560 0L439 0L439 59Q381-14 276-14Q176-14 104 62Q33 139 33 250Q33 360 104 437Q176 514 276 514Q381 514 439 441L439 500L560 500L560 438Q623 514 726 514Q834 514 895 439Q957 363 957 250Q957 229 952 197M573 298L828 298Q817 347 784.50 372.50Q752 398 705 398Q654 398 619.50 372Q585 346 573 298M201 148Q240 109 300 109Q360 109 399 148Q439 188 439 250Q439 312 399 351Q360 391 300 391Q240 391 201 351Q162 312 162 250Q162 188 201 148Z"  horiz-adv-x="988" vert-adv-y="1000"  />

      
      <glyph glyph-name="unie7" unicode="&#xe7;" d="M411 180L523 116Q468 17 355-8L355-46Q386-53 405.50-73Q425-93 425-124Q425-229 205-216L205-125Q313-132 313-105Q313-84 250-80L250-10Q154 6 93 78Q33 150 33 250Q33 362 108 438Q184 514 297 514Q370 514 430 479Q490 444 521 385L410 320Q395 351 364.50 369Q334 387 296 387Q238 387 200 348.50Q162 310 162 250Q162 192 200 152Q238 114 296 114Q335 114 365.50 131.50Q396 149 411 180Z"  horiz-adv-x="536" vert-adv-y="1000"  />

      
      <glyph glyph-name="unie8" unicode="&#xe8;" d="M293 704L373 567L249 567L138 704L293 704M545 197L168 197Q193 103 309 103Q383 103 421 153L525 93Q451-14 307-14Q183-14 108 61Q33 136 33 250Q33 362 107 438Q180 514 297 514Q408 514 478 438Q550 362 550 250Q550 229 545 197M166 297L421 297Q410 346 376.50 372Q343 398 297 398Q245 398 211 371.50Q177 345 166 297Z"  horiz-adv-x="581" vert-adv-y="1000"  />

      
      <glyph glyph-name="unie9" unicode="&#xe9;" d="M291 704L446 704L335 567L211 567L291 704M545 197L168 197Q193 103 309 103Q383 103 421 153L525 93Q451-14 307-14Q183-14 108 61Q33 136 33 250Q33 362 107 438Q180 514 297 514Q408 514 478 438Q550 362 550 250Q550 229 545 197M166 297L421 297Q410 346 376.50 372Q343 398 297 398Q245 398 211 371.50Q177 345 166 297Z"  horiz-adv-x="581" vert-adv-y="1000"  />

      
      <glyph glyph-name="uniea" unicode="&#xea;" d="M331 559L288 624L244 559L116 559L222 704L353 704L459 559L331 559M545 197L168 197Q193 103 309 103Q383 103 421 153L525 93Q451-14 307-14Q183-14 108 61Q33 136 33 250Q33 362 107 438Q180 514 297 514Q408 514 478 438Q550 362 550 250Q550 229 545 197M166 297L421 297Q410 346 376.50 372Q343 398 297 398Q245 398 211 371.50Q177 345 166 297Z"  horiz-adv-x="581" vert-adv-y="1000"  />

      
      <glyph glyph-name="unieb" unicode="&#xeb;" d="M243 572Q224 553 196 553Q168 553 148 572Q128 592 128 620Q128 648 148 668Q168 688 196 688Q224 688 243 668Q263 648 263 620Q263 592 243 572M433 572Q414 553 386 553Q358 553 338 572Q318 592 318 620Q318 648 338 668Q358 688 386 688Q414 688 433 668Q453 648 453 620Q453 592 433 572M545 197L168 197Q193 103 309 103Q383 103 421 153L525 93Q451-14 307-14Q183-14 108 61Q33 136 33 250Q33 362 107 438Q180 514 297 514Q408 514 478 438Q550 362 550 250Q550 229 545 197M166 297L421 297Q410 346 376.50 372Q343 398 297 398Q245 398 211 371.50Q177 345 166 297Z"  horiz-adv-x="581" vert-adv-y="1000"  />

      
      <glyph glyph-name="uniec" unicode="&#xec;" d="M184 555L60 555L-7 700L141 700L184 555M188 0L188 500L59 500L59 0L188 0Z"  horiz-adv-x="247" vert-adv-y="1000"  />

      
      <glyph glyph-name="unied" unicode="&#xed;" d="M60 555L102 700L250 700L184 555L60 555M59 0L188 0L188 500L59 500L59 0Z"  horiz-adv-x="247" vert-adv-y="1000"  />

      
      <glyph glyph-name="uniee" unicode="&#xee;" d="M155 555L124 609L92 555L-36 555L58 700L189 700L282 555L155 555M188 0L59 0L59 500L188 500L188 0Z"  horiz-adv-x="247" vert-adv-y="1000"  />

      
      <glyph glyph-name="unief" unicode="&#xef;" d="M86 572Q66 553 38 553Q10 553-9 572Q-29 592-29 620Q-29 648-9 668Q10 688 38 688Q66 688 86 668Q106 648 106 620Q106 592 86 572M256 572Q236 553 208 553Q180 553 160 572Q141 592 141 620Q141 648 160 668Q180 688 208 688Q236 688 256 668Q276 648 276 620Q276 592 256 572M188 0L59 0L59 500L188 500L188 0Z"  horiz-adv-x="247" vert-adv-y="1000"  />

      
      <glyph glyph-name="unif0" unicode="&#xf0;" d="M329 590L493 370Q539 308 539 230Q539 120 465 54Q392-12 286-12Q180-12 107 54Q33 120 33 230Q33 329 104 395Q176 462 276 455L218 535L91 472L91 562L170 601L98 700L247 700L280 656L398 714L398 624L329 590M196.50 141.50Q196.50 141.50 213.75 125.25Q231 109 286 109Q341 109 375.50 142Q410 175 410 230Q410 270 389 300Q351 347 286 347Q231 347 196.50 315Q162 283 162 230Q162 174 196.50 141.50Z"  horiz-adv-x="571" vert-adv-y="1000"  />

      
      <glyph glyph-name="unif1" unicode="&#xf1;" d="M285 592Q256 613 244 608Q232 603 232 568L128 568Q128 614 138.50 646.50Q149 679 167 695Q185 711 208.50 715.50Q232 720 258 713Q284 706 310 689Q339 668 350.50 673Q362 678 362 713L467 713Q467 655 450.50 619Q434 583 407.50 572Q381 561 349.50 566Q318 571 285 592M337 514Q420 514 472 459Q526 403 526 307L526 0L397 0L397 291Q397 340 370.50 367Q344 394 298 394Q247 394 217.50 362.50Q188 331 188 270L188 0L59 0L59 500L188 500L188 444Q234 514 337 514Z"  horiz-adv-x="577" vert-adv-y="1000"  />

      
      <glyph glyph-name="unif2" unicode="&#xf2;" d="M379 571L255 571L144 708L299 708L379 571M485 62Q562 139 562 250Q562 360 485 437Q408 514 297 514Q186 514 109 437Q33 361 33 250Q33 138 109 62Q185-14 297-14Q409-14 485 62M200 151Q162 191 162 250Q162 309 200 349Q239 388 297 388Q355 388 394 349Q433 310 433 250Q433 190 394 151Q355 112 297 112Q239 112 200 151Z"  horiz-adv-x="594" vert-adv-y="1000"  />

      
      <glyph glyph-name="unif3" unicode="&#xf3;" d="M217 571L297 708L452 708L341 571L217 571M485 62Q562 139 562 250Q562 360 485 437Q408 514 297 514Q186 514 109 437Q33 361 33 250Q33 138 109 62Q185-14 297-14Q409-14 485 62M200 151Q162 191 162 250Q162 309 200 349Q239 388 297 388Q355 388 394 349Q433 310 433 250Q433 190 394 151Q355 112 297 112Q239 112 200 151Z"  horiz-adv-x="594" vert-adv-y="1000"  />

      
      <glyph glyph-name="unif4" unicode="&#xf4;" d="M337 563L294 628L250 563L122 563L228 708L359 708L465 563L337 563M109 437Q186 514 297 514Q408 514 485 437Q562 360 562 250Q562 139 485 62Q409-14 297-14Q185-14 109 62Q33 138 33 250Q33 361 109 437M200 151Q239 112 297 112Q355 112 394 151Q433 190 433 250Q433 310 394 349Q355 388 297 388Q239 388 200 349Q162 309 162 250Q162 191 200 151Z"  horiz-adv-x="594" vert-adv-y="1000"  />

      
      <glyph glyph-name="unif5" unicode="&#xf5;" d="M231 568L127 568Q127 614 137.50 646.50Q148 679 166 695Q184 711 207.50 715.50Q231 720 257 713Q283 706 309 689Q338 668 349.50 673Q361 678 361 713L466 713Q466 655 449.50 619Q433 583 406.50 572Q380 561 348.50 566Q317 571 284 592Q255 613 243 608Q231 603 231 568M485 62Q409-14 297-14Q185-14 109 62Q33 138 33 250Q33 361 109 437Q186 514 297 514Q408 514 485 437Q562 360 562 250Q562 139 485 62M200 151Q239 112 297 112Q355 112 394 151Q433 190 433 250Q433 310 394 349Q355 388 297 388Q239 388 200 349Q162 309 162 250Q162 191 200 151Z"  horiz-adv-x="594" vert-adv-y="1000"  />

      
      <glyph glyph-name="unif6" unicode="&#xf6;" d="M249 576Q230 557 202 557Q174 557 154 576Q134 596 134 624Q134 652 154 672Q174 692 202 692Q230 692 249 672Q269 652 269 624Q269 596 249 576M439 576Q420 557 392 557Q364 557 344 576Q324 596 324 624Q324 652 344 672Q364 692 392 692Q420 692 439 672Q459 652 459 624Q459 596 439 576M485 62Q409-14 297-14Q185-14 109 62Q33 138 33 250Q33 361 109 437Q186 514 297 514Q408 514 485 437Q562 360 562 250Q562 139 485 62M200 151Q239 112 297 112Q355 112 394 151Q433 190 433 250Q433 310 394 349Q355 388 297 388Q239 388 200 349Q162 309 162 250Q162 191 200 151Z"  horiz-adv-x="594" vert-adv-y="1000"  />

      
      <glyph glyph-name="unif7" unicode="&#xf7;" d="M283 463Q248 463 224.50 486.50Q201 510 201 545Q197 597 251.50 619Q306 641 341 603Q379 568 357 513.50Q335 459 283 463M520 290L45 290L45 411L520 411L520 290M283 74Q257 72 236.50 87.50Q216 103 207.50 125Q199 147 202.50 172Q206 197 224 213Q260 252 314 230Q368 208 364 156Q364 121 340.50 97.50Q317 74 283 74Z"  horiz-adv-x="565" vert-adv-y="1000"  />

      
      <glyph glyph-name="unif8" unicode="&#xf8;" d="M530 477L491 431Q562 354 562 250Q562 139 485 62Q409-14 297-14Q216-14 152 28L120-9L65 23L104 69Q33 143 33 250Q33 361 109 437Q186 514 297 514Q376 514 443 471L475 509L530 477M162 250Q162 202 187 167L361 373Q332 388 297 388Q239 388 200.50 349Q162 310 162 250M297 112Q355 112 394 151Q433 190 433 250Q433 298 408 332L234 127Q262 112 297 112Z"  horiz-adv-x="594" vert-adv-y="1000"  />

      
      <glyph glyph-name="unif9" unicode="&#xf9;" d="M286 700L366 563L242 563L131 700L286 700M389 230L389 500L518 500L518 0L389 0L389 56Q343-14 240-14Q158-14 104 41Q51 97 51 193L51 500L180 500L180 209Q180 160 206.50 133Q233 106 279 106Q330 106 359.50 137.50Q389 169 389 230Z"  horiz-adv-x="577" vert-adv-y="1000"  />

      
      <glyph glyph-name="unifa" unicode="&#xfa;" d="M284 700L439 700L328 563L204 563L284 700M389 230L389 500L518 500L518 0L389 0L389 56Q343-14 240-14Q158-14 104 41Q51 97 51 193L51 500L180 500L180 209Q180 160 206.50 133Q233 106 279 106Q330 106 359.50 137.50Q389 169 389 230Z"  horiz-adv-x="577" vert-adv-y="1000"  />

      
      <glyph glyph-name="unifb" unicode="&#xfb;" d="M324 555L281 620L237 555L109 555L215 700L346 700L452 555L324 555M389 230L389 500L518 500L518 0L389 0L389 56Q343-14 240-14Q158-14 104 41Q51 97 51 193L51 500L180 500L180 209Q180 160 206.50 133Q233 106 279 106Q330 106 359.50 137.50Q389 169 389 230Z"  horiz-adv-x="577" vert-adv-y="1000"  />

      
      <glyph glyph-name="unifc" unicode="&#xfc;" d="M236 568Q217 549 189 549Q161 549 141 568Q121 588 121 616Q121 644 141 664Q161 684 189 684Q217 684 236 664Q256 644 256 616Q256 588 236 568M426 568Q407 549 379 549Q351 549 331 568Q311 588 311 616Q311 644 331 664Q351 684 379 684Q407 684 426 664Q446 644 446 616Q446 588 426 568M389 230L389 500L518 500L518 0L389 0L389 56Q343-14 240-14Q158-14 104 41Q51 97 51 193L51 500L180 500L180 209Q180 160 206.50 133Q233 106 279 106Q330 106 359.50 137.50Q389 169 389 230Z"  horiz-adv-x="577" vert-adv-y="1000"  />

      
      <glyph glyph-name="unifd" unicode="&#xfd;" d="M263 700L418 700L307 563L183 563L263 700M274 164L385 500L523 500L341 0Q302-108 237.50-156.50Q173-205 77-200L77-80Q128-81 159-58Q190-35 208 16L3 500L144 500L274 164Z"  horiz-adv-x="525" vert-adv-y="1000"  />

      
      <glyph glyph-name="unife" unicode="&#xfe;" d="M350 514Q451 514 522 437Q594 360 594 250Q594 138 522 62Q452-14 350-14Q245-14 188 59L188-200L59-200L59 700L188 700L188 441Q245 514 350 514M227 148Q266 109 326 109Q386 109 425 148Q465 188 465 250Q465 312 425 351Q386 391 326 391Q266 391 227 351Q188 312 188 250Q188 188 227 148Z"  horiz-adv-x="626" vert-adv-y="1000"  />

      
      <glyph glyph-name="uniff" unicode="&#xff;" d="M215 568Q196 549 168 549Q140 549 120 568Q100 588 100 616Q100 644 120 664Q140 684 168 684Q196 684 215 664Q235 644 235 616Q235 588 215 568M405 568Q386 549 358 549Q330 549 310 568Q290 588 290 616Q290 644 310 664Q330 684 358 684Q386 684 405 664Q425 644 425 616Q425 588 405 568M274 164L385 500L523 500L341 0Q302-108 237.50-156.50Q173-205 77-200L77-80Q128-81 159-58Q190-35 208 16L3 500L144 500L274 164Z"  horiz-adv-x="525" vert-adv-y="1000"  />

      
      <glyph glyph-name="uni0100" unicode="&#x0100;" d="M189 869L479 869L479 764L189 764L189 869M665 0L515 0L473 126L194 126L152 0L3 0L248 700L419 700L665 0M334 541L238 255L430 255L334 541Z"  horiz-adv-x="668" vert-adv-y="1000"  />

      
      <glyph glyph-name="uni0101" unicode="&#x0101;" d="M164 669L454 669L454 564L164 564L164 669M439 441L439 500L568 500L568 0L439 0L439 59Q381-14 276-14Q176-14 104 62Q33 139 33 250Q33 360 104 437Q176 514 276 514Q381 514 439 441M201 148Q240 109 300 109Q360 109 399 148Q439 188 439 250Q439 312 399 351Q360 391 300 391Q240 391 201 351Q162 312 162 250Q162 188 201 148Z"  horiz-adv-x="626" vert-adv-y="1000"  />

      
      <glyph glyph-name="uni0102" unicode="&#x0102;" d="M334 747Q255 747 211.50 785Q168 823 168 892L283 892Q283 840 334 840Q386 840 386 892L501 892Q501 823 457.50 785Q414 747 334 747M665 0L515 0L473 126L194 126L152 0L3 0L248 700L419 700L665 0M334 541L238 255L430 255L334 541Z"  horiz-adv-x="668" vert-adv-y="1000"  />

      
      <glyph glyph-name="uni0103" unicode="&#x0103;" d="M309 547Q230 547 186.50 585Q143 623 143 692L258 692Q258 640 309 640Q361 640 361 692L476 692Q476 623 432.50 585Q389 547 309 547M439 441L439 500L568 500L568 0L439 0L439 59Q381-14 276-14Q176-14 104 62Q33 139 33 250Q33 360 104 437Q176 514 276 514Q381 514 439 441M201 148Q240 109 300 109Q360 109 399 148Q439 188 439 250Q439 312 399 351Q360 391 300 391Q240 391 201 351Q162 312 162 250Q162 188 201 148Z"  horiz-adv-x="626" vert-adv-y="1000"  />

      
      <glyph glyph-name="uni0104" unicode="&#x0104;" d="M637-122Q648-123 665-117L665-198Q629-214 584-214Q541-214 515-191Q489-168 489-126Q489-69 555 0L515 0L473 126L194 126L152 0L3 0L248 700L419 700L665 0Q612-56 612-95Q612-122 637-122M334 541L238 255L430 255L334 541Z"  horiz-adv-x="668" vert-adv-y="1000"  />

      
      <glyph glyph-name="uni0105" unicode="&#x0105;" d="M568 500L568 0Q515-56 515-95Q514-122 540-122Q550-123 568-117L568-198Q529-214 487-214Q443-214 417-191Q391-168 391-126Q391-70 455 0L439 0L439 59Q381-14 276-14Q176-14 104 62Q33 139 33 250Q33 360 104 437Q176 514 276 514Q381 514 439 441L439 500L568 500M201 148Q240 109 300 109Q360 109 399 148Q439 188 439 250Q439 312 399 351Q360 391 300 391Q240 391 201 351Q162 312 162 250Q162 188 201 148Z"  horiz-adv-x="626" vert-adv-y="1000"  />

      
      <glyph glyph-name="uni0106" unicode="&#x0106;" d="M317 771L397 908L552 908L441 771L317 771M397-14Q492-14 572.50 30.50Q653 75 698 151L579 220Q554 174 505.50 147.50Q457 121 397 121Q295 121 232 185Q170 250 170 350Q170 451 232 516Q295 580 397 580Q457 580 505 553.50Q553 527 579 480L698 549Q653 625 572.50 669.50Q492 714 397 714Q240 714 136 609Q33 506 33 350Q33 195 136 91Q240-14 397-14Z"  horiz-adv-x="726" vert-adv-y="1000"  />

      
      <glyph glyph-name="uni0107" unicode="&#x0107;" d="M216 563L296 700L451 700L340 563L216 563M297-14Q369-14 429.50 21Q490 56 523 116L411 180Q396 149 365.50 131.50Q335 114 296 114Q238 114 200 152Q162 192 162 250Q162 310 200 348.50Q238 387 296 387Q334 387 364.50 369Q395 351 410 320L521 385Q490 444 430 479Q370 514 297 514Q184 514 108 438Q33 362 33 250Q33 138 108 62Q184-14 297-14Z"  horiz-adv-x="536" vert-adv-y="1000"  />

      
      <glyph glyph-name="uni010A" unicode="&#x010A;" d="M397 759Q365 759 342 782Q319 805 319 837Q319 869 342 891.50Q365 914 397 914Q428 914 451 891Q474 868 474 837Q474 805 451 782Q428 759 397 759M397-14Q240-14 136 91Q33 195 33 350Q33 506 136 609Q240 714 397 714Q492 714 572.50 669.50Q653 625 698 549L579 480Q553 527 505 553.50Q457 580 397 580Q295 580 232 516Q170 451 170 350Q170 250 232 185Q295 121 397 121Q457 121 505.50 147.50Q554 174 579 220L698 151Q653 75 572.50 30.50Q492-14 397-14Z"  horiz-adv-x="726" vert-adv-y="1000"  />

      
      <glyph glyph-name="uni010B" unicode="&#x010B;" d="M296 551Q264 549 241 574Q218 599 218 629Q218 659 241 683Q266 706 296 706Q326 706 350.50 683Q375 660 373 629Q373 597 350 574Q327 551 296 551M297-14Q184-14 108 62Q33 138 33 250Q33 362 108 438Q184 514 297 514Q370 514 430 479Q490 444 521 385L410 320Q395 351 364.50 369Q334 387 296 387Q238 387 200 348.50Q162 310 162 250Q162 192 200 152Q238 114 296 114Q335 114 365.50 131.50Q396 149 411 180L523 116Q490 56 429.50 21Q369-14 297-14Z"  horiz-adv-x="536" vert-adv-y="1000"  />

      
      <glyph glyph-name="uni010C" unicode="&#x010C;" d="M459 763L328 763L222 908L350 908L394 843L437 908L565 908L459 763M397 121Q457 121 505.50 147.50Q554 174 579 220L698 151Q653 75 572.50 30.50Q492-14 397-14Q240-14 136 91Q33 195 33 350Q33 506 136 609Q240 714 397 714Q492 714 572.50 669.50Q653 625 698 549L579 480Q553 527 505 553.50Q457 580 397 580Q295 580 232 516Q170 451 170 350Q170 250 232 185Q295 121 397 121Z"  horiz-adv-x="726" vert-adv-y="1000"  />

      
      <glyph glyph-name="uni010D" unicode="&#x010D;" d="M358 555L227 555L121 700L249 700L293 635L336 700L464 700L358 555M411 180L523 116Q490 56 429.50 21Q369-14 297-14Q184-14 108 62Q33 138 33 250Q33 362 108 438Q184 514 297 514Q370 514 430 479Q490 444 521 385L410 320Q395 351 364.50 369Q334 387 296 387Q238 387 200 348.50Q162 310 162 250Q162 192 200 152Q238 114 296 114Q335 114 365.50 131.50Q396 149 411 180Z"  horiz-adv-x="536" vert-adv-y="1000"  />

      
      <glyph glyph-name="uni010E" unicode="&#x010E;" d="M397 755L266 755L160 900L288 900L332 835L375 900L503 900L397 755M65 700L343 700Q487 700 583 599Q680 499 680 350Q680 201 583 101Q487 0 343 0L65 0L65 700M203 132L343 132Q434 132 491 192Q548 254 548 350Q548 447 491 507Q434 568 343 568L203 568L203 132Z"  horiz-adv-x="713" vert-adv-y="1000"  />

      
      <glyph glyph-name="uni010F" unicode="&#x010F;" d="M438 441L438 700L567 700L567 0L438 0L438 59Q381-14 276-14Q175-14 103 62Q32 139 32 250Q32 360 103 437Q175 514 276 514Q381 514 438 441M614 500L624 700L745 700L715 500L614 500M200 148Q241 109 300 109Q360 109 399 148Q438 188 438 250Q438 312 399 351Q360 391 300 391Q240 391 200 351Q161 312 161 250Q161 188 200 148Z"  horiz-adv-x="735" vert-adv-y="1000"  />

      
      <glyph glyph-name="uni0110" unicode="&#x0110;" d="M100 700L378 700Q522 700 618 599Q715 499 715 350Q715 201 618 101Q522 0 378 0L100 0L100 281L22 281L22 405L100 405L100 700M238 132L378 132Q469 132 526 192Q583 254 583 350Q583 447 526 507Q469 568 378 568L238 568L238 405L397 405L397 281L238 281L238 132Z"  horiz-adv-x="748" vert-adv-y="1000"  />

      
      <glyph glyph-name="uni0111" unicode="&#x0111;" d="M568 638L630 638L630 554L568 554L568 0L439 0L439 59Q381-14 276-14Q176-14 104 62Q33 139 33 250Q33 360 104 437Q176 514 276 514Q381 514 439 441L439 554L288 554L288 638L439 638L439 700L568 700L568 638M201 148Q240 109 300 109Q360 109 399 148Q439 188 439 250Q439 312 399 351Q360 391 300 391Q240 391 201 351Q162 312 162 250Q162 188 201 148Z"  horiz-adv-x="633" vert-adv-y="1000"  />

      
      <glyph glyph-name="uni0112" unicode="&#x0112;" d="M134 869L424 869L424 764L134 764L134 869M203 289L203 132L498 132L498 0L65 0L65 700L493 700L493 568L203 568L203 419L468 419L468 289L203 289Z"  horiz-adv-x="530" vert-adv-y="1000"  />

      
      <glyph glyph-name="uni0113" unicode="&#x0113;" d="M146 673L436 673L436 568L146 568L146 673M545 197L168 197Q193 103 309 103Q383 103 421 153L525 93Q451-14 307-14Q183-14 108 61Q33 136 33 250Q33 362 107 438Q180 514 297 514Q408 514 478 438Q550 362 550 250Q550 229 545 197M166 297L421 297Q410 346 376.50 372Q343 398 297 398Q245 398 211 371.50Q177 345 166 297Z"  horiz-adv-x="581" vert-adv-y="1000"  />

      
      <glyph glyph-name="uni0116" unicode="&#x0116;" d="M279 751Q247 751 224 774Q201 797 201 829Q201 861 224 883.50Q247 906 279 906Q310 906 333 883Q356 860 356 829Q356 797 333 774Q310 751 279 751M203 289L203 132L498 132L498 0L65 0L65 700L493 700L493 568L203 568L203 419L468 419L468 289L203 289Z"  horiz-adv-x="530" vert-adv-y="1000"  />

      
      <glyph glyph-name="uni0117" unicode="&#x0117;" d="M291 555Q259 555 236 578Q213 601 213 633Q213 665 236 687.50Q259 710 291 710Q322 710 345 687Q368 664 368 633Q368 601 345 578Q322 555 291 555M545 197L168 197Q193 103 309 103Q383 103 421 153L525 93Q451-14 307-14Q183-14 108 61Q33 136 33 250Q33 362 107 438Q180 514 297 514Q408 514 478 438Q550 362 550 250Q550 229 545 197M166 297L421 297Q410 346 376.50 372Q343 398 297 398Q245 398 211 371.50Q177 345 166 297Z"  horiz-adv-x="581" vert-adv-y="1000"  />

      
      <glyph glyph-name="uni0118" unicode="&#x0118;" d="M203 289L203 132L498 132L498 0L497 0Q445-55 445-95Q444-122 470-122Q480-123 497-117L497-198Q461-214 417-214Q373-214 347-191Q321-168 321-126Q321-69 387 0L65 0L65 700L493 700L493 568L203 568L203 419L468 419L468 289L203 289Z"  horiz-adv-x="530" vert-adv-y="1000"  />

      
      <glyph glyph-name="uni0119" unicode="&#x0119;" d="M545 197L168 197Q193 103 309 103Q383 103 421 153L525 93Q512 74 488 50Q404-40 404-95Q404-122 429-122Q440-123 457-117L457-198Q418-214 376-214Q332-214 306.50-191Q281-168 281-126Q281-68 346-12Q312-14 307-14Q183-14 108 61Q33 136 33 250Q33 362 107 438Q180 514 297 514Q408 514 478 438Q550 362 550 250Q550 229 545 197M166 297L421 297Q410 346 376.50 372Q343 398 297 398Q245 398 211 371.50Q177 345 166 297Z"  horiz-adv-x="581" vert-adv-y="1000"  />

      
      <glyph glyph-name="uni011A" unicode="&#x011A;" d="M341 755L210 755L104 900L232 900L276 835L319 900L447 900L341 755M203 289L203 132L498 132L498 0L65 0L65 700L493 700L493 568L203 568L203 419L468 419L468 289L203 289Z"  horiz-adv-x="530" vert-adv-y="1000"  />

      
      <glyph glyph-name="uni011B" unicode="&#x011B;" d="M353 559L222 559L116 704L244 704L288 639L331 704L459 704L353 559M545 197L168 197Q193 103 309 103Q383 103 421 153L525 93Q451-14 307-14Q183-14 108 61Q33 136 33 250Q33 362 107 438Q180 514 297 514Q408 514 478 438Q550 362 550 250Q550 229 545 197M166 297L421 297Q410 346 376.50 372Q343 398 297 398Q245 398 211 371.50Q177 345 166 297Z"  horiz-adv-x="581" vert-adv-y="1000"  />

      
      <glyph glyph-name="uni011E" unicode="&#x011E;" d="M397 755Q318 755 274.50 793Q231 831 231 900L346 900Q346 848 397 848Q449 848 449 900L564 900Q564 831 520.50 793Q477 755 397 755M401 376L752 376L752 322Q752 172 656 79Q560-14 408-14Q246-14 139 91Q33 197 33 349Q33 502 138 608Q244 714 400 714Q497 714 578 670Q659 626 705 551L587 483Q562 526 511 553Q460 580 399 580Q298 580 234 514Q170 450 170 349Q170 250 235 185Q300 121 409 121Q488 121 541 156Q594 191 613 254L401 254L401 376Z"  horiz-adv-x="785" vert-adv-y="1000"  />

      
      <glyph glyph-name="uni011F" unicode="&#x011F;" d="M297 555Q218 555 174.50 593Q131 631 131 700L246 700Q246 648 297 648Q349 648 349 700L464 700Q464 631 420.50 593Q377 555 297 555M442 438L442 500L568 500L568 24Q568-91 491-153Q415-214 307-214Q137-214 70-92L180-29Q217-99 311-99Q372-99 407-67Q442-35 442 24L442 78Q385 2 282 2Q176 2 104 76Q33 152 33 258Q33 364 105 439Q177 514 282 514Q385 514 442 438M402.50 159.50Q402.50 159.50 422.25 178.75Q442 198 442 258Q442 318 402 355Q363 394 302 394Q242 394 201 355Q162 318 162 258Q162 198 201.50 159.50Q241 121 302 121Q363 121 402.50 159.50Z"  horiz-adv-x="626" vert-adv-y="1000"  />

      
      <glyph glyph-name="uni0120" unicode="&#x0120;" d="M397 759Q365 759 342 782Q319 805 319 837Q319 869 342 891.50Q365 914 397 914Q428 914 451 891Q474 868 474 837Q474 805 451 782Q428 759 397 759M401 376L752 376L752 322Q752 172 656 79Q560-14 408-14Q246-14 139 91Q33 197 33 349Q33 502 138 608Q244 714 400 714Q497 714 578 670Q659 626 705 551L587 483Q562 526 511 553Q460 580 399 580Q298 580 234 514Q170 450 170 349Q170 250 235 185Q300 121 409 121Q488 121 541 156Q594 191 613 254L401 254L401 376Z"  horiz-adv-x="785" vert-adv-y="1000"  />

      
      <glyph glyph-name="uni0121" unicode="&#x0121;" d="M297 559Q265 559 242 582Q219 605 219 637Q219 669 242 691.50Q265 714 297 714Q328 714 351 691Q374 668 374 637Q374 605 351 582Q328 559 297 559M442 438L442 500L568 500L568 24Q568-91 491-153Q415-214 307-214Q137-214 70-92L180-29Q217-99 311-99Q372-99 407-67Q442-35 442 24L442 78Q385 2 282 2Q176 2 104 76Q33 152 33 258Q33 364 105 439Q177 514 282 514Q385 514 442 438M402.50 159.50Q402.50 159.50 422.25 178.75Q442 198 442 258Q442 318 402 355Q363 394 302 394Q242 394 201 355Q162 318 162 258Q162 198 201.50 159.50Q241 121 302 121Q363 121 402.50 159.50Z"  horiz-adv-x="626" vert-adv-y="1000"  />

      
      <glyph glyph-name="uni0122" unicode="&#x0122;" d="M401 376L752 376L752 322Q752 172 656 79Q560-14 408-14Q246-14 139 91Q33 197 33 349Q33 502 138 608Q244 714 400 714Q497 714 578 670Q659 626 705 551L587 483Q562 526 511 553Q460 580 399 580Q298 580 234 514Q170 450 170 349Q170 250 235 185Q300 121 409 121Q488 121 541 156Q594 191 613 254L401 254L401 376M443-263L341-263L351-63L473-63L443-263Z"  horiz-adv-x="785" vert-adv-y="1000"  />

      
      <glyph glyph-name="uni0123" unicode="&#x0123;" d="M259 783L361 783L351 583L229 583L259 783M442 438L442 500L568 500L568 24Q568-91 491-153Q415-214 307-214Q137-214 70-92L180-29Q217-99 311-99Q372-99 407-67Q442-35 442 24L442 78Q385 2 282 2Q176 2 104 76Q33 152 33 258Q33 364 105 439Q177 514 282 514Q385 514 442 438M402.50 159.50Q402.50 159.50 422.25 178.75Q442 198 442 258Q442 318 402 355Q363 394 302 394Q242 394 201 355Q162 318 162 258Q162 198 201.50 159.50Q241 121 302 121Q363 121 402.50 159.50Z"  horiz-adv-x="626" vert-adv-y="1000"  />

      
      <glyph glyph-name="uni0126" unicode="&#x0126;" d="M621 602L683 602L683 501L621 501L621 0L484 0L484 272L224 272L224 0L86 0L86 501L25 501L25 602L86 602L86 700L224 700L224 602L484 602L484 700L621 700L621 602M224 404L484 404L484 501L224 501L224 404Z"  horiz-adv-x="708" vert-adv-y="1000"  />

      
      <glyph glyph-name="uni0127" unicode="&#x0127;" d="M343 514Q427 514 479 459Q533 403 533 307L533 0L404 0L404 291Q404 340 377 367Q350 394 304 394Q253 394 223.50 362.50Q194 331 194 270L194 0L65 0L65 554L3 554L3 638L65 638L65 700L194 700L194 638L335 638L335 554L194 554L194 443Q241 514 343 514Z"  horiz-adv-x="583" vert-adv-y="1000"  />

      
      <glyph glyph-name="uni012A" unicode="&#x012A;" d="M279 764L-11 764L-11 869L279 869L279 764M65 0L65 700L203 700L203 0L65 0Z"  horiz-adv-x="268" vert-adv-y="1000"  />

      
      <glyph glyph-name="uni012B" unicode="&#x012B;" d="M238 564L8 564L8 676L238 676L238 564M188 0L59 0L59 500L188 500L188 0Z"  horiz-adv-x="247" vert-adv-y="1000"  />

      
      <glyph glyph-name="uni012E" unicode="&#x012E;" d="M194-122Q204-123 222-117L222-198Q183-214 141-214Q97-214 71-191Q45-168 45-126Q45-70 91 0L65 0L65 700L203 700L203 0Q169-55 169-95Q168-122 194-122Z"  horiz-adv-x="268" vert-adv-y="1000"  />

      
      <glyph glyph-name="uni012F" unicode="&#x012F;" d="M123 560Q91 560 67.50 583.50Q44 607 44 639Q44 671 67.50 695Q91 719 123 719Q156 719 179.50 695Q203 671 203 639Q203 607 179.50 583.50Q156 560 123 560M179-122Q189-123 206-117L206-198Q170-214 126-214Q83-214 56.50-190Q30-166 30-124Q30-70 73 0L59 0L59 500L188 500L188 0Q154-55 154-92Q152-122 179-122Z"  horiz-adv-x="247" vert-adv-y="1000"  />

      
      <glyph glyph-name="uni0130" unicode="&#x0130;" d="M134 751Q102 749 79 774Q56 799 56 829Q56 859 79 883Q104 906 134 906Q164 906 188.50 883Q213 860 211 829Q211 797 188 774Q165 751 134 751M65 0L65 700L203 700L203 0L65 0Z"  horiz-adv-x="268" vert-adv-y="1000"  />

      
      <glyph glyph-name="uni0131" unicode="&#x0131;" d="M188 0L59 0L59 500L188 500L188 0Z"  horiz-adv-x="247" vert-adv-y="1000"  />

      
      <glyph glyph-name="uni0136" unicode="&#x0136;" d="M602 700L343 360L612 0L453 0L203 328L203 0L65 0L65 700L203 700L203 391L443 700L602 700M344-263L242-263L252-63L374-63L344-263Z"  horiz-adv-x="615" vert-adv-y="1000"  />

      
      <glyph glyph-name="uni0137" unicode="&#x0137;" d="M514 500L313 253L520 0L370 0L188 227L188 0L59 0L59 700L188 700L188 280L360 500L514 500M317-263L215-263L225-63L347-63L317-263Z"  horiz-adv-x="525" vert-adv-y="1000"  />

      
      <glyph glyph-name="uni0139" unicode="&#x0139;" d="M147 900L302 900L191 763L67 763L147 900M203 700L203 132L470 132L470 0L65 0L65 700L203 700Z"  horiz-adv-x="483" vert-adv-y="1000"  />

      
      <glyph glyph-name="uni013A" unicode="&#x013A;" d="M57 763L137 900L292 900L181 763L57 763M59 0L188 0L188 730L59 730L59 0Z"  horiz-adv-x="247" vert-adv-y="1000"  />

      
      <glyph glyph-name="uni013B" unicode="&#x013B;" d="M203 700L203 132L470 132L470 0L65 0L65 700L203 700M311-263L209-263L219-63L341-63L311-263Z"  horiz-adv-x="483" vert-adv-y="1000"  />

      
      <glyph glyph-name="uni013C" unicode="&#x013C;" d="M188 0L59 0L59 730L188 730L188 0M157-263L55-263L65-63L187-63L157-263Z"  horiz-adv-x="247" vert-adv-y="1000"  />

      
      <glyph glyph-name="uni013D" unicode="&#x013D;" d="M203 700L203 132L470 132L470 0L65 0L65 700L203 700M277 700L406 700L376 515L267 515L277 700Z"  horiz-adv-x="483" vert-adv-y="1000"  />

      
      <glyph glyph-name="uni013E" unicode="&#x013E;" d="M188 0L59 0L59 730L188 730L188 0M334 530L232 530L242 730L364 730L334 530Z"  horiz-adv-x="354" vert-adv-y="1000"  />

      
      <glyph glyph-name="uni0141" unicode="&#x0141;" d="M223 293L223 132L490 132L490 0L85 0L85 211L25 175L25 313L85 349L85 700L223 700L223 431L355 509L355 371L223 293Z"  horiz-adv-x="503" vert-adv-y="1000"  />

      
      <glyph glyph-name="uni0142" unicode="&#x0142;" d="M196 453L250 490L250 367L196 330L196 0L67 0L67 242L13 205L13 328L67 365L67 730L196 730L196 453Z"  horiz-adv-x="263" vert-adv-y="1000"  />

      
      <glyph glyph-name="uni0143" unicode="&#x0143;" d="M249 763L329 900L484 900L373 763L249 763M470 700L470 273L170 700L65 700L65 0L203 0L203 428L503 0L608 0L608 700L470 700Z"  horiz-adv-x="673" vert-adv-y="1000"  />

      
      <glyph glyph-name="uni0144" unicode="&#x0144;" d="M298 708L453 708L342 571L218 571L298 708M337 514Q420 514 472 459Q526 403 526 307L526 0L397 0L397 291Q397 340 370.50 367Q344 394 298 394Q247 394 217.50 362.50Q188 331 188 270L188 0L59 0L59 500L188 500L188 444Q234 514 337 514Z"  horiz-adv-x="577" vert-adv-y="1000"  />

      
      <glyph glyph-name="uni0145" unicode="&#x0145;" d="M470 273L470 700L608 700L608 0L503 0L203 428L203 0L65 0L65 700L170 700L470 273M373-263L271-263L281-63L403-63L373-263Z"  horiz-adv-x="673" vert-adv-y="1000"  />

      
      <glyph glyph-name="uni0146" unicode="&#x0146;" d="M337 514Q420 514 472 459Q526 403 526 307L526 0L397 0L397 291Q397 340 370.50 367Q344 394 298 394Q247 394 217.50 362.50Q188 331 188 270L188 0L59 0L59 500L188 500L188 444Q234 514 337 514M330-263L228-263L238-63L360-63L330-263Z"  horiz-adv-x="577" vert-adv-y="1000"  />

      
      <glyph glyph-name="uni0147" unicode="&#x0147;" d="M391 755L260 755L154 900L282 900L326 835L369 900L497 900L391 755M470 273L470 700L608 700L608 0L503 0L203 428L203 0L65 0L65 700L170 700L470 273Z"  horiz-adv-x="673" vert-adv-y="1000"  />

      
      <glyph glyph-name="uni0148" unicode="&#x0148;" d="M360 563L229 563L123 708L251 708L295 643L338 708L466 708L360 563M337 514Q420 514 472 459Q526 403 526 307L526 0L397 0L397 291Q397 340 370.50 367Q344 394 298 394Q247 394 217.50 362.50Q188 331 188 270L188 0L59 0L59 500L188 500L188 444Q234 514 337 514Z"  horiz-adv-x="577" vert-adv-y="1000"  />

      
      <glyph glyph-name="uni014A" unicode="&#x014A;" d="M470 273L470 700L608 700L608 0Q608-102 547-154Q486-206 375-200L375-74Q425-74 447.50-56Q470-38 470 8L470 47L203 428L203 0L65 0L65 700L170 700L470 273Z"  horiz-adv-x="673" vert-adv-y="1000"  />

      
      <glyph glyph-name="uni014B" unicode="&#x014B;" d="M337 514Q420 514 472 459Q526 403 526 307L526-10Q526-115 473-168Q420-221 316-214L316-90Q358-94 377.50-75.50Q397-57 397-10L397 291Q397 340 370.50 367Q344 394 298 394Q247 394 217.50 362.50Q188 331 188 270L188 0L59 0L59 500L188 500L188 444Q234 514 337 514Z"  horiz-adv-x="577" vert-adv-y="1000"  />

      
      <glyph glyph-name="uni014C" unicode="&#x014C;" d="M541 772L251 772L251 877L541 877L541 772M654 91Q548-14 396-14Q244-14 138 91Q33 198 33 350Q33 503 138 608Q244 714 396 714Q548 714 654 608Q760 503 760 350Q760 197 654 91M235 185Q299 121 396 121Q493 121 557 185Q622 250 622 350Q622 450 557 515Q492 580 396 580Q300 580 235 515Q170 450 170 350Q170 250 235 185Z"  horiz-adv-x="792" vert-adv-y="1000"  />

      
      <glyph glyph-name="uni014D" unicode="&#x014D;" d="M442 572L152 572L152 677L442 677L442 572M485 62Q409-14 297-14Q185-14 109 62Q33 138 33 250Q33 361 109 437Q186 514 297 514Q408 514 485 437Q562 360 562 250Q562 139 485 62M200 151Q239 112 297 112Q355 112 394 151Q433 190 433 250Q433 310 394 349Q355 388 297 388Q239 388 200 349Q162 309 162 250Q162 191 200 151Z"  horiz-adv-x="594" vert-adv-y="1000"  />

      
      <glyph glyph-name="uni0150" unicode="&#x0150;" d="M221 763L299 901L433 901L349 763L221 763M394 763L482 901L616 901L522 763L394 763M654 91Q760 197 760 350Q760 503 654 608Q548 714 396 714Q244 714 138 608Q33 503 33 350Q33 198 138 91Q244-14 396-14Q548-14 654 91M235 185Q170 250 170 350Q170 450 235 515Q300 580 396 580Q492 580 557 515Q622 450 622 350Q622 250 557 185Q493 121 396 121Q299 121 235 185Z"  horiz-adv-x="792" vert-adv-y="1000"  />

      
      <glyph glyph-name="uni0151" unicode="&#x0151;" d="M122 563L200 701L334 701L250 563L122 563M295 563L383 701L517 701L423 563L295 563M485 62Q562 139 562 250Q562 360 485 437Q408 514 297 514Q186 514 109 437Q33 361 33 250Q33 138 109 62Q185-14 297-14Q409-14 485 62M200 151Q162 191 162 250Q162 309 200 349Q239 388 297 388Q355 388 394 349Q433 310 433 250Q433 190 394 151Q355 112 297 112Q239 112 200 151Z"  horiz-adv-x="594" vert-adv-y="1000"  />

      
      <glyph glyph-name="uni0152" unicode="&#x0152;" d="M623 289L623 132L883 132L883 0L486 0Q436-14 386-14Q234-14 134 91Q33 197 33 350Q33 503 134 609Q234 714 386 714Q436 714 486 700L878 700L878 568L623 568L623 419L856 419L856 289L623 289M486 136L486 565Q441 580 386 580Q292 580 230 515Q170 450 170 350Q170 250 230 185Q291 121 386 121Q446 121 486 136Z"  horiz-adv-x="916" vert-adv-y="1000"  />

      
      <glyph glyph-name="uni0153" unicode="&#x0153;" d="M945 197L568 197Q582 151 618.50 127Q655 103 705 103Q783 103 821 153L925 93Q851-14 707-14Q563-14 497 98Q428-14 293-14Q182-14 107 62Q33 139 33 250Q33 361 107 438Q182 514 293 514Q358 514 411.50 484.50Q465 455 496 403Q560 514 703 514Q812 514 881 438Q950 361 950 250Q950 229 945 197M566 298L821 298Q810 347 777 372.50Q744 398 698 398Q647 398 612.50 371.50Q578 345 566 298M297 112Q355 112 394 151Q433 190 433 250Q433 310 394 349Q355 388 297 388Q238 388 200 349.50Q162 311 162 250Q162 189 200 150.50Q238 112 297 112Z"  horiz-adv-x="981" vert-adv-y="1000"  />

      
      <glyph glyph-name="uni0154" unicode="&#x0154;" d="M295 900L450 900L339 763L215 763L295 900M598 0L449 0L308 243L203 243L203 0L65 0L65 700L345 700Q442 700 510 632Q578 564 578 468Q578 403 541 347.50Q504 292 443 264L598 0M345 571L203 571L203 364L345 364Q384 364 412 394.50Q440 425 440 468Q440 511 412 541Q384 571 345 571Z"  horiz-adv-x="614" vert-adv-y="1000"  />

      
      <glyph glyph-name="uni0155" unicode="&#x0155;" d="M193 700L348 700L237 563L113 563L193 700M188 500L188 414Q205 461 246 485.50Q287 510 340 510L340 366Q281 374 234 342Q188 311 188 239L188 0L59 0L59 500L188 500Z"  horiz-adv-x="356" vert-adv-y="1000"  />

      
      <glyph glyph-name="uni0156" unicode="&#x0156;" d="M443 264L598 0L449 0L308 243L203 243L203 0L65 0L65 700L345 700Q442 700 510 632Q578 564 578 468Q578 403 541 347.50Q504 292 443 264M345 571L203 571L203 364L345 364Q384 364 412 394.50Q440 425 440 468Q440 511 412 541Q384 571 345 571M360-263L258-263L268-63L390-63L360-263Z"  horiz-adv-x="614" vert-adv-y="1000"  />

      
      <glyph glyph-name="uni0157" unicode="&#x0157;" d="M188 500L188 414Q205 461 246 485.50Q287 510 340 510L340 366Q281 374 234 342Q188 311 188 239L188 0L59 0L59 500L188 500M157-263L55-263L65-63L187-63L157-263Z"  horiz-adv-x="356" vert-adv-y="1000"  />

      
      <glyph glyph-name="uni0158" unicode="&#x0158;" d="M357 755L226 755L120 900L248 900L292 835L335 900L463 900L357 755M598 0L449 0L308 243L203 243L203 0L65 0L65 700L345 700Q442 700 510 632Q578 564 578 468Q578 403 541 347.50Q504 292 443 264L598 0M345 571L203 571L203 364L345 364Q384 364 412 394.50Q440 425 440 468Q440 511 412 541Q384 571 345 571Z"  horiz-adv-x="614" vert-adv-y="1000"  />

      
      <glyph glyph-name="uni0159" unicode="&#x0159;" d="M255 555L124 555L18 700L146 700L190 635L233 700L361 700L255 555M188 500L188 414Q205 461 246 485.50Q287 510 340 510L340 366Q281 374 234 342Q188 311 188 239L188 0L59 0L59 500L188 500Z"  horiz-adv-x="356" vert-adv-y="1000"  />

      
      <glyph glyph-name="uni015A" unicode="&#x015A;" d="M213 771L293 908L448 908L337 771L213 771M304-14Q416-14 487 43Q558 100 558 197Q558 254 532 296Q515 328 466 358Q452 368 422 379Q390 392 377 396L329 412Q253 435 223 456Q196 477 196 510Q196 541 221 560.50Q246 580 288 580Q380 580 422 490L538 557Q502 632 437 673Q372 714 288 714Q192 714 125 657Q58 602 58 506Q58 411 124 362Q177 325 269 297Q354 273 387 252Q420 232 420 195Q420 161 392 141Q364 121 308 121Q188 121 147 228L29 159Q59 78 130 32Q201-14 304-14Z"  horiz-adv-x="583" vert-adv-y="1000"  />

      
      <glyph glyph-name="uni015B" unicode="&#x015B;" d="M231 708L386 708L275 571L151 571L231 708M178 358Q178 326 269 303Q301 296 327 286.50Q353 277 379.50 259.50Q406 242 421 213Q436 184 436 146Q436 69 378 27Q320-14 235-14Q81-14 25 105L137 168Q160 103 235 103Q304 103 304 146Q304 178 213 201Q179 210 155 219Q131 228 103 245.50Q75 263 60.50 290.50Q46 318 46 355Q46 429 100 471Q155 514 236 514Q297 514 347 486.50Q397 459 426 408L316 348Q292 399 236 399Q211 399 194.50 387.50Q178 376 178 358Z"  horiz-adv-x="465" vert-adv-y="1000"  />

      
      <glyph glyph-name="uni015E" unicode="&#x015E;" d="M558 197Q558 113 504.50 58Q451 3 358-10L358-46Q389-53 408.50-73Q428-93 428-124Q428-229 208-216L208-125Q316-132 316-105Q316-84 253-80L253-11Q170 0 112 44.50Q54 89 29 159L147 228Q188 121 308 121Q364 121 392 141Q420 161 420 195Q420 232 387 252Q354 273 269 297Q177 325 124 362Q58 411 58 506Q58 602 125 657Q192 714 288 714Q372 714 437 673Q502 632 538 557L422 490Q380 580 288 580Q246 580 221 560.50Q196 541 196 510Q196 477 223 456Q253 435 329 412L377 396Q390 392 422 379Q452 368 466 358Q515 328 532 296Q558 254 558 197Z"  horiz-adv-x="583" vert-adv-y="1000"  />

      
      <glyph glyph-name="uni015F" unicode="&#x015F;" d="M436 146Q436 85 398.50 45Q361 5 297-8L297-46Q328-53 347.50-73Q367-93 367-124Q367-229 147-216L147-125Q255-132 255-105Q255-84 192-80L192-11Q72 4 25 105L137 168Q160 103 235 103Q304 103 304 146Q304 178 213 201Q179 210 155 219Q131 228 103 245.50Q75 263 60.50 290.50Q46 318 46 355Q46 429 100 471Q155 514 236 514Q297 514 347 486.50Q397 459 426 408L316 348Q292 399 236 399Q211 399 194.50 387.50Q178 376 178 358Q178 326 269 303Q301 296 327 286.50Q353 277 379.50 259.50Q406 242 421 213Q436 184 436 146Z"  horiz-adv-x="465" vert-adv-y="1000"  />

      
      <glyph glyph-name="uni0160" unicode="&#x0160;" d="M355 763L224 763L118 908L246 908L290 843L333 908L461 908L355 763M329 412L377 396Q390 392 422 379Q452 368 466 358Q515 328 532 296Q558 254 558 197Q558 100 487 43Q416-14 304-14Q201-14 130 32Q59 78 29 159L147 228Q188 121 308 121Q364 121 392 141Q420 161 420 195Q420 232 387 252Q354 273 269 297Q177 325 124 362Q58 411 58 506Q58 602 125 657Q192 714 288 714Q372 714 437 673Q502 632 538 557L422 490Q380 580 288 580Q246 580 221 560.50Q196 541 196 510Q196 477 223 456Q253 435 329 412Z"  horiz-adv-x="583" vert-adv-y="1000"  />

      
      <glyph glyph-name="uni0161" unicode="&#x0161;" d="M293 563L162 563L56 708L184 708L228 643L271 708L399 708L293 563M178 358Q178 326 269 303Q301 296 327 286.50Q353 277 379.50 259.50Q406 242 421 213Q436 184 436 146Q436 69 378 27Q320-14 235-14Q81-14 25 105L137 168Q160 103 235 103Q304 103 304 146Q304 178 213 201Q179 210 155 219Q131 228 103 245.50Q75 263 60.50 290.50Q46 318 46 355Q46 429 100 471Q155 514 236 514Q297 514 347 486.50Q397 459 426 408L316 348Q292 399 236 399Q211 399 194.50 387.50Q178 376 178 358Z"  horiz-adv-x="465" vert-adv-y="1000"  />

      
      <glyph glyph-name="uni0162" unicode="&#x0162;" d="M13 700L528 700L528 568L339 568L339 0L201 0L201 568L13 568L13 700M307-263L205-263L215-63L337-63L307-263Z"  horiz-adv-x="540" vert-adv-y="1000"  />

      
      <glyph glyph-name="uni0163" unicode="&#x0163;" d="M345 500L345 376L232 376L232 168Q232 142 245 130Q258 118 283 116.50Q308 115 345 117L345 0Q214-15 158.50 24.50Q103 64 103 168L103 376L16 376L16 500L103 500L103 601L232 640L232 500L345 500M264-263L162-263L172-63L294-63L264-263Z"  horiz-adv-x="385" vert-adv-y="1000"  />

      
      <glyph glyph-name="uni0164" unicode="&#x0164;" d="M332 755L201 755L95 900L223 900L267 835L310 900L438 900L332 755M13 700L528 700L528 568L339 568L339 0L201 0L201 568L13 568L13 700Z"  horiz-adv-x="540" vert-adv-y="1000"  />

      
      <glyph glyph-name="uni0165" unicode="&#x0165;" d="M276 544L286 726L408 726L378 544L276 544M103 601L232 640L232 500L345 500L345 376L232 376L232 168Q232 142 245 130Q258 118 283 116.50Q308 115 345 117L345 0Q214-15 158.50 24.50Q103 64 103 168L103 376L16 376L16 500L103 500L103 601Z"  horiz-adv-x="406" vert-adv-y="1000"  />

      
      <glyph glyph-name="uni0166" unicode="&#x0166;" d="M528 700L528 568L339 568L339 405L458 405L458 281L339 281L339 0L201 0L201 281L83 281L83 405L201 405L201 568L13 568L13 700L528 700Z"  horiz-adv-x="540" vert-adv-y="1000"  />

      
      <glyph glyph-name="uni0167" unicode="&#x0167;" d="M345 500L345 376L232 376L232 303L312 303L312 199L232 199L232 168Q232 142 245 130Q258 118 283 116.50Q308 115 345 117L345 0Q214-15 158.50 24.50Q103 64 103 168L103 199L45 199L45 303L103 303L103 376L16 376L16 500L103 500L103 601L232 640L232 500L345 500Z"  horiz-adv-x="385" vert-adv-y="1000"  />

      
      <glyph glyph-name="uni016A" unicode="&#x016A;" d="M471 764L181 764L181 869L471 869L471 764M326-14Q209-14 134 52Q59 118 59 229L59 700L196 700L196 240Q196 184 228.50 152.50Q261 121 326 121Q391 121 423.50 152.50Q456 184 456 240L456 700L594 700L594 229Q594 118 519 52Q444-14 326-14Z"  horiz-adv-x="653" vert-adv-y="1000"  />

      
      <glyph glyph-name="uni016B" unicode="&#x016B;" d="M139 669L429 669L429 564L139 564L139 669M389 230L389 500L518 500L518 0L389 0L389 56Q343-14 240-14Q158-14 104 41Q51 97 51 193L51 500L180 500L180 209Q180 160 206.50 133Q233 106 279 106Q330 106 359.50 137.50Q389 169 389 230Z"  horiz-adv-x="577" vert-adv-y="1000"  />

      
      <glyph glyph-name="uni016E" unicode="&#x016E;" d="M326 709Q271 709 235.50 743Q200 777 200 828Q200 879 235.50 912.50Q271 946 326 946Q382 946 417 912.50Q452 879 452 828Q452 776 417 742.50Q382 709 326 709M326 790Q366 790 366 828Q366 865 326 865Q308 865 297.50 854.50Q287 844 287 828Q287 811 297.50 800.50Q308 790 326 790M326-14Q209-14 134 52Q59 118 59 229L59 700L196 700L196 240Q196 184 228.50 152.50Q261 121 326 121Q391 121 423.50 152.50Q456 184 456 240L456 700L594 700L594 229Q594 118 519 52Q444-14 326-14Z"  horiz-adv-x="653" vert-adv-y="1000"  />

      
      <glyph glyph-name="uni016F" unicode="&#x016F;" d="M284 539Q229 539 193.50 573Q158 607 158 658Q158 709 193.50 742.50Q229 776 284 776Q340 776 375 742.50Q410 709 410 658Q410 606 375 572.50Q340 539 284 539M284 695Q266 695 255.50 684.50Q245 674 245 658Q245 641 255.50 630.50Q266 620 284 620Q324 620 324 658Q324 695 284 695M389 230L389 500L518 500L518 0L389 0L389 56Q343-14 240-14Q158-14 104 41Q51 97 51 193L51 500L180 500L180 209Q180 160 206.50 133Q233 106 279 106Q330 106 359.50 137.50Q389 169 389 230Z"  horiz-adv-x="577" vert-adv-y="1000"  />

      
      <glyph glyph-name="uni0170" unicode="&#x0170;" d="M151 755L229 893L363 893L279 755L151 755M324 755L412 893L546 893L452 755L324 755M326-14Q444-14 519 52Q594 118 594 229L594 700L456 700L456 240Q456 184 423.50 152.50Q391 121 326 121Q261 121 228.50 152.50Q196 184 196 240L196 700L59 700L59 229Q59 118 134 52Q209-14 326-14Z"  horiz-adv-x="653" vert-adv-y="1000"  />

      
      <glyph glyph-name="uni0171" unicode="&#x0171;" d="M187 693L321 693L237 555L109 555L187 693M504 693L410 555L282 555L370 693L504 693M389 230L389 500L518 500L518 0L389 0L389 56Q343-14 240-14Q158-14 104 41Q51 97 51 193L51 500L180 500L180 209Q180 160 206.50 133Q233 106 279 106Q330 106 359.50 137.50Q389 169 389 230Z"  horiz-adv-x="577" vert-adv-y="1000"  />

      
      <glyph glyph-name="uni0172" unicode="&#x0172;" d="M456 240L456 700L594 700L594 229Q594 108 504 40Q452-9 432.50-37.50Q413-66 412-95Q411-120 437-122Q447-123 464-117L464-198Q428-214 384-214Q340-214 314-191Q288-168 288-126Q288-76 342-14L326-14Q209-14 134 52Q59 118 59 229L59 700L196 700L196 240Q196 184 228.50 152.50Q261 121 326 121Q391 121 423.50 152.50Q456 184 456 240Z"  horiz-adv-x="653" vert-adv-y="1000"  />

      
      <glyph glyph-name="uni0173" unicode="&#x0173;" d="M389 500L518 500L518 0Q465-56 465-95Q465-122 490-122Q501-123 518-117L518-198Q482-214 437-214Q394-214 368-191Q342-168 342-126Q342-73 406 0L389 0L389 56Q343-14 240-14Q158-14 104 41Q51 97 51 193L51 500L180 500L180 209Q180 160 206.50 133Q233 106 279 106Q330 106 359.50 137.50Q389 169 389 230L389 500Z"  horiz-adv-x="577" vert-adv-y="1000"  />

      
      <glyph glyph-name="uni0174" unicode="&#x0174;" d="M569 755L526 820L482 755L354 755L460 900L591 900L697 755L569 755M705 181L839 700L984 700L788 0L631 0L499 462L368 0L211 0L15 700L160 700L294 181L440 700L558 700L705 181Z"  horiz-adv-x="999" vert-adv-y="1000"  />

      
      <glyph glyph-name="uni0175" unicode="&#x0175;" d="M425 555L382 620L338 555L210 555L316 700L447 700L553 555L425 555M537 192L622 500L759 500L600 0L477 0L385 303L293 0L170 0L11 500L148 500L233 193L324 500L446 500L537 192Z"  horiz-adv-x="770" vert-adv-y="1000"  />

      
      <glyph glyph-name="uni0176" unicode="&#x0176;" d="M350 755L307 820L263 755L135 755L241 900L372 900L478 755L350 755M463 700L619 700L379 273L379 0L242 0L242 273L3 700L159 700L311 408L463 700Z"  horiz-adv-x="621" vert-adv-y="1000"  />

      
      <glyph glyph-name="uni0177" unicode="&#x0177;" d="M303 555L260 620L216 555L88 555L194 700L325 700L431 555L303 555M274 164L385 500L523 500L341 0Q302-108 237.50-156.50Q173-205 77-200L77-80Q128-81 159-58Q190-35 208 16L3 500L144 500L274 164Z"  horiz-adv-x="525" vert-adv-y="1000"  />

      
      <glyph glyph-name="uni0178" unicode="&#x0178;" d="M262 768Q243 749 215 749Q187 749 167 768Q147 788 147 816Q147 844 167 864Q187 884 215 884Q243 884 262 864Q282 844 282 816Q282 788 262 768M452 768Q433 749 405 749Q377 749 357 768Q337 788 337 816Q337 844 357 864Q377 884 405 884Q433 884 452 864Q472 844 472 816Q472 788 452 768M463 700L619 700L379 273L379 0L242 0L242 273L3 700L159 700L311 408L463 700Z"  horiz-adv-x="621" vert-adv-y="1000"  />

      
      <glyph glyph-name="uni0179" unicode="&#x0179;" d="M273 900L428 900L317 763L193 763L273 900M503 591L212 132L509 132L509 0L36 0L36 110L327 568L43 568L43 700L503 700L503 591Z"  horiz-adv-x="535" vert-adv-y="1000"  />

      
      <glyph glyph-name="uni017A" unicode="&#x017A;" d="M241 700L396 700L285 563L161 563L241 700M428 414L216 121L438 121L438 0L43 0L43 86L254 379L53 379L53 500L428 500L428 414Z"  horiz-adv-x="474" vert-adv-y="1000"  />

      
      <glyph glyph-name="uni017B" unicode="&#x017B;" d="M273 751Q241 751 218 774Q195 797 195 829Q195 861 218 883.50Q241 906 273 906Q304 906 327 883Q350 860 350 829Q350 797 327 774Q304 751 273 751M503 591L212 132L509 132L509 0L36 0L36 110L327 568L43 568L43 700L503 700L503 591Z"  horiz-adv-x="535" vert-adv-y="1000"  />

      
      <glyph glyph-name="uni017C" unicode="&#x017C;" d="M241 551Q209 551 186 574Q163 597 163 629Q163 661 186 683.50Q209 706 241 706Q272 706 295 683Q318 660 318 629Q318 597 295 574Q272 551 241 551M428 414L216 121L438 121L438 0L43 0L43 86L254 379L53 379L53 500L428 500L428 414Z"  horiz-adv-x="474" vert-adv-y="1000"  />

      
      <glyph glyph-name="uni017D" unicode="&#x017D;" d="M335 755L204 755L98 900L226 900L270 835L313 900L441 900L335 755M503 591L212 132L509 132L509 0L36 0L36 110L327 568L43 568L43 700L503 700L503 591Z"  horiz-adv-x="535" vert-adv-y="1000"  />

      
      <glyph glyph-name="uni017E" unicode="&#x017E;" d="M303 555L172 555L66 700L194 700L238 635L281 700L409 700L303 555M428 414L216 121L438 121L438 0L43 0L43 86L254 379L53 379L53 500L428 500L428 414Z"  horiz-adv-x="474" vert-adv-y="1000"  />

      
      <glyph glyph-name="uni0192" unicode="&#x0192;" d="M441 705L441 576Q410 594 375 579Q341 564 333 520L315 414L406 414L406 290L294 290L238-41Q220-144 156.50-185Q93-226 0-201L0-73Q33-91 67-76Q100-62 108-17L160 290L76 290L76 414L182 414L204 545Q222 648 285.50 689Q349 730 441 705Z"  horiz-adv-x="441" vert-adv-y="1000"  />

      
      <glyph glyph-name="uni0218" unicode="&#x0218;" d="M304-14Q201-14 130 32Q59 78 29 159L147 228Q188 121 308 121Q364 121 392 141Q420 161 420 195Q420 232 387 252Q354 273 269 297Q177 325 124 362Q58 411 58 506Q58 602 125 657Q192 714 288 714Q372 714 437 673Q502 632 538 557L422 490Q380 580 288 580Q246 580 221 560.50Q196 541 196 510Q196 477 223 456Q253 435 329 412L377 396Q390 392 422 379Q452 368 466 358Q515 328 532 296Q558 254 558 197Q558 100 487 43Q416-14 304-14M341-263L239-263L249-63L371-63L341-263Z"  horiz-adv-x="583" vert-adv-y="1000"  />

      
      <glyph glyph-name="uni0219" unicode="&#x0219;" d="M178 358Q178 326 269 303Q301 296 327 286.50Q353 277 379.50 259.50Q406 242 421 213Q436 184 436 146Q436 69 378 27Q320-14 235-14Q81-14 25 105L137 168Q160 103 235 103Q304 103 304 146Q304 178 213 201Q179 210 155 219Q131 228 103 245.50Q75 263 60.50 290.50Q46 318 46 355Q46 429 100 471Q155 514 236 514Q297 514 347 486.50Q397 459 426 408L316 348Q292 399 236 399Q211 399 194.50 387.50Q178 376 178 358M280-263L178-263L188-63L310-63L280-263Z"  horiz-adv-x="465" vert-adv-y="1000"  />

      
      <glyph glyph-name="uni021A" unicode="&#x021A;" d="M13 700L528 700L528 568L339 568L339 0L201 0L201 568L13 568L13 700M307-263L205-263L215-63L337-63L307-263Z"  horiz-adv-x="540" vert-adv-y="1000"  />

      
      <glyph glyph-name="uni021B" unicode="&#x021B;" d="M345 500L345 376L232 376L232 168Q232 142 245 130Q258 118 283 116.50Q308 115 345 117L345 0Q214-15 158.50 24.50Q103 64 103 168L103 376L16 376L16 500L103 500L103 601L232 640L232 500L345 500M264-263L162-263L172-63L294-63L264-263Z"  horiz-adv-x="385" vert-adv-y="1000"  />

      
      <glyph glyph-name="uni02C6" unicode="&#x02C6;" d="M257 700L363 555L235 555L192 620L148 555L20 555L126 700L257 700Z"  horiz-adv-x="383" vert-adv-y="1000"  />

      
      <glyph glyph-name="uni02C7" unicode="&#x02C7;" d="M192 635L235 700L363 700L257 555L126 555L20 700L148 700L192 635Z"  horiz-adv-x="383" vert-adv-y="1000"  />

      
      </font>
</defs>
</svg>
