<?xml version="1.0" standalone="no"?>
  <!DOCTYPE svg PUBLIC "-//W3C//DTD SVG 1.1//EN" "http://www.w3.org/Graphics/SVG/1.1/DTD/svg11.dtd" >
  <svg>
  <metadata>
  Created by font-carrier
  </metadata>
  <defs>
  <font id="Gilroy-Extrabold" horiz-adv-x="1164" vert-adv-y="1164" >
    <font-face
      
      font-family="Gilroy"
      
      font-weight="400"
      
      font-stretch="normal"
      
      units-per-em="1000"
      
      ascent="773"
      
      descent="-227"
      
    />
      <missing-glyph />

      

      
      <glyph glyph-name="uni21" unicode="&#x21;" d="M200 250L80 250L50 500L50 700L230 700L230 500L200 250M235 81Q235 81 235 61.50Q235 42 207 14Q179-14 140-14Q101-14 73 14Q45 42 45 81Q45 120 73 148Q101 176 140 176Q179 176 207 148Q235 120 235 81Z"  horiz-adv-x="280" vert-adv-y="1000"  />

      
      <glyph glyph-name="uni22" unicode="&#x22;" d="M160 460L60 460L40 700L180 700L160 460M340 460L240 460L220 700L360 700L340 460Z"  horiz-adv-x="400" vert-adv-y="1000"  />

      
      <glyph glyph-name="uni23" unicode="&#x23;" d="M601 500L583 390L478 390L464 310L570 310L553 200L446 200L421 50L307 50L332 200L240 200L215 50L101 50L126 200L20 200L38 310L144 310L158 390L51 390L69 500L176 500L201 650L315 650L290 500L382 500L407 650L521 650L496 500L601 500M258 310L350 310L364 390L272 390L258 310Z"  horiz-adv-x="621" vert-adv-y="1000"  />

      
      <glyph glyph-name="uni24" unicode="&#x24;" d="M528 201Q528 112 472.50 55.50Q417-1 323-12L323-100L253-100L253-13Q168-7 107.50 35Q47 77 20 149L158 229Q189 156 253 145L253 283L240 288Q178 312 136 341Q49 401 49 506Q49 598 108 651Q167 705 253 713L253 800L323 800L323 711Q465 693 520 566L385 487Q365 537 323 552L323 417L356 403Q384 392 392 388Q417 375 425 371Q448 360 459 350Q501 312 509 290Q528 246 528 201M209 505Q209 476 253 450L253 555Q209 544 209 505M323 254L323 147Q368 159 368 199Q368 232 323 254Z"  horiz-adv-x="548" vert-adv-y="1000"  />

      
      <glyph glyph-name="uni25" unicode="&#x25;" d="M387 544Q387 473 337 423Q288 374 214 374Q139 374 90 423Q40 473 40 544Q40 614 90 664Q140 714 214 714Q288 714 337 665Q387 617 387 544M189 71L123 110L575 610L641 572L189 71M267 544Q267 568 252 583.50Q237 599 213 599Q177 599 164 564.50Q151 530 175 505Q197 478 233.50 493.50Q270 509 267 544M694 37Q645-12 571-12Q496-12 447 37Q397 87 397 158Q397 228 447 278Q497 328 571 328Q644 328 694 278Q744 228 744 158Q744 87 694 37M624 158Q624 182 609 197.50Q594 213 570 213Q534 213 521 178.50Q508 144 532 119Q554 92 590.50 107.50Q627 123 624 158Z"  horiz-adv-x="784" vert-adv-y="1000"  />

      
      <glyph glyph-name="uni26" unicode="&#x26;" d="M570 144L658 46L533-26L471 41Q392-14 290-14Q180-14 110 43Q40 100 40 197Q40 258 69.50 311Q99 364 152 398Q123 448 123 509Q123 597 185 656Q247 714 348 714Q427 714 486.50 674.50Q546 635 578 561L441 482Q413 558 350 558Q320 558 301.50 541.50Q283 525 283 499Q283 483 291 462Q303 437 338 400L467 257Q488 305 500 367L634 291Q611 207 570 144M303 132Q342 132 373 148L245 286L239 292Q202 262 202 214Q202 176 227.50 154Q253 132 303 132Z"  horiz-adv-x="678" vert-adv-y="1000"  />

      
      <glyph glyph-name="uni27" unicode="&#x27;" d="M160 460L60 460L40 700L180 700L160 460Z"  horiz-adv-x="220" vert-adv-y="1000"  />

      
      <glyph glyph-name="uni28" unicode="&#x28;" d="M310-100L160-100Q50 120 50 350Q50 580 160 800L310 800Q200 580 200 350Q200 120 310-100Z"  horiz-adv-x="320" vert-adv-y="1000"  />

      
      <glyph glyph-name="uni29" unicode="&#x29;" d="M160-100L10-100Q120 120 120 350Q120 580 10 800L160 800Q270 580 270 350Q270 120 160-100Z"  horiz-adv-x="320" vert-adv-y="1000"  />

      
      <glyph glyph-name="uni2a" unicode="&#x2a;" d="M260 599L350 608L350 520L260 529L315 460L242 414L200 499L158 414L85 460L140 529L50 520L50 608L140 599L85 668L158 714L200 629L242 714L315 668L260 599Z"  horiz-adv-x="400" vert-adv-y="1000"  />

      
      <glyph glyph-name="uni2b" unicode="&#x2b;" d="M350 420L510 420L510 280L350 280L350 120L210 120L210 280L50 280L50 420L210 420L210 580L350 580L350 420Z"  horiz-adv-x="560" vert-adv-y="1000"  />

      
      <glyph glyph-name="uni2c" unicode="&#x2c;" d="M85 155L245 155L165-140L45-140L85 155Z"  horiz-adv-x="290" vert-adv-y="1000"  />

      
      <glyph glyph-name="uni2d" unicode="&#x2d;" d="M440 227L60 227L60 371L440 371L440 227Z"  horiz-adv-x="500" vert-adv-y="1000"  />

      
      <glyph glyph-name="uni2e" unicode="&#x2e;" d="M235 81Q235 81 235 61.50Q235 42 207 14Q179-14 140-14Q101-14 73 14Q45 42 45 81Q45 120 73 148Q101 176 140 176Q179 176 207 148Q235 120 235 81Z"  horiz-adv-x="280" vert-adv-y="1000"  />

      
      <glyph glyph-name="uni2f" unicode="&#x2f;" d="M490 800L90-100L30-100L430 800L490 800Z"  horiz-adv-x="520" vert-adv-y="1000"  />

      
      <glyph glyph-name="uni30" unicode="&#x30;" d="M524 85Q449-14 315-14Q182-14 105 85Q30 185 30 350Q30 515 105 614Q181 714 315 714Q449 714 524 614Q600 516 600 350Q600 185 524 85M315 558Q315 558 252.50 558Q190 558 190 350Q190 142 315 142Q440 142 440 350Q440 558 315 558Z"  horiz-adv-x="630" vert-adv-y="1000"  />

      
      <glyph glyph-name="uni31" unicode="&#x31;" d="M10 634L193 700L333 700L333 0L173 0L173 531L49 497L10 634Z"  horiz-adv-x="403" vert-adv-y="1000"  />

      
      <glyph glyph-name="uni32" unicode="&#x32;" d="M498 0L22 0L22 116L257 360Q328 434 328 484Q328 517 308 537.50Q288 558 253 558Q183 558 150 482L15 561Q47 634 110 674Q173 714 251 714Q350 714 418 653Q488 593 488 491Q488 380 379 271L263 154L498 154L498 0Z"  horiz-adv-x="533" vert-adv-y="1000"  />

      
      <glyph glyph-name="uni33" unicode="&#x33;" d="M492 570L371 416Q439 392 479.50 340.50Q520 289 520 220Q520 110 446 48Q372-14 265-14Q180-14 115 24.50Q50 63 20 136L158 216Q184 142 265 142Q324 138 349 179Q374 220 349 261Q324 302 265 298L232 298L171 389L298 550L42 550L42 700L492 700L492 570Z"  horiz-adv-x="550" vert-adv-y="1000"  />

      
      <glyph glyph-name="uni34" unicode="&#x34;" d="M500 260L570 260L570 112L500 112L500 0L338 0L338 112L20 112L20 260L243 700L415 700L192 260L338 260L338 410L500 410L500 260Z"  horiz-adv-x="580" vert-adv-y="1000"  />

      
      <glyph glyph-name="uni35" unicode="&#x35;" d="M228 454L285 454Q388 454 456 392Q525 330 525 220Q525 110 451 48Q377-14 270-14Q181-14 115.50 24Q50 62 20 136L158 216Q184 142 270 142Q330 138 354.50 179Q379 220 355 261Q331 302 275 298L56 298L85 700L490 700L490 550L235 550L228 454Z"  horiz-adv-x="550" vert-adv-y="1000"  />

      
      <glyph glyph-name="uni36" unicode="&#x36;" d="M459 700L307 479Q409 472 475 403Q540 335 540 233Q540 124 467 55Q395-14 280-14Q164-14 92 55Q20 124 20 233Q20 313 61 375L275 700L459 700M180 233Q180 233 180 210.50Q180 188 209 162Q238 136 280 136Q322 136 351 162Q380 189 380 233Q380 277 351 303Q322 330 280 330Q238 330 209 304Q180 278 180 233Z"  horiz-adv-x="560" vert-adv-y="1000"  />

      
      <glyph glyph-name="uni37" unicode="&#x37;" d="M10 546L10 700L470 700L470 566L242 0L72 0L292 546L10 546Z"  horiz-adv-x="490" vert-adv-y="1000"  />

      
      <glyph glyph-name="uni38" unicode="&#x38;" d="M453 365Q544 307 544 197Q544 99 476 42.50Q408-14 287-14Q166-14 98 42.50Q30 99 30 197Q30 307 121 365Q54 417 54 506Q54 604 120 659Q185 714 287 714Q389 714 454 659Q520 604 520 506Q520 417 453 365M360 496Q360 496 360 511Q360 526 340 545Q320 564 287 564Q254 564 234 545Q214 526 214 496Q214 466 234 447Q254 428 287 428Q320 428 340 447Q360 466 360 496M217 158Q243 136 287 136Q331 136 357 158Q384 180 384 220Q384 258 357 281Q329 304 287 304Q245 304 217 281Q190 258 190 220Q190 180 217 158Z"  horiz-adv-x="574" vert-adv-y="1000"  />

      
      <glyph glyph-name="uni39" unicode="&#x39;" d="M540 467Q540 387 499 325L285 0L101 0L253 221Q149 229 84 297Q20 364 20 467Q20 576 92 645Q166 714 280 714Q396 714 468 645Q540 576 540 467M209 537Q180 511 180 467Q180 423 209 396Q238 370 280 370Q322 370 351 396Q380 422 380 467Q380 512 351 538Q322 564 280 564Q238 564 209 537Z"  horiz-adv-x="560" vert-adv-y="1000"  />

      
      <glyph glyph-name="uni3a" unicode="&#x3a;" d="M235 421Q235 421 235 401.50Q235 382 207 354Q179 326 140 326Q101 326 73 354Q45 382 45 421Q45 460 73 488Q101 516 140 516Q179 516 207 488Q235 460 235 421M235 81Q235 81 235 61.50Q235 42 207 14Q179-14 140-14Q101-14 73 14Q45 42 45 81Q45 120 73 148Q101 176 140 176Q179 176 207 148Q235 120 235 81Z"  horiz-adv-x="280" vert-adv-y="1000"  />

      
      <glyph glyph-name="uni3b" unicode="&#x3b;" d="M245 421Q245 421 245 401.50Q245 382 217 354Q189 326 150 326Q111 326 83 354Q55 382 55 421Q55 460 83 488Q111 516 150 516Q189 516 217 488Q245 460 245 421M85 155L245 155L165-140L45-140L85 155Z"  horiz-adv-x="290" vert-adv-y="1000"  />

      
      <glyph glyph-name="uni3c" unicode="&#x3c;" d="M40 415L490 610L490 456L210 350L490 244L490 90L40 285L40 415Z"  horiz-adv-x="530" vert-adv-y="1000"  />

      
      <glyph glyph-name="uni3d" unicode="&#x3d;" d="M480 385L40 385L40 525L480 525L480 385M480 175L40 175L40 315L480 315L480 175Z"  horiz-adv-x="520" vert-adv-y="1000"  />

      
      <glyph glyph-name="uni3e" unicode="&#x3e;" d="M40 456L40 610L490 415L490 285L40 90L40 244L320 350L40 456Z"  horiz-adv-x="530" vert-adv-y="1000"  />

      
      <glyph glyph-name="uni3f" unicode="&#x3f;" d="M350 250L190 250Q190 282 206.50 311.50Q223 341 246.50 363.50Q270 386 293.50 407Q317 428 333.50 452Q350 476 350 500Q350 558 276 558Q204 558 168 474L30 553Q63 628 130.50 671Q198 714 282 714Q374 714 442 660Q510 606 510 514Q510 473 493.50 437Q477 401 453.50 376Q430 351 406.50 330Q383 309 366.50 288.50Q350 268 350 250M365 81Q365 81 365 61.50Q365 42 337 14Q309-14 270-14Q231-14 203 14Q175 42 175 81Q175 120 203 148Q231 176 270 176Q309 176 337 148Q365 120 365 81Z"  horiz-adv-x="560" vert-adv-y="1000"  />

      
      <glyph glyph-name="uni40" unicode="&#x40;" d="M394 612Q500 612 582 560Q662 510 703 433.50Q744 357 744 270Q744 167 699 109Q654 51 580 51Q476 51 443 129Q407 85 347 85Q284 85 244.50 131.50Q205 178 205 250Q205 322 244.50 368.50Q284 415 347 415Q398 415 433 382L433 403L555 403L555 167Q555 101 611 101Q654 101 679 144.50Q704 188 704 270Q704 398 614 487Q525 576 394 576Q257 576 163 482Q70 388 70 250Q70 109 167 16Q265-76 412-76Q502-76 571-52L571-90Q504-112 412-112Q248-112 139-9Q30 93 30 250Q30 400 134 506Q239 612 394 612M381 193Q404 193 418 209Q432 225 432 250Q432 276 418 291.50Q404 307 381 307Q357 307 343 291.50Q329 276 329 250Q329 225 343 209Q357 193 381 193Z"  horiz-adv-x="774" vert-adv-y="1000"  />

      
      <glyph glyph-name="uni41" unicode="&#x41;" d="M680 0L505 0L470 110L210 110L175 0L0 0L238 700L442 700L680 0M340 517L258 260L422 260L340 517Z"  horiz-adv-x="680" vert-adv-y="1000"  />

      
      <glyph glyph-name="uni42" unicode="&#x42;" d="M494 363Q580 307 580 205Q580 114 515 57Q450 0 354 0L60 0L60 700L334 700Q427 700 491 644Q555 589 555 500Q555 415 494 363M334 550L220 550L220 426L334 426Q361 426 378 443.50Q395 461 395 488Q395 515 378 532.50Q361 550 334 550M220 150L354 150Q384 150 402 168.50Q420 187 420 217Q420 247 402 265.50Q384 284 354 284L220 284L220 150Z"  horiz-adv-x="600" vert-adv-y="1000"  />

      
      <glyph glyph-name="uni43" unicode="&#x43;" d="M394-14Q237-14 133 90Q30 194 30 350Q30 506 133 609Q236 714 394 714Q488 714 568 670.50Q648 627 694 552L556 472Q533 513 490.50 535.50Q448 558 394 558Q300 558 245 501Q190 445 190 350Q190 255 245 199Q300 142 394 142Q447 142 490.50 165Q534 188 556 228L694 148Q649 73 569 29.50Q489-14 394-14Z"  horiz-adv-x="719" vert-adv-y="1000"  />

      
      <glyph glyph-name="uni44" unicode="&#x44;" d="M60 700L340 700Q484 700 582 599Q680 498 680 350Q680 201 582 100Q485 0 340 0L60 0L60 700M220 154L340 154Q423 154 474 207Q526 260 526 350Q526 440 474 492Q423 546 340 546L220 546L220 154Z"  horiz-adv-x="710" vert-adv-y="1000"  />

      
      <glyph glyph-name="uni45" unicode="&#x45;" d="M220 278L220 154L500 154L500 0L60 0L60 700L495 700L495 546L220 546L220 430L470 430L470 278L220 278Z"  horiz-adv-x="530" vert-adv-y="1000"  />

      
      <glyph glyph-name="uni46" unicode="&#x46;" d="M485 700L485 546L220 546L220 411L480 411L480 257L220 257L220 0L60 0L60 700L485 700Z"  horiz-adv-x="520" vert-adv-y="1000"  />

      
      <glyph glyph-name="uni47" unicode="&#x47;" d="M402 390L753 390L753 330Q753 174 655 79Q558-14 408-14Q245-14 137 91Q30 196 30 349Q30 502 136 608Q242 714 397 714Q494 714 575.50 670.50Q657 627 703 554L567 476Q543 513 497.50 535.50Q452 558 396 558Q307 558 248 499Q190 441 190 348Q190 258 250 199Q310 142 410 142Q548 142 589 250L402 250L402 390Z"  horiz-adv-x="783" vert-adv-y="1000"  />

      
      <glyph glyph-name="uni48" unicode="&#x48;" d="M440 432L440 700L600 700L600 0L440 0L440 278L220 278L220 0L60 0L60 700L220 700L220 432L440 432Z"  horiz-adv-x="660" vert-adv-y="1000"  />

      
      <glyph glyph-name="uni49" unicode="&#x49;" d="M60 0L60 700L220 700L220 0L60 0Z"  horiz-adv-x="280" vert-adv-y="1000"  />

      
      <glyph glyph-name="uni4a" unicode="&#x4a;" d="M267-14Q100-14 30 122L169 202Q187 169 209 155.50Q231 142 268 142Q359 142 359 225L359 700L519 700L519 225Q519 114 448 49Q378-14 267-14Z"  horiz-adv-x="574" vert-adv-y="1000"  />

      
      <glyph glyph-name="uni4b" unicode="&#x4b;" d="M380 359L626 0L444 0L220 324L220 0L60 0L60 700L220 700L220 396L434 700L616 700L380 359Z"  horiz-adv-x="626" vert-adv-y="1000"  />

      
      <glyph glyph-name="uni4c" unicode="&#x4c;" d="M220 700L220 154L470 154L470 0L60 0L60 700L220 700Z"  horiz-adv-x="480" vert-adv-y="1000"  />

      
      <glyph glyph-name="uni4d" unicode="&#x4d;" d="M600 700L760 700L760 0L600 0L600 407L419 110L401 110L220 407L220 0L60 0L60 700L220 700L410 389L600 700Z"  horiz-adv-x="820" vert-adv-y="1000"  />

      
      <glyph glyph-name="uni4e" unicode="&#x4e;" d="M450 320L450 700L610 700L610 0L490 0L220 380L220 0L60 0L60 700L180 700L450 320Z"  horiz-adv-x="670" vert-adv-y="1000"  />

      
      <glyph glyph-name="uni4f" unicode="&#x4f;" d="M652 91Q546-14 394-14Q242-14 136 91Q30 196 30 350Q30 504 136 609Q242 714 394 714Q546 714 652 609Q758 504 758 350Q758 196 652 91M190 350Q190 350 190 304Q190 258 248 200Q306 142 394 142Q481 142 539 200Q598 259 598 350Q598 441 539 500Q481 558 394 558Q306 558 248 500Q190 442 190 350Z"  horiz-adv-x="788" vert-adv-y="1000"  />

      
      <glyph glyph-name="uni50" unicode="&#x50;" d="M60 700L325 700Q429 700 499 630Q570 559 570 460Q570 361 499 290Q429 220 325 220L220 220L220 0L60 0L60 700M220 370L325 370Q362 370 386 396Q410 422 410 460Q410 498 386 524Q362 550 325 550L220 550L220 370Z"  horiz-adv-x="590" vert-adv-y="1000"  />

      
      <glyph glyph-name="uni51" unicode="&#x51;" d="M758 350Q758 221 678 121L748 47L633-55L558 24Q479-14 394-14Q242-14 136 91Q30 196 30 350Q30 504 136 609Q242 714 394 714Q546 714 652 609Q758 504 758 350M394 142Q413 142 443 147L342 254L457 356L569 237Q598 290 598 350Q598 441 539 500Q481 558 394 558Q306 558 248 500Q190 442 190 350Q190 258 248 200Q306 142 394 142Z"  horiz-adv-x="793" vert-adv-y="1000"  />

      
      <glyph glyph-name="uni52" unicode="&#x52;" d="M600 0L428 0L296 230L220 230L220 0L60 0L60 700L340 700Q440 700 510 630Q580 560 580 460Q580 397 544.50 342Q509 287 451 257L600 0M340 550L220 550L220 370L340 370Q373 370 396.50 396Q420 422 420 460Q420 498 396.50 524Q373 550 340 550Z"  horiz-adv-x="615" vert-adv-y="1000"  />

      
      <glyph glyph-name="uni53" unicode="&#x53;" d="M305-14Q200-14 128 31.50Q56 77 25 159L163 239Q205 142 310 142Q405 142 405 199Q405 231 374 247Q342 266 260 288Q176 311 118 354Q54 406 54 501Q54 598 123 656Q193 714 289 714Q375 714 441 673.50Q507 633 545 556L410 477Q372 558 289 558Q254 558 234 543Q214 528 214 505Q214 480 238 460Q264 440 340 418L405 397Q430 389 463 370Q499 352 517 331Q565 279 565 201Q565 102 493 43Q421-14 305-14Z"  horiz-adv-x="585" vert-adv-y="1000"  />

      
      <glyph glyph-name="uni54" unicode="&#x54;" d="M10 700L530 700L530 546L350 546L350 0L190 0L190 546L10 546L10 700Z"  horiz-adv-x="540" vert-adv-y="1000"  />

      
      <glyph glyph-name="uni55" unicode="&#x55;" d="M55 226L55 700L215 700L215 240Q215 142 325 142Q435 142 435 240L435 700L595 700L595 226Q595 115 519 51Q442-14 325-14Q208-14 131 51Q55 115 55 226Z"  horiz-adv-x="650" vert-adv-y="1000"  />

      
      <glyph glyph-name="uni56" unicode="&#x56;" d="M432 0L228 0L0 700L175 700L330 185L485 700L660 700L432 0Z"  horiz-adv-x="660" vert-adv-y="1000"  />

      
      <glyph glyph-name="uni57" unicode="&#x57;" d="M385 0L203 0L10 700L178 700L299 210L434 700L564 700L699 210L820 700L988 700L795 0L613 0L499 413L385 0Z"  horiz-adv-x="998" vert-adv-y="1000"  />

      
      <glyph glyph-name="uni58" unicode="&#x58;" d="M401 359L610 0L428 0L310 202L192 0L10 0L219 359L20 700L202 700L310 515L418 700L600 700L401 359Z"  horiz-adv-x="620" vert-adv-y="1000"  />

      
      <glyph glyph-name="uni59" unicode="&#x59;" d="M448 700L630 700L395 269L395 0L235 0L235 269L0 700L182 700L315 430L448 700Z"  horiz-adv-x="630" vert-adv-y="1000"  />

      
      <glyph glyph-name="uni5a" unicode="&#x5a;" d="M510 576L242 154L515 154L515 0L35 0L35 124L303 546L40 546L40 700L510 700L510 576Z"  horiz-adv-x="540" vert-adv-y="1000"  />

      
      <glyph glyph-name="uni5b" unicode="&#x5b;" d="M300 800L300 656L200 656L200 44L300 44L300-100L50-100L50 800L300 800Z"  horiz-adv-x="320" vert-adv-y="1000"  />

      
      <glyph glyph-name="uni5c" unicode="&#x5c;" d="M490-100L430-100L30 800L90 800L490-100Z"  horiz-adv-x="520" vert-adv-y="1000"  />

      
      <glyph glyph-name="uni5d" unicode="&#x5d;" d="M20 800L270 800L270-100L20-100L20 44L120 44L120 656L20 656L20 800Z"  horiz-adv-x="320" vert-adv-y="1000"  />

      
      <glyph glyph-name="uni5e" unicode="&#x5e;" d="M236 700L344 700L540 360L380 360L290 527L200 360L40 360L236 700Z"  horiz-adv-x="580" vert-adv-y="1000"  />

      
      <glyph glyph-name="uni5f" unicode="&#x5f;" d="M490-181L30-181L30-37L490-37L490-181Z"  horiz-adv-x="520" vert-adv-y="1000"  />

      
      <glyph glyph-name="uni60" unicode="&#x60;" d="M280 560L136 560L20 700L200 700L280 560Z"  horiz-adv-x="300" vert-adv-y="1000"  />

      
      <glyph glyph-name="uni61" unicode="&#x61;" d="M418 453L418 500L568 500L568 0L418 0L418 47Q366-14 269-14Q170-14 100 62Q30 138 30 250Q30 361 100 437Q171 514 269 514Q366 514 418 453M180 250Q180 250 180 222Q180 194 213 161Q246 128 299 128Q352 128 385 161Q418 194 418 250Q418 306 385 339Q352 372 299 372Q246 372 213 339Q180 306 180 250Z"  horiz-adv-x="623" vert-adv-y="1000"  />

      
      <glyph glyph-name="uni62" unicode="&#x62;" d="M354 514Q452 514 523 437Q593 361 593 250Q593 138 523 62Q453-14 354-14Q257-14 205 47L205 0L55 0L55 700L205 700L205 453Q257 514 354 514M238 161Q272 128 324 128Q376 128 409 161Q443 194 443 250Q443 306 409 339Q376 372 324 372Q272 372 238 339Q205 306 205 250Q205 194 238 161Z"  horiz-adv-x="623" vert-adv-y="1000"  />

      
      <glyph glyph-name="uni63" unicode="&#x63;" d="M295-14Q181-14 105 62Q30 138 30 250Q30 362 105 438Q181 514 295 514Q366 514 427 479Q488 444 521 386L390 310Q363 366 293 366Q244 366 212 333.50Q180 301 180 250Q180 199 212 166.50Q244 134 293 134Q364 134 390 190L521 115Q488 55 427.50 20.50Q367-14 295-14Z"  horiz-adv-x="531" vert-adv-y="1000"  />

      
      <glyph glyph-name="uni64" unicode="&#x64;" d="M418 453L418 700L568 700L568 0L418 0L418 47Q366-14 269-14Q170-14 100 62Q30 138 30 250Q30 361 100 437Q171 514 269 514Q366 514 418 453M180 250Q180 250 180 222Q180 194 213 161Q246 128 299 128Q352 128 385 161Q418 194 418 250Q418 306 385 339Q352 372 299 372Q246 372 213 339Q180 306 180 250Z"  horiz-adv-x="623" vert-adv-y="1000"  />

      
      <glyph glyph-name="uni65" unicode="&#x65;" d="M544 190L189 190Q214 120 309 120Q370 120 405 158L525 89Q452-14 307-14Q182-14 105 61Q30 136 30 250Q30 362 104 438Q179 514 296 514Q405 514 477 438Q550 364 550 250Q550 218 544 190M186 302L401 302Q379 381 295 381Q208 381 186 302Z"  horiz-adv-x="580" vert-adv-y="1000"  />

      
      <glyph glyph-name="uni66" unicode="&#x66;" d="M330 714L330 570Q237 578 237 500L330 500L330 356L237 356L237 0L87 0L87 356L20 356L20 500L87 500Q87 609 149 665Q211 721 330 714Z"  horiz-adv-x="330" vert-adv-y="1000"  />

      
      <glyph glyph-name="uni67" unicode="&#x67;" d="M422 449L422 500L568 500L568 25Q568-93 491-153Q415-214 304-214Q134-214 67-93L195-19Q230-82 309-82Q363-82 392.50-54Q422-26 422 25L422 71Q369 6 276 6Q171 6 100 80Q30 154 30 260Q30 366 100 439Q170 514 276 514Q369 514 422 449M214 176Q249 144 301 144Q353 144 388 176Q422 207 422 260Q422 313 388 344Q353 376 301 376Q249 376 214 344Q180 313 180 260Q180 207 214 176Z"  horiz-adv-x="623" vert-adv-y="1000"  />

      
      <glyph glyph-name="uni68" unicode="&#x68;" d="M348 514Q429 514 481 459Q535 403 535 307L535 0L385 0L385 285Q385 328 361 352Q337 376 298 376Q254 376 229.50 349.50Q205 323 205 273L205 0L55 0L55 700L205 700L205 453Q250 514 348 514Z"  horiz-adv-x="583" vert-adv-y="1000"  />

      
      <glyph glyph-name="uni69" unicode="&#x69;" d="M193 570Q167 544 130 544Q93 544 66 570Q40 597 40 634Q40 671 66 697Q93 724 130 724Q167 724 193 697Q220 671 220 634Q220 597 193 570M205 0L55 0L55 500L205 500L205 0Z"  horiz-adv-x="260" vert-adv-y="1000"  />

      
      <glyph glyph-name="uni6a" unicode="&#x6a;" d="M208 570Q182 544 145 544Q108 544 81 570Q55 597 55 634Q55 671 81 697Q108 724 145 724Q182 724 208 697Q235 671 235 634Q235 597 208 570M70 0L70 500L220 500L220 0Q220-117 164-169Q108-221-10-214L-10-70Q32-72 51-55.50Q70-39 70 0Z"  horiz-adv-x="275" vert-adv-y="1000"  />

      
      <glyph glyph-name="uni6b" unicode="&#x6b;" d="M348 250L535 0L365 0L205 221L205 0L55 0L55 700L205 700L205 281L355 500L530 500L348 250Z"  horiz-adv-x="535" vert-adv-y="1000"  />

      
      <glyph glyph-name="uni6c" unicode="&#x6c;" d="M205 0L55 0L55 730L205 730L205 0Z"  horiz-adv-x="260" vert-adv-y="1000"  />

      
      <glyph glyph-name="uni6d" unicode="&#x6d;" d="M615 514Q700 514 753 457Q805 402 805 307L805 0L655 0L655 294Q655 333 636.50 354.50Q618 376 583 376Q546 376 525.50 351Q505 326 505 282L505 0L355 0L355 294Q355 333 336.50 354.50Q318 376 283 376Q246 376 225.50 351Q205 326 205 282L205 0L55 0L55 500L205 500L205 454Q246 514 339 514Q426 514 470 448Q516 514 615 514Z"  horiz-adv-x="853" vert-adv-y="1000"  />

      
      <glyph glyph-name="uni6e" unicode="&#x6e;" d="M348 514Q429 514 481 459Q535 403 535 307L535 0L385 0L385 285Q385 328 361 352Q337 376 298 376Q254 376 229.50 349.50Q205 323 205 273L205 0L55 0L55 500L205 500L205 453Q250 514 348 514Z"  horiz-adv-x="583" vert-adv-y="1000"  />

      
      <glyph glyph-name="uni6f" unicode="&#x6f;" d="M483 62Q407-14 295-14Q183-14 107 62Q30 139 30 250Q30 360 107 437Q184 514 295 514Q406 514 483 437Q560 360 560 250Q560 139 483 62M180 250Q180 250 180 224Q180 198 213 165Q246 132 295 132Q344 132 377 165Q410 198 410 250Q410 302 377 335Q344 368 295 368Q246 368 213 335Q180 302 180 250Z"  horiz-adv-x="590" vert-adv-y="1000"  />

      
      <glyph glyph-name="uni70" unicode="&#x70;" d="M354 514Q452 514 523 437Q593 361 593 250Q593 138 523 62Q453-14 354-14Q257-14 205 47L205-200L55-200L55 500L205 500L205 453Q257 514 354 514M238 161Q272 128 324 128Q376 128 409 161Q443 194 443 250Q443 306 409 339Q376 372 324 372Q272 372 238 339Q205 306 205 250Q205 194 238 161Z"  horiz-adv-x="623" vert-adv-y="1000"  />

      
      <glyph glyph-name="uni71" unicode="&#x71;" d="M418 453L418 500L568 500L568-200L418-200L418 47Q366-14 269-14Q170-14 100 62Q30 138 30 250Q30 361 100 437Q171 514 269 514Q366 514 418 453M180 250Q180 250 180 222Q180 194 213 161Q246 128 299 128Q352 128 385 161Q418 194 418 250Q418 306 385 339Q352 372 299 372Q246 372 213 339Q180 306 180 250Z"  horiz-adv-x="623" vert-adv-y="1000"  />

      
      <glyph glyph-name="uni72" unicode="&#x72;" d="M205 500L205 411Q219 458 260.50 484Q302 510 355 510L355 340Q299 349 252 321Q205 294 205 226L205 0L55 0L55 500L205 500Z"  horiz-adv-x="370" vert-adv-y="1000"  />

      
      <glyph glyph-name="uni73" unicode="&#x73;" d="M197 354Q197 341 218 331.50Q239 322 284 310Q444 275 443 150Q443 69 383 27Q322-14 235-14Q77-14 20 105L150 179Q170 120 235 120Q289 120 289 151Q289 173 202 195Q170 204 147 213.50Q124 223 97.50 240.50Q71 258 57 286Q43 314 43 350Q43 427 99 471Q155 514 239 514Q370 514 434 407L306 338Q282 382 239 382Q197 382 197 354Z"  horiz-adv-x="468" vert-adv-y="1000"  />

      
      <glyph glyph-name="uni74" unicode="&#x74;" d="M348 500L348 356L245 356L245 179Q245 150 268 141.50Q291 133 348 136L348 0Q206-15 150 27Q95 70 95 179L95 356L15 356L15 500L95 500L95 595L245 640L245 500L348 500Z"  horiz-adv-x="388" vert-adv-y="1000"  />

      
      <glyph glyph-name="uni75" unicode="&#x75;" d="M378 227L378 500L528 500L528 0L378 0L378 47Q333-14 235-14Q155-14 101 41Q48 97 48 193L48 500L198 500L198 215Q198 172 222 148Q246 124 285 124Q329 124 353.50 150.50Q378 177 378 227Z"  horiz-adv-x="583" vert-adv-y="1000"  />

      
      <glyph glyph-name="uni76" unicode="&#x76;" d="M270 183L374 500L540 500L355 0L185 0L0 500L166 500L270 183Z"  horiz-adv-x="540" vert-adv-y="1000"  />

      
      <glyph glyph-name="uni77" unicode="&#x77;" d="M533 232L605 500L765 500L605 0L465 0L385 267L305 0L165 0L5 500L165 500L237 232L315 500L455 500L533 232Z"  horiz-adv-x="770" vert-adv-y="1000"  />

      
      <glyph glyph-name="uni78" unicode="&#x78;" d="M351 254L530 0L358 0L265 132L172 0L0 0L179 254L6 500L178 500L265 376L352 500L524 500L351 254Z"  horiz-adv-x="530" vert-adv-y="1000"  />

      
      <glyph glyph-name="uni79" unicode="&#x79;" d="M276 194L370 500L530 500L359 15Q317-102 248.50-153.50Q180-205 74-200L74-60Q126-60 154-41.50Q182-23 199 23L0 500L165 500L276 194Z"  horiz-adv-x="530" vert-adv-y="1000"  />

      
      <glyph glyph-name="uni7a" unicode="&#x7a;" d="M430 400L241 140L440 140L440 0L40 0L40 100L229 360L50 360L50 500L430 500L430 400Z"  horiz-adv-x="475" vert-adv-y="1000"  />

      
      <glyph glyph-name="uni7b" unicode="&#x7b;" d="M340 37L340-107Q120-120 120 87L120 229Q120 262 103.50 272.50Q87 283 50 279L50 424Q87 420 103.50 430.50Q120 441 120 474L120 616Q120 823 340 810L340 666Q303 670 286.50 659.50Q270 649 270 616L270 474Q270 390 217 352Q270 314 270 229L270 87Q270 54 286.50 43.50Q303 33 340 37Z"  horiz-adv-x="360" vert-adv-y="1000"  />

      
      <glyph glyph-name="uni7c" unicode="&#x7c;" d="M210-200L60-200L60 720L210 720L210-200Z"  horiz-adv-x="270" vert-adv-y="1000"  />

      
      <glyph glyph-name="uni7d" unicode="&#x7d;" d="M20-107L20 37Q57 33 73.50 43.50Q90 54 90 87L90 229Q90 314 143 352Q90 390 90 474L90 616Q90 649 73.50 659.50Q57 670 20 666L20 810Q240 823 240 616L240 474Q240 441 256.50 430.50Q273 420 310 424L310 279Q273 283 256.50 272.50Q240 262 240 229L240 87Q240-120 20-107Z"  horiz-adv-x="360" vert-adv-y="1000"  />

      
      <glyph glyph-name="uni7e" unicode="&#x7e;" d="M440 452L560 394Q542 325 503 286.50Q464 248 415.50 245.50Q367 243 311 264Q238 298 207 296Q179 295 160 244L40 302Q58 371 97 409.50Q136 448 184.50 450.50Q233 453 289 432Q362 398 392 400Q420 401 440 452Z"  horiz-adv-x="600" vert-adv-y="1000"  />

      
      <glyph glyph-name="unia1" unicode="&#xa1;" d="M45 419Q45 419 45 438.50Q45 458 73 486Q101 514 140 514Q179 514 207 486Q235 458 235 419Q235 380 207 352Q179 324 140 324Q101 324 73 352Q45 380 45 419M50 0L80 250L200 250L230 0L230-200L50-200L50 0Z"  horiz-adv-x="280" vert-adv-y="1000"  />

      
      <glyph glyph-name="unia2" unicode="&#xa2;" d="M282 234L293 234Q364 234 390 290L521 215Q488 155 427.50 120.50Q367 86 295 86Q264 86 236 92L206 0L146 0L181 110Q112 141 71 205Q30 269 30 350Q30 461 105 538Q181 614 295 614Q324 614 343 610L372 700L432 700L398 594Q480 560 521 486L390 410Q378 434 352 451L282 234M180 350Q180 284 228 253L296 466L293 466Q244 466 212 433.50Q180 401 180 350Z"  horiz-adv-x="531" vert-adv-y="1000"  />

      
      <glyph glyph-name="unia3" unicode="&#xa3;" d="M256 269L256 154L570 154L570 0L30 0L30 154L96 154L96 269L40 269L40 409L96 409L96 493Q96 602 163 657Q230 714 321 714Q400 714 459 675Q518 636 547 565L408 485Q396 524 377 541Q358 558 326 558Q295 558 275.50 538.50Q256 519 256 486L256 409L450 409L450 269L256 269Z"  horiz-adv-x="580" vert-adv-y="1000"  />

      
      <glyph glyph-name="unia4" unicode="&#xa4;" d="M485 350Q485 278 440 219L510 150L470 110L400 181Q342 140 270 140Q197 140 141 181L70 110L30 150L100 220Q55 276 55 350Q55 424 100 480L30 550L70 590L141 519Q197 560 270 560Q343 560 399 519L470 590L510 550L440 480Q485 424 485 350M221 300Q239 282 270 282Q301 282 319 300Q337 319 337 350Q337 381 319 399Q301 418 270 418Q239 418 221 399Q203 381 203 350Q203 319 221 300Z"  horiz-adv-x="540" vert-adv-y="1000"  />

      
      <glyph glyph-name="unia5" unicode="&#xa5;" d="M448 700L630 700L448 367L540 367L540 279L400 279L395 269L395 239L540 239L540 151L395 151L395 0L235 0L235 151L70 151L70 239L235 239L235 269L230 279L70 279L70 367L182 367L0 700L182 700L315 430L448 700Z"  horiz-adv-x="610" vert-adv-y="1000"  />

      
      <glyph glyph-name="unia6" unicode="&#xa6;" d="M210 350L60 350L60 720L210 720L210 350M210-200L60-200L60 170L210 170L210-200Z"  horiz-adv-x="270" vert-adv-y="1000"  />

      
      <glyph glyph-name="unia7" unicode="&#xa7;" d="M517 292Q517 213 459 161Q489 119 489 62Q489-24 429-67Q370-112 281-112Q110-112 55 12L190 89Q216 18 281 18Q339 18 339 62Q339 83 309 99L279 114Q268 119 236 131Q204 143 197 146Q122 178 83.50 218Q45 258 45 320Q45 400 105 446Q78 486 78 544Q78 627 136 670Q195 714 276 714Q344 714 398.50 681Q453 648 482 586L358 519Q326 584 276 584Q228 584 228 544Q228 522 259 502Q271 495 294 485L313 477L358 460Q423 436 465 401Q517 364 517 292M195 330Q195 289 265 264Q268 263 281.50 258.50Q295 254 305 250Q342 237 351 233Q367 246 367 272Q367 296 349 310.50Q331 325 287 341L254 353L211 369Q195 356 195 330Z"  horiz-adv-x="552" vert-adv-y="1000"  />

      
      <glyph glyph-name="unia8" unicode="&#xa8;" d="M170 615Q170 615 170 599.50Q170 584 148 562Q126 540 95 540Q64 540 42 562Q20 584 20 615Q20 646 42 668Q64 690 95 690Q126 690 148 668Q170 646 170 615M360 615Q360 615 360 599.50Q360 584 338 562Q316 540 285 540Q254 540 232 562Q210 584 210 615Q210 646 232 668Q254 690 285 690Q316 690 338 668Q360 646 360 615Z"  horiz-adv-x="380" vert-adv-y="1000"  />

      
      <glyph glyph-name="unia9" unicode="&#xa9;" d="M754 350Q754 350 754 275Q754 200 648 94Q542-12 392-12Q242-12 136 94Q30 200 30 350Q30 500 136 606Q242 712 392 712Q542 712 648 606Q754 500 754 350M164 119Q259 24 392 24Q524 24 619 119Q714 216 714 350Q714 485 619 580Q524 676 392 676Q258 676 164 580Q70 486 70 350Q70 214 164 119M395 153Q312 153 254 211Q196 269 196 350Q196 430 254 488Q313 547 395 547Q447 547 492 521.50Q537 496 564 450L454 386Q433 420 392 420Q362 420 342 399Q322 378 322 350Q322 322 342 301Q362 280 392 280Q433 280 454 314L564 250Q538 205 492.50 179Q447 153 395 153Z"  horiz-adv-x="784" vert-adv-y="1000"  />

      
      <glyph glyph-name="uniab" unicode="&#xab;" d="M170 499L302 499L192 309L302 119L170 119L60 309L170 499M370 499L502 499L392 309L502 119L370 119L260 309L370 499Z"  horiz-adv-x="562" vert-adv-y="1000"  />

      
      <glyph glyph-name="uniac" unicode="&#xac;" d="M40 280L40 420L520 420L520 160L370 160L370 280L40 280Z"  horiz-adv-x="560" vert-adv-y="1000"  />

      
      <glyph glyph-name="uniae" unicode="&#xae;" d="M30 350Q30 350 30 425Q30 500 136 606Q242 712 392 712Q542 712 648 606Q754 500 754 350Q754 200 648 94Q542-12 392-12Q242-12 136 94Q30 200 30 350M164 119Q259 24 392 24Q524 24 619 119Q714 216 714 350Q714 485 619 580Q524 676 392 676Q258 676 164 580Q70 486 70 350Q70 214 164 119M551 411Q551 340 500 300L576 165L445 165L397 267L369 267L369 165L247 165L247 535L407 535Q465 535 508 501Q551 467 551 411M394 425L369 425L369 367L394 367Q410 367 419.50 375Q429 383 429 396Q429 425 394 425Z"  horiz-adv-x="784" vert-adv-y="1000"  />

      
      <glyph glyph-name="uniaf" unicode="&#xaf;" d="M320 559L20 559L20 679L320 679L320 559Z"  horiz-adv-x="340" vert-adv-y="1000"  />

      
      <glyph glyph-name="unib0" unicode="&#xb0;" d="M327 519Q327 519 302.50 494.50Q278 470 203 470Q128 470 79 519Q30 568 30 640Q30 711 79 760Q129 810 203 810Q276 810 326 760Q376 710 376 640Q376 568 327 519M252 640Q252 662 238.50 676Q225 690 203 690Q181 690 167.50 676Q154 662 154 640Q151 609 177 596Q203 583 229 596Q255 609 252 640Z"  horiz-adv-x="406" vert-adv-y="1000"  />

      
      <glyph glyph-name="unib1" unicode="&#xb1;" d="M350 660L350 520L510 520L510 380L350 380L350 240L210 240L210 380L50 380L50 520L210 520L210 660L350 660M510 40L50 40L50 180L510 180L510 40Z"  horiz-adv-x="560" vert-adv-y="1000"  />

      
      <glyph glyph-name="unib4" unicode="&#xb4;" d="M20 560L100 700L280 700L164 560L20 560Z"  horiz-adv-x="300" vert-adv-y="1000"  />

      
      <glyph glyph-name="unib5" unicode="&#xb5;" d="M565 140L600 140L600 0L535 0Q462 0 422 43Q378-14 282-14Q238-14 205 2L205-200L55-200L55 500L205 500L205 215Q205 172 229 148Q253 124 292 124Q336 124 360.50 150.50Q385 177 385 227L385 500L535 500L535 170Q535 140 565 140Z"  horiz-adv-x="620" vert-adv-y="1000"  />

      
      <glyph glyph-name="unib6" unicode="&#xb6;" d="M240 700L650 700L650 570L588 570L588-200L448-200L448 570L380 570L380-200L240-200L240 260Q148 260 84 324Q20 388 20 480Q20 572 84 636Q148 700 240 700Z"  horiz-adv-x="698" vert-adv-y="1000"  />

      
      <glyph glyph-name="unib7" unicode="&#xb7;" d="M235 346Q235 346 235 326.50Q235 307 207 279Q179 251 140 251Q101 251 73 279Q45 307 45 346Q45 385 73 413Q101 441 140 441Q179 441 207 413Q235 385 235 346Z"  horiz-adv-x="280" vert-adv-y="1000"  />

      
      <glyph glyph-name="unib8" unicode="&#xb8;" d="M182 0L182-46Q209-53 227-72.50Q245-92 245-123Q245-230 20-216L20-112Q115-120 115-98Q115-83 62-78L62 0L182 0Z"  horiz-adv-x="265" vert-adv-y="1000"  />

      
      <glyph glyph-name="unibb" unicode="&#xbb;" d="M60 499L192 499L302 309L192 119L60 119L170 309L60 499M260 499L392 499L502 309L392 119L260 119L370 309L260 499Z"  horiz-adv-x="562" vert-adv-y="1000"  />

      
      <glyph glyph-name="unibc" unicode="&#xbc;" d="M229 700L229 300L107 300L107 579L28 557L0 656L122 700L229 700M114 0L514 700L614 700L214 0L114 0M760 171L797 171L797 61L760 61L760 0L644 0L644 61L464 61L464 171L586 400L716 400L599 171L644 171L644 232L760 232L760 171Z"  horiz-adv-x="812" vert-adv-y="1000"  />

      
      <glyph glyph-name="unibd" unicode="&#xbd;" d="M229 700L229 300L107 300L107 579L28 557L0 656L122 700L229 700M114 0L514 700L614 700L214 0L114 0M705 157L658 110L781 110L781 0L475 0L475 77L620 224Q652 256 652 277Q652 304 621 304Q588 304 568 257L469 313Q513 414 623 414Q688 414 731 378Q775 343 775 287Q775 227 705 157Z"  horiz-adv-x="815" vert-adv-y="1000"  />

      
      <glyph glyph-name="unibe" unicode="&#xbe;" d="M324 422Q324 356 282.50 321Q241 286 166 286Q46 286 5 376L108 436Q123 391 166 391Q201 391 201 422Q201 452 161 452L137 452L95 514L157 590L24 590L24 700L305 700L305 615L238 536Q324 507 324 422M186 0L586 700L686 700L286 0L186 0M832 171L869 171L869 61L832 61L832 0L716 0L716 61L536 61L536 171L658 400L788 400L671 171L716 171L716 232L832 232L832 171Z"  horiz-adv-x="884" vert-adv-y="1000"  />

      
      <glyph glyph-name="unibf" unicode="&#xbf;" d="M195 419Q195 419 195 438.50Q195 458 223 486Q251 514 290 514Q329 514 357 486Q385 458 385 419Q385 380 357 352Q329 324 290 324Q251 324 223 352Q195 380 195 419M210 250L370 250Q370 218 353.50 188.50Q337 159 313.50 136.50Q290 114 266.50 93Q243 72 226.50 48Q210 24 210 0Q210-58 284-58Q356-58 392 26L530-53Q497-128 429.50-171Q362-214 278-214Q186-214 118-160Q50-106 50-14Q50 27 66.50 63Q83 99 106.50 124Q130 149 153.50 170Q177 191 193.50 211.50Q210 232 210 250Z"  horiz-adv-x="560" vert-adv-y="1000"  />

      
      <glyph glyph-name="unic0" unicode="&#xc0;" d="M350 900L430 760L286 760L170 900L350 900M680 0L505 0L470 110L210 110L175 0L0 0L238 700L442 700L680 0M340 517L258 260L422 260L340 517Z"  horiz-adv-x="680" vert-adv-y="1000"  />

      
      <glyph glyph-name="unic1" unicode="&#xc1;" d="M330 900L510 900L394 760L250 760L330 900M680 0L505 0L470 110L210 110L175 0L0 0L238 700L442 700L680 0M340 517L258 260L422 260L340 517Z"  horiz-adv-x="680" vert-adv-y="1000"  />

      
      <glyph glyph-name="unic2" unicode="&#xc2;" d="M370 750L335 805L300 750L155 750L261 900L409 900L515 750L370 750M680 0L505 0L470 110L210 110L175 0L0 0L238 700L442 700L680 0M340 517L258 260L422 260L340 517Z"  horiz-adv-x="680" vert-adv-y="1000"  />

      
      <glyph glyph-name="unic3" unicode="&#xc3;" d="M323 777Q298 793 289 788Q280 783 280 753L160 753Q160 814 177.50 853Q195 892 224 904.50Q253 917 287 912.50Q321 908 356 886Q382 870 390.50 875Q399 880 399 910L519 910Q519 849 501.50 810Q484 771 455 758.50Q426 746 392 750.50Q358 755 323 777M680 0L505 0L470 110L210 110L175 0L0 0L238 700L442 700L680 0M340 517L258 260L422 260L340 517Z"  horiz-adv-x="680" vert-adv-y="1000"  />

      
      <glyph glyph-name="unic4" unicode="&#xc4;" d="M320 815Q320 815 320 799.50Q320 784 298 762Q276 740 245 740Q214 740 192 762Q170 784 170 815Q170 846 192 868Q214 890 245 890Q276 890 298 868Q320 846 320 815M510 815Q510 815 510 799.50Q510 784 488 762Q466 740 435 740Q404 740 382 762Q360 784 360 815Q360 846 382 868Q404 890 435 890Q466 890 488 868Q510 846 510 815M680 0L505 0L470 110L210 110L175 0L0 0L238 700L442 700L680 0M340 517L258 260L422 260L340 517Z"  horiz-adv-x="680" vert-adv-y="1000"  />

      
      <glyph glyph-name="unic5" unicode="&#xc5;" d="M680 0L505 0L470 110L210 110L175 0L0 0L235 691Q207 723 207 770Q207 824 244.50 859.50Q282 895 340 895Q399 895 436 859.50Q473 824 473 770Q473 724 445 690L680 0M366 794Q357 804 340 804Q323 804 314 794Q305 785 305 770Q305 755 314 745Q323 736 340 736Q357 736 366 745Q376 755 376 770Q376 785 366 794M340 517L258 260L422 260L340 517Z"  horiz-adv-x="680" vert-adv-y="1000"  />

      
      <glyph glyph-name="unic6" unicode="&#xc6;" d="M605 278L605 154L850 154L850 0L450 0L450 110L244 110L180 0L0 0L409 700L845 700L845 546L605 546L605 430L820 430L820 278L605 278M450 464L331 260L450 260L450 464Z"  horiz-adv-x="880" vert-adv-y="1000"  />

      
      <glyph glyph-name="unic7" unicode="&#xc7;" d="M394 142Q447 142 490.50 165Q534 188 556 228L694 148Q657 87 596 46Q535 5 461-8L461-46Q488-53 506-72.50Q524-92 524-123Q524-230 299-216L299-112Q394-120 394-98Q394-83 341-78L341-11Q204 7 117 108Q30 208 30 350Q30 506 133 609Q236 714 394 714Q488 714 568 670.50Q648 627 694 552L556 472Q533 513 490.50 535.50Q448 558 394 558Q300 558 245 501Q190 445 190 350Q190 255 245 199Q300 142 394 142Z"  horiz-adv-x="719" vert-adv-y="1000"  />

      
      <glyph glyph-name="unic8" unicode="&#xc8;" d="M288 900L368 760L224 760L108 900L288 900M220 278L220 154L500 154L500 0L60 0L60 700L495 700L495 546L220 546L220 430L470 430L470 278L220 278Z"  horiz-adv-x="530" vert-adv-y="1000"  />

      
      <glyph glyph-name="unic9" unicode="&#xc9;" d="M268 900L448 900L332 760L188 760L268 900M220 278L220 154L500 154L500 0L60 0L60 700L495 700L495 546L220 546L220 430L470 430L470 278L220 278Z"  horiz-adv-x="530" vert-adv-y="1000"  />

      
      <glyph glyph-name="unica" unicode="&#xca;" d="M308 750L273 805L238 750L93 750L199 900L347 900L453 750L308 750M220 278L220 154L500 154L500 0L60 0L60 700L495 700L495 546L220 546L220 430L470 430L470 278L220 278Z"  horiz-adv-x="530" vert-adv-y="1000"  />

      
      <glyph glyph-name="unicb" unicode="&#xcb;" d="M258 815Q258 815 258 799.50Q258 784 236 762Q214 740 183 740Q152 740 130 762Q108 784 108 815Q108 846 130 868Q152 890 183 890Q214 890 236 868Q258 846 258 815M448 815Q448 815 448 799.50Q448 784 426 762Q404 740 373 740Q342 740 320 762Q298 784 298 815Q298 846 320 868Q342 890 373 890Q404 890 426 868Q448 846 448 815M220 278L220 154L500 154L500 0L60 0L60 700L495 700L495 546L220 546L220 430L470 430L470 278L220 278Z"  horiz-adv-x="530" vert-adv-y="1000"  />

      
      <glyph glyph-name="unicc" unicode="&#xcc;" d="M230 760L86 760L-30 900L150 900L230 760M60 700L60 0L220 0L220 700L60 700Z"  horiz-adv-x="280" vert-adv-y="1000"  />

      
      <glyph glyph-name="unicd" unicode="&#xcd;" d="M50 760L130 900L310 900L194 760L50 760M60 700L60 0L220 0L220 700L60 700Z"  horiz-adv-x="280" vert-adv-y="1000"  />

      
      <glyph glyph-name="unice" unicode="&#xce;" d="M170 750L135 805L100 750L-45 750L61 900L209 900L315 750L170 750M220 0L60 0L60 700L220 700L220 0Z"  horiz-adv-x="280" vert-adv-y="1000"  />

      
      <glyph glyph-name="unicf" unicode="&#xcf;" d="M120 815Q120 815 120 799.50Q120 784 98 762Q76 740 45 740Q14 740-8 762Q-30 784-30 815Q-30 846-8 868Q14 890 45 890Q76 890 98 868Q120 846 120 815M310 815Q310 815 310 799.50Q310 784 288 762Q266 740 235 740Q204 740 182 762Q160 784 160 815Q160 846 182 868Q204 890 235 890Q266 890 288 868Q310 846 310 815M60 0L60 700L220 700L220 0L60 0Z"  horiz-adv-x="280" vert-adv-y="1000"  />

      
      <glyph glyph-name="unid0" unicode="&#xd0;" d="M100 700L380 700Q524 700 622 599Q720 498 720 350Q720 201 622 100Q525 0 380 0L100 0L100 268L20 268L20 412L100 412L100 700M260 154L380 154Q463 154 514 207Q566 260 566 350Q566 440 514 492Q463 546 380 546L260 546L260 412L400 412L400 268L260 268L260 154Z"  horiz-adv-x="750" vert-adv-y="1000"  />

      
      <glyph glyph-name="unid1" unicode="&#xd1;" d="M265 753L145 753Q145 814 162.50 853Q180 892 209 904.50Q238 917 272 912.50Q306 908 341 886Q366 870 375 875Q384 880 384 910L504 910Q504 849 486.50 810Q469 771 440 758.50Q411 746 377 750.50Q343 755 308 777Q282 793 273.50 788Q265 783 265 753M450 320L450 700L610 700L610 0L490 0L220 380L220 0L60 0L60 700L180 700L450 320Z"  horiz-adv-x="670" vert-adv-y="1000"  />

      
      <glyph glyph-name="unid2" unicode="&#xd2;" d="M484 770L340 770L224 910L404 910L484 770M652 91Q758 196 758 350Q758 504 652 609Q546 714 394 714Q242 714 136 609Q30 504 30 350Q30 196 136 91Q242-14 394-14Q546-14 652 91M394 142Q306 142 248 200Q190 258 190 350Q190 442 248 500Q306 558 394 558Q481 558 539 500Q598 441 598 350Q598 259 539 200Q481 142 394 142Z"  horiz-adv-x="788" vert-adv-y="1000"  />

      
      <glyph glyph-name="unid3" unicode="&#xd3;" d="M304 770L384 910L564 910L448 770L304 770M652 91Q758 196 758 350Q758 504 652 609Q546 714 394 714Q242 714 136 609Q30 504 30 350Q30 196 136 91Q242-14 394-14Q546-14 652 91M394 142Q306 142 248 200Q190 258 190 350Q190 442 248 500Q306 558 394 558Q481 558 539 500Q598 441 598 350Q598 259 539 200Q481 142 394 142Z"  horiz-adv-x="788" vert-adv-y="1000"  />

      
      <glyph glyph-name="unid4" unicode="&#xd4;" d="M424 760L389 815L354 760L209 760L315 910L463 910L569 760L424 760M136 609Q242 714 394 714Q546 714 652 609Q758 504 758 350Q758 196 652 91Q546-14 394-14Q242-14 136 91Q30 196 30 350Q30 504 136 609M190 350Q190 350 190 304Q190 258 248 200Q306 142 394 142Q481 142 539 200Q598 259 598 350Q598 441 539 500Q481 558 394 558Q306 558 248 500Q190 442 190 350Z"  horiz-adv-x="788" vert-adv-y="1000"  />

      
      <glyph glyph-name="unid5" unicode="&#xd5;" d="M334 763L214 763Q214 824 231.50 863Q249 902 278 914.50Q307 927 341 922.50Q375 918 410 896Q436 880 444.50 885Q453 890 453 920L573 920Q573 859 555.50 820Q538 781 509 768.50Q480 756 446 760.50Q412 765 377 787Q352 803 343 798Q334 793 334 763M652 91Q546-14 394-14Q242-14 136 91Q30 196 30 350Q30 504 136 609Q242 714 394 714Q546 714 652 609Q758 504 758 350Q758 196 652 91M190 350Q190 350 190 304Q190 258 248 200Q306 142 394 142Q481 142 539 200Q598 259 598 350Q598 441 539 500Q481 558 394 558Q306 558 248 500Q190 442 190 350Z"  horiz-adv-x="788" vert-adv-y="1000"  />

      
      <glyph glyph-name="unid6" unicode="&#xd6;" d="M374 825Q374 825 374 809.50Q374 794 352 772Q330 750 299 750Q268 750 246 772Q224 794 224 825Q224 856 246 878Q268 900 299 900Q330 900 352 878Q374 856 374 825M564 825Q564 825 564 809.50Q564 794 542 772Q520 750 489 750Q458 750 436 772Q414 794 414 825Q414 856 436 878Q458 900 489 900Q520 900 542 878Q564 856 564 825M652 91Q546-14 394-14Q242-14 136 91Q30 196 30 350Q30 504 136 609Q242 714 394 714Q546 714 652 609Q758 504 758 350Q758 196 652 91M190 350Q190 350 190 304Q190 258 248 200Q306 142 394 142Q481 142 539 200Q598 259 598 350Q598 441 539 500Q481 558 394 558Q306 558 248 500Q190 442 190 350Z"  horiz-adv-x="788" vert-adv-y="1000"  />

      
      <glyph glyph-name="unid7" unicode="&#xd7;" d="M376 562L475 464L361 350L475 236L376 138L263 252L149 138L50 236L164 350L50 464L149 562L263 449L376 562Z"  horiz-adv-x="525" vert-adv-y="1000"  />

      
      <glyph glyph-name="unid8" unicode="&#xd8;" d="M717 671L662 604Q763 500 763 350Q763 196 657 91Q550-14 399-14Q294-14 202 42L156-14L81 29L136 96Q35 200 35 350Q35 504 141 609Q248 714 399 714Q504 714 596 658L642 714L717 671M195 350Q195 273 237 219L496 535Q452 558 399 558Q311 558 253 500Q195 442 195 350M399 142Q486 142 544 200Q603 259 603 350Q603 427 561 481L302 165Q346 142 399 142Z"  horiz-adv-x="793" vert-adv-y="1000"  />

      
      <glyph glyph-name="unid9" unicode="&#xd9;" d="M415 760L271 760L155 900L335 900L415 760M55 226Q55 115 131 51Q208-14 325-14Q442-14 519 51Q595 115 595 226L595 700L435 700L435 240Q435 142 325 142Q215 142 215 240L215 700L55 700L55 226Z"  horiz-adv-x="650" vert-adv-y="1000"  />

      
      <glyph glyph-name="unida" unicode="&#xda;" d="M235 760L315 900L495 900L379 760L235 760M55 226Q55 115 131 51Q208-14 325-14Q442-14 519 51Q595 115 595 226L595 700L435 700L435 240Q435 142 325 142Q215 142 215 240L215 700L55 700L55 226Z"  horiz-adv-x="650" vert-adv-y="1000"  />

      
      <glyph glyph-name="unidb" unicode="&#xdb;" d="M355 750L320 805L285 750L140 750L246 900L394 900L500 750L355 750M435 240L435 700L595 700L595 226Q595 115 519 51Q442-14 325-14Q208-14 131 51Q55 115 55 226L55 700L215 700L215 240Q215 142 325 142Q435 142 435 240Z"  horiz-adv-x="650" vert-adv-y="1000"  />

      
      <glyph glyph-name="unidc" unicode="&#xdc;" d="M305 815Q305 815 305 799.50Q305 784 283 762Q261 740 230 740Q199 740 177 762Q155 784 155 815Q155 846 177 868Q199 890 230 890Q261 890 283 868Q305 846 305 815M495 815Q495 815 495 799.50Q495 784 473 762Q451 740 420 740Q389 740 367 762Q345 784 345 815Q345 846 367 868Q389 890 420 890Q451 890 473 868Q495 846 495 815M55 226L55 700L215 700L215 240Q215 142 325 142Q435 142 435 240L435 700L595 700L595 226Q595 115 519 51Q442-14 325-14Q208-14 131 51Q55 115 55 226Z"  horiz-adv-x="650" vert-adv-y="1000"  />

      
      <glyph glyph-name="unidd" unicode="&#xdd;" d="M305 900L485 900L369 760L225 760L305 900M448 700L630 700L395 269L395 0L235 0L235 269L0 700L182 700L315 430L448 700Z"  horiz-adv-x="630" vert-adv-y="1000"  />

      
      <glyph glyph-name="unide" unicode="&#xde;" d="M220 590L330 590Q430 590 500 520Q570 450 570 350Q570 250 500 180Q430 110 330 110L220 110L220 0L60 0L60 700L220 700L220 590M220 260L330 260Q363 260 386.50 286Q410 312 410 350Q410 388 386.50 414Q363 440 330 440L220 440L220 260Z"  horiz-adv-x="590" vert-adv-y="1000"  />

      
      <glyph glyph-name="unidf" unicode="&#xdf;" d="M276-7L276 125Q379 115 379 176Q379 204 324 280Q269 356 269 389Q269 414 296 455Q323 496 323 524Q323 546 308 562Q293 578 269 578Q239 578 222 560Q205 542 205 507L205 0L55 0L55 505Q55 601 114.50 657.50Q174 714 276 714Q366 714 419 666Q473 620 473 551Q473 502 448 459Q423 416 423 399Q421 383 448.50 340.50Q476 298 503.50 243.50Q531 189 529 146Q529-32 276-7Z"  horiz-adv-x="544" vert-adv-y="1000"  />

      
      <glyph glyph-name="unie0" unicode="&#xe0;" d="M320 700L400 560L256 560L140 700L320 700M418 453L418 500L568 500L568 0L418 0L418 47Q366-14 269-14Q170-14 100 62Q30 138 30 250Q30 361 100 437Q171 514 269 514Q366 514 418 453M180 250Q180 250 180 222Q180 194 213 161Q246 128 299 128Q352 128 385 161Q418 194 418 250Q418 306 385 339Q352 372 299 372Q246 372 213 339Q180 306 180 250Z"  horiz-adv-x="623" vert-adv-y="1000"  />

      
      <glyph glyph-name="unie1" unicode="&#xe1;" d="M300 700L480 700L364 560L220 560L300 700M418 453L418 500L568 500L568 0L418 0L418 47Q366-14 269-14Q170-14 100 62Q30 138 30 250Q30 361 100 437Q171 514 269 514Q366 514 418 453M180 250Q180 250 180 222Q180 194 213 161Q246 128 299 128Q352 128 385 161Q418 194 418 250Q418 306 385 339Q352 372 299 372Q246 372 213 339Q180 306 180 250Z"  horiz-adv-x="623" vert-adv-y="1000"  />

      
      <glyph glyph-name="unie2" unicode="&#xe2;" d="M340 550L305 605L270 550L125 550L231 700L379 700L485 550L340 550M418 453L418 500L568 500L568 0L418 0L418 47Q366-14 269-14Q170-14 100 62Q30 138 30 250Q30 361 100 437Q171 514 269 514Q366 514 418 453M180 250Q180 250 180 222Q180 194 213 161Q246 128 299 128Q352 128 385 161Q418 194 418 250Q418 306 385 339Q352 372 299 372Q246 372 213 339Q180 306 180 250Z"  horiz-adv-x="623" vert-adv-y="1000"  />

      
      <glyph glyph-name="unie3" unicode="&#xe3;" d="M293 577Q268 593 259 588Q250 583 250 553L130 553Q130 614 147.50 653Q165 692 194 704.50Q223 717 257 712.50Q291 708 326 686Q352 670 360.50 675Q369 680 369 710L489 710Q489 649 471.50 610Q454 571 425 558.50Q396 546 362 550.50Q328 555 293 577M418 453L418 500L568 500L568 0L418 0L418 47Q366-14 269-14Q170-14 100 62Q30 138 30 250Q30 361 100 437Q171 514 269 514Q366 514 418 453M180 250Q180 250 180 222Q180 194 213 161Q246 128 299 128Q352 128 385 161Q418 194 418 250Q418 306 385 339Q352 372 299 372Q246 372 213 339Q180 306 180 250Z"  horiz-adv-x="623" vert-adv-y="1000"  />

      
      <glyph glyph-name="unie4" unicode="&#xe4;" d="M290 615Q290 615 290 599.50Q290 584 268 562Q246 540 215 540Q184 540 162 562Q140 584 140 615Q140 646 162 668Q184 690 215 690Q246 690 268 668Q290 646 290 615M480 615Q480 615 480 599.50Q480 584 458 562Q436 540 405 540Q374 540 352 562Q330 584 330 615Q330 646 352 668Q374 690 405 690Q436 690 458 668Q480 646 480 615M418 453L418 500L568 500L568 0L418 0L418 47Q366-14 269-14Q170-14 100 62Q30 138 30 250Q30 361 100 437Q171 514 269 514Q366 514 418 453M180 250Q180 250 180 222Q180 194 213 161Q246 128 299 128Q352 128 385 161Q418 194 418 250Q418 306 385 339Q352 372 299 372Q246 372 213 339Q180 306 180 250Z"  horiz-adv-x="623" vert-adv-y="1000"  />

      
      <glyph glyph-name="unie5" unicode="&#xe5;" d="M310 535Q252 535 214.50 570.50Q177 606 177 660Q177 714 214.50 749.50Q252 785 310 785Q369 785 406 749.50Q443 714 443 660Q443 606 406 570.50Q369 535 310 535M336 684Q327 694 310 694Q293 694 284 684Q275 675 275 660Q275 645 284 635Q293 626 310 626Q327 626 336 635Q346 645 346 660Q346 675 336 684M418 453L418 500L568 500L568 0L418 0L418 47Q366-14 269-14Q170-14 100 62Q30 138 30 250Q30 361 100 437Q171 514 269 514Q366 514 418 453M180 250Q180 250 180 222Q180 194 213 161Q246 128 299 128Q352 128 385 161Q418 194 418 250Q418 306 385 339Q352 372 299 372Q246 372 213 339Q180 306 180 250Z"  horiz-adv-x="623" vert-adv-y="1000"  />

      
      <glyph glyph-name="unie6" unicode="&#xe6;" d="M934 190L579 190Q606 120 699 120Q760 120 795 158L915 89Q876 35 830.50 10.50Q785-14 717-14Q620-14 558 54L558 0L418 0L418 47Q366-14 269-14Q170-14 100 62Q30 138 30 250Q30 361 100 437Q171 514 269 514Q366 514 418 453L418 500L558 500L558 447Q619 514 713 514Q820 514 880 440Q940 366 940 250Q940 218 934 190M576 304L791 304Q768 381 687 381Q602 381 576 304M180 250Q180 250 180 222Q180 194 213 161Q246 128 299 128Q352 128 385 161Q418 194 418 250Q418 306 385 339Q352 372 299 372Q246 372 213 339Q180 306 180 250Z"  horiz-adv-x="970" vert-adv-y="1000"  />

      
      <glyph glyph-name="unie7" unicode="&#xe7;" d="M293 134Q364 134 390 190L521 115Q470 23 362-6L362-46Q389-53 407-72.50Q425-92 425-123Q425-230 200-216L200-112Q295-120 295-98Q295-83 242-78L242-9Q148 7 89 80Q30 153 30 250Q30 362 105 438Q181 514 295 514Q366 514 427 479Q488 444 521 386L390 310Q363 366 293 366Q244 366 212 333.50Q180 301 180 250Q180 199 212 166.50Q244 134 293 134Z"  horiz-adv-x="531" vert-adv-y="1000"  />

      
      <glyph glyph-name="unie8" unicode="&#xe8;" d="M300 705L380 565L236 565L120 705L300 705M544 190L189 190Q214 120 309 120Q370 120 405 158L525 89Q452-14 307-14Q182-14 105 61Q30 136 30 250Q30 362 104 438Q179 514 296 514Q405 514 477 438Q550 364 550 250Q550 218 544 190M186 302L401 302Q379 381 295 381Q208 381 186 302Z"  horiz-adv-x="580" vert-adv-y="1000"  />

      
      <glyph glyph-name="unie9" unicode="&#xe9;" d="M280 705L460 705L344 565L200 565L280 705M544 190L189 190Q214 120 309 120Q370 120 405 158L525 89Q452-14 307-14Q182-14 105 61Q30 136 30 250Q30 362 104 438Q179 514 296 514Q405 514 477 438Q550 364 550 250Q550 218 544 190M186 302L401 302Q379 381 295 381Q208 381 186 302Z"  horiz-adv-x="580" vert-adv-y="1000"  />

      
      <glyph glyph-name="uniea" unicode="&#xea;" d="M320 555L285 610L250 555L105 555L211 705L359 705L465 555L320 555M544 190L189 190Q214 120 309 120Q370 120 405 158L525 89Q452-14 307-14Q182-14 105 61Q30 136 30 250Q30 362 104 438Q179 514 296 514Q405 514 477 438Q550 364 550 250Q550 218 544 190M186 302L401 302Q379 381 295 381Q208 381 186 302Z"  horiz-adv-x="580" vert-adv-y="1000"  />

      
      <glyph glyph-name="unieb" unicode="&#xeb;" d="M270 620Q270 620 270 604.50Q270 589 248 567Q226 545 195 545Q164 545 142 567Q120 589 120 620Q120 651 142 673Q164 695 195 695Q226 695 248 673Q270 651 270 620M460 620Q460 620 460 604.50Q460 589 438 567Q416 545 385 545Q354 545 332 567Q310 589 310 620Q310 651 332 673Q354 695 385 695Q416 695 438 673Q460 651 460 620M544 190L189 190Q214 120 309 120Q370 120 405 158L525 89Q452-14 307-14Q182-14 105 61Q30 136 30 250Q30 362 104 438Q179 514 296 514Q405 514 477 438Q550 364 550 250Q550 218 544 190M186 302L401 302Q379 381 295 381Q208 381 186 302Z"  horiz-adv-x="580" vert-adv-y="1000"  />

      
      <glyph glyph-name="uniec" unicode="&#xec;" d="M200 550L56 550L-10 700L160 700L200 550M205 0L205 500L55 500L55 0L205 0Z"  horiz-adv-x="260" vert-adv-y="1000"  />

      
      <glyph glyph-name="unied" unicode="&#xed;" d="M55 550L95 700L265 700L199 550L55 550M55 0L205 0L205 500L55 500L55 0Z"  horiz-adv-x="260" vert-adv-y="1000"  />

      
      <glyph glyph-name="uniee" unicode="&#xee;" d="M155 550L130 594L105 550L-40 550L56 700L204 700L300 550L155 550M205 0L55 0L55 500L205 500L205 0Z"  horiz-adv-x="260" vert-adv-y="1000"  />

      
      <glyph glyph-name="unief" unicode="&#xef;" d="M115 620Q115 620 115 604.50Q115 589 93 567Q71 545 40 545Q9 545-13 567Q-35 589-35 620Q-35 651-13 673Q9 695 40 695Q71 695 93 673Q115 651 115 620M295 620Q295 620 295 604.50Q295 589 273 567Q251 545 220 545Q189 545 167 567Q145 589 145 620Q145 651 167 673Q189 695 220 695Q251 695 273 673Q295 651 295 620M205 0L55 0L55 500L205 500L205 0Z"  horiz-adv-x="260" vert-adv-y="1000"  />

      
      <glyph glyph-name="unif0" unicode="&#xf0;" d="M330 584L490 370Q536 308 536 230Q536 119 462 53Q388-12 283-12Q178-12 104 53Q30 119 30 230Q30 322 93 386Q158 453 250 454L199 523L67 462L67 562L145 598L72 700L244 700L275 659L394 714L394 614L330 584M386 230Q386 264 368 289Q338 328 283 328Q237 328 208.50 301.50Q180 275 180 230Q180 182 207.50 155Q235 128 283 128Q331 128 358.50 155Q386 182 386 230Z"  horiz-adv-x="566" vert-adv-y="1000"  />

      
      <glyph glyph-name="unif1" unicode="&#xf1;" d="M284 587Q258 603 249.50 598Q241 593 241 563L121 563Q121 624 138.50 663Q156 702 185 714.50Q214 727 248 722.50Q282 718 317 696Q342 680 351 685Q360 690 360 720L480 720Q480 659 462.50 620Q445 581 416 568.50Q387 556 353 560.50Q319 565 284 587M348 514Q429 514 481 459Q535 403 535 307L535 0L385 0L385 285Q385 328 361 352Q337 376 298 376Q254 376 229.50 349.50Q205 323 205 273L205 0L55 0L55 500L205 500L205 453Q250 514 348 514Z"  horiz-adv-x="583" vert-adv-y="1000"  />

      
      <glyph glyph-name="unif2" unicode="&#xf2;" d="M385 570L241 570L125 710L305 710L385 570M483 62Q560 139 560 250Q560 360 483 437Q406 514 295 514Q184 514 107 437Q30 360 30 250Q30 139 107 62Q183-14 295-14Q407-14 483 62M295 132Q295 132 270.50 132Q246 132 213 165Q180 198 180 250Q180 302 213 335Q246 368 295 368Q344 368 377 335Q410 302 410 250Q410 198 377 165Q344 132 295 132Z"  horiz-adv-x="590" vert-adv-y="1000"  />

      
      <glyph glyph-name="unif3" unicode="&#xf3;" d="M205 570L285 710L465 710L349 570L205 570M483 62Q560 139 560 250Q560 360 483 437Q406 514 295 514Q184 514 107 437Q30 360 30 250Q30 139 107 62Q183-14 295-14Q407-14 483 62M295 132Q295 132 270.50 132Q246 132 213 165Q180 198 180 250Q180 302 213 335Q246 368 295 368Q344 368 377 335Q410 302 410 250Q410 198 377 165Q344 132 295 132Z"  horiz-adv-x="590" vert-adv-y="1000"  />

      
      <glyph glyph-name="unif4" unicode="&#xf4;" d="M325 560L290 615L255 560L110 560L216 710L364 710L470 560L325 560M30 250Q30 360 107 437Q184 514 295 514Q406 514 483 437Q560 360 560 250Q560 139 483 62Q407-14 295-14Q183-14 107 62Q30 139 30 250M180 250Q180 250 180 224Q180 198 213 165Q246 132 295 132Q344 132 377 165Q410 198 410 250Q410 302 377 335Q344 368 295 368Q246 368 213 335Q180 302 180 250Z"  horiz-adv-x="590" vert-adv-y="1000"  />

      
      <glyph glyph-name="unif5" unicode="&#xf5;" d="M235 563L115 563Q115 624 132.50 663Q150 702 179 714.50Q208 727 242 722.50Q276 718 311 696Q336 680 345 685Q354 690 354 720L474 720Q474 659 456.50 620Q439 581 410 568.50Q381 556 347 560.50Q313 565 278 587Q252 603 243.50 598Q235 593 235 563M483 62Q407-14 295-14Q183-14 107 62Q30 139 30 250Q30 360 107 437Q184 514 295 514Q406 514 483 437Q560 360 560 250Q560 139 483 62M180 250Q180 250 180 224Q180 198 213 165Q246 132 295 132Q344 132 377 165Q410 198 410 250Q410 302 377 335Q344 368 295 368Q246 368 213 335Q180 302 180 250Z"  horiz-adv-x="590" vert-adv-y="1000"  />

      
      <glyph glyph-name="unif6" unicode="&#xf6;" d="M275 625Q275 625 275 609.50Q275 594 253 572Q231 550 200 550Q169 550 147 572Q125 594 125 625Q125 656 147 678Q169 700 200 700Q231 700 253 678Q275 656 275 625M465 625Q465 625 465 609.50Q465 594 443 572Q421 550 390 550Q359 550 337 572Q315 594 315 625Q315 656 337 678Q359 700 390 700Q421 700 443 678Q465 656 465 625M483 62Q407-14 295-14Q183-14 107 62Q30 139 30 250Q30 360 107 437Q184 514 295 514Q406 514 483 437Q560 360 560 250Q560 139 483 62M180 250Q180 250 180 224Q180 198 213 165Q246 132 295 132Q344 132 377 165Q410 198 410 250Q410 302 377 335Q344 368 295 368Q246 368 213 335Q180 302 180 250Z"  horiz-adv-x="590" vert-adv-y="1000"  />

      
      <glyph glyph-name="unif7" unicode="&#xf7;" d="M370 547Q370 547 370 528Q370 509 344 483Q318 457 280 457Q242 457 216 483Q190 509 190 547Q190 585 216 611Q242 637 280 637Q318 637 344 611Q370 585 370 547M520 280L40 280L40 420L520 420L520 280M370 153Q370 153 370 134Q370 115 344 89Q318 63 280 63Q242 63 216 89Q190 115 190 153Q190 191 216 217Q242 243 280 243Q318 243 344 217Q370 191 370 153Z"  horiz-adv-x="560" vert-adv-y="1000"  />

      
      <glyph glyph-name="unif8" unicode="&#xf8;" d="M527 475L490 430Q560 356 560 250Q560 139 483 62Q407-14 295-14Q218-14 154 25L125-10L64 24L101 69Q30 146 30 250Q30 360 107 437Q184 514 295 514Q375 514 436 474L466 510L527 475M180 250Q180 214 197 185L341 359Q320 368 295 368Q246 368 213 334.50Q180 301 180 250M295 132Q344 132 377 165.50Q410 199 410 250Q410 286 394 314L250 140Q272 132 295 132Z"  horiz-adv-x="590" vert-adv-y="1000"  />

      
      <glyph glyph-name="unif9" unicode="&#xf9;" d="M298 700L378 560L234 560L118 700L298 700M378 227L378 500L528 500L528 0L378 0L378 47Q333-14 235-14Q155-14 101 41Q48 97 48 193L48 500L198 500L198 215Q198 172 222 148Q246 124 285 124Q329 124 353.50 150.50Q378 177 378 227Z"  horiz-adv-x="583" vert-adv-y="1000"  />

      
      <glyph glyph-name="unifa" unicode="&#xfa;" d="M278 700L458 700L342 560L198 560L278 700M378 227L378 500L528 500L528 0L378 0L378 47Q333-14 235-14Q155-14 101 41Q48 97 48 193L48 500L198 500L198 215Q198 172 222 148Q246 124 285 124Q329 124 353.50 150.50Q378 177 378 227Z"  horiz-adv-x="583" vert-adv-y="1000"  />

      
      <glyph glyph-name="unifb" unicode="&#xfb;" d="M318 550L283 605L248 550L103 550L209 700L357 700L463 550L318 550M378 227L378 500L528 500L528 0L378 0L378 47Q333-14 235-14Q155-14 101 41Q48 97 48 193L48 500L198 500L198 215Q198 172 222 148Q246 124 285 124Q329 124 353.50 150.50Q378 177 378 227Z"  horiz-adv-x="583" vert-adv-y="1000"  />

      
      <glyph glyph-name="unifc" unicode="&#xfc;" d="M268 615Q268 615 268 599.50Q268 584 246 562Q224 540 193 540Q162 540 140 562Q118 584 118 615Q118 646 140 668Q162 690 193 690Q224 690 246 668Q268 646 268 615M458 615Q458 615 458 599.50Q458 584 436 562Q414 540 383 540Q352 540 330 562Q308 584 308 615Q308 646 330 668Q352 690 383 690Q414 690 436 668Q458 646 458 615M378 227L378 500L528 500L528 0L378 0L378 47Q333-14 235-14Q155-14 101 41Q48 97 48 193L48 500L198 500L198 215Q198 172 222 148Q246 124 285 124Q329 124 353.50 150.50Q378 177 378 227Z"  horiz-adv-x="583" vert-adv-y="1000"  />

      
      <glyph glyph-name="unifd" unicode="&#xfd;" d="M256 700L436 700L320 560L176 560L256 700M276 194L370 500L530 500L359 15Q317-102 248.50-153.50Q180-205 74-200L74-60Q126-60 154-41.50Q182-23 199 23L0 500L165 500L276 194Z"  horiz-adv-x="530" vert-adv-y="1000"  />

      
      <glyph glyph-name="unife" unicode="&#xfe;" d="M354 514Q452 514 523 437Q593 361 593 250Q593 138 523 62Q453-14 354-14Q257-14 205 47L205-200L55-200L55 700L205 700L205 453Q257 514 354 514M238 161Q272 128 324 128Q376 128 409 161Q443 194 443 250Q443 306 409 339Q376 372 324 372Q272 372 238 339Q205 306 205 250Q205 194 238 161Z"  horiz-adv-x="623" vert-adv-y="1000"  />

      
      <glyph glyph-name="uniff" unicode="&#xff;" d="M246 615Q246 615 246 599.50Q246 584 224 562Q202 540 171 540Q140 540 118 562Q96 584 96 615Q96 646 118 668Q140 690 171 690Q202 690 224 668Q246 646 246 615M436 615Q436 615 436 599.50Q436 584 414 562Q392 540 361 540Q330 540 308 562Q286 584 286 615Q286 646 308 668Q330 690 361 690Q392 690 414 668Q436 646 436 615M276 194L370 500L530 500L359 15Q317-102 248.50-153.50Q180-205 74-200L74-60Q126-60 154-41.50Q182-23 199 23L0 500L165 500L276 194Z"  horiz-adv-x="530" vert-adv-y="1000"  />

      
      <glyph glyph-name="uni0100" unicode="&#x0100;" d="M190 879L490 879L490 759L190 759L190 879M680 0L505 0L470 110L210 110L175 0L0 0L238 700L442 700L680 0M340 517L258 260L422 260L340 517Z"  horiz-adv-x="680" vert-adv-y="1000"  />

      
      <glyph glyph-name="uni0101" unicode="&#x0101;" d="M160 679L460 679L460 559L160 559L160 679M418 453L418 500L568 500L568 0L418 0L418 47Q366-14 269-14Q170-14 100 62Q30 138 30 250Q30 361 100 437Q171 514 269 514Q366 514 418 453M180 250Q180 250 180 222Q180 194 213 161Q246 128 299 128Q352 128 385 161Q418 194 418 250Q418 306 385 339Q352 372 299 372Q246 372 213 339Q180 306 180 250Z"  horiz-adv-x="623" vert-adv-y="1000"  />

      
      <glyph glyph-name="uni0102" unicode="&#x0102;" d="M165 892L297 892Q297 846 340 846Q383 846 383 892L515 892Q515 820 469.50 781Q424 742 340 742Q256 742 210.50 781Q165 820 165 892M680 0L505 0L470 110L210 110L175 0L0 0L238 700L442 700L680 0M340 517L258 260L422 260L340 517Z"  horiz-adv-x="680" vert-adv-y="1000"  />

      
      <glyph glyph-name="uni0103" unicode="&#x0103;" d="M135 692L267 692Q267 646 310 646Q353 646 353 692L485 692Q485 620 439.50 581Q394 542 310 542Q226 542 180.50 581Q135 620 135 692M418 453L418 500L568 500L568 0L418 0L418 47Q366-14 269-14Q170-14 100 62Q30 138 30 250Q30 361 100 437Q171 514 269 514Q366 514 418 453M180 250Q180 250 180 222Q180 194 213 161Q246 128 299 128Q352 128 385 161Q418 194 418 250Q418 306 385 339Q352 372 299 372Q246 372 213 339Q180 306 180 250Z"  horiz-adv-x="623" vert-adv-y="1000"  />

      
      <glyph glyph-name="uni0104" unicode="&#x0104;" d="M657-111Q662-112 680-107L680-197Q637-214 592-214Q546-214 519-190.50Q492-167 492-123Q492-67 556 0L505 0L470 110L210 110L175 0L0 0L238 700L442 700L680 0Q635-50 635-85Q633-111 657-111M340 517L258 260L422 260L340 517Z"  horiz-adv-x="680" vert-adv-y="1000"  />

      
      <glyph glyph-name="uni0105" unicode="&#x0105;" d="M568 500L568 0Q523-50 523-85Q521-111 545-111Q550-112 568-107L568-197Q525-214 480-214Q434-214 407-190.50Q380-167 380-123Q380-67 444 0L418 0L418 47Q366-14 269-14Q170-14 100 62Q30 138 30 250Q30 361 100 437Q171 514 269 514Q366 514 418 453L418 500L568 500M180 250Q180 250 180 222Q180 194 213 161Q246 128 299 128Q352 128 385 161Q418 194 418 250Q418 306 385 339Q352 372 299 372Q246 372 213 339Q180 306 180 250Z"  horiz-adv-x="623" vert-adv-y="1000"  />

      
      <glyph glyph-name="uni0106" unicode="&#x0106;" d="M304 770L384 910L564 910L448 770L304 770M394-14Q489-14 569 29.50Q649 73 694 148L556 228Q534 188 490.50 165Q447 142 394 142Q300 142 245 199Q190 255 190 350Q190 445 245 501Q300 558 394 558Q448 558 490.50 535.50Q533 513 556 472L694 552Q648 627 568 670.50Q488 714 394 714Q236 714 133 609Q30 506 30 350Q30 194 133 90Q237-14 394-14Z"  horiz-adv-x="719" vert-adv-y="1000"  />

      
      <glyph glyph-name="uni0107" unicode="&#x0107;" d="M207 560L287 700L467 700L351 560L207 560M295-14Q367-14 427.50 20.50Q488 55 521 115L390 190Q364 134 293 134Q244 134 212 166.50Q180 199 180 250Q180 301 212 333.50Q244 366 293 366Q363 366 390 310L521 386Q488 444 427 479Q366 514 295 514Q181 514 105 438Q30 362 30 250Q30 138 105 62Q181-14 295-14Z"  horiz-adv-x="531" vert-adv-y="1000"  />

      
      <glyph glyph-name="uni010A" unicode="&#x010A;" d="M453 780Q428 755 394 755Q360 755 334 780Q309 806 309 840Q309 874 334 899Q360 925 394 925Q428 925 453 899Q479 874 479 840Q479 806 453 780M394-14Q237-14 133 90Q30 194 30 350Q30 506 133 609Q236 714 394 714Q488 714 568 670.50Q648 627 694 552L556 472Q533 513 490.50 535.50Q448 558 394 558Q300 558 245 501Q190 445 190 350Q190 255 245 199Q300 142 394 142Q447 142 490.50 165Q534 188 556 228L694 148Q649 73 569 29.50Q489-14 394-14Z"  horiz-adv-x="719" vert-adv-y="1000"  />

      
      <glyph glyph-name="uni010B" unicode="&#x010B;" d="M357 570Q332 545 297 545Q262 545 237 570Q212 596 212 630Q212 664 237 689Q262 715 297 715Q332 715 357 689Q382 664 382 630Q382 596 357 570M295-14Q181-14 105 62Q30 138 30 250Q30 362 105 438Q181 514 295 514Q366 514 427 479Q488 444 521 386L390 310Q363 366 293 366Q244 366 212 333.50Q180 301 180 250Q180 199 212 166.50Q244 134 293 134Q364 134 390 190L521 115Q488 55 427.50 20.50Q367-14 295-14Z"  horiz-adv-x="531" vert-adv-y="1000"  />

      
      <glyph glyph-name="uni010C" unicode="&#x010C;" d="M463 760L315 760L209 910L354 910L389 855L424 910L569 910L463 760M394 142Q447 142 490.50 165Q534 188 556 228L694 148Q649 73 569 29.50Q489-14 394-14Q237-14 133 90Q30 194 30 350Q30 506 133 609Q236 714 394 714Q488 714 568 670.50Q648 627 694 552L556 472Q533 513 490.50 535.50Q448 558 394 558Q300 558 245 501Q190 445 190 350Q190 255 245 199Q300 142 394 142Z"  horiz-adv-x="719" vert-adv-y="1000"  />

      
      <glyph glyph-name="uni010D" unicode="&#x010D;" d="M366 550L218 550L112 700L257 700L292 645L327 700L472 700L366 550M293 134Q364 134 390 190L521 115Q488 55 427.50 20.50Q367-14 295-14Q181-14 105 62Q30 138 30 250Q30 362 105 438Q181 514 295 514Q366 514 427 479Q488 444 521 386L390 310Q363 366 293 366Q244 366 212 333.50Q180 301 180 250Q180 199 212 166.50Q244 134 293 134Z"  horiz-adv-x="531" vert-adv-y="1000"  />

      
      <glyph glyph-name="uni010E" unicode="&#x010E;" d="M399 750L251 750L145 900L290 900L325 845L360 900L505 900L399 750M60 700L340 700Q484 700 582 599Q680 498 680 350Q680 201 582 100Q485 0 340 0L60 0L60 700M220 154L340 154Q423 154 474 207Q526 260 526 350Q526 440 474 492Q423 546 340 546L220 546L220 154Z"  horiz-adv-x="710" vert-adv-y="1000"  />

      
      <glyph glyph-name="uni010F" unicode="&#x010F;" d="M418 453L418 700L568 700L568 0L418 0L418 47Q366-14 269-14Q170-14 100 62Q30 138 30 250Q30 361 100 437Q171 514 269 514Q366 514 418 453M606 490L616 700L756 700L726 490L606 490M180 250Q180 250 180 222Q180 194 213 161Q246 128 299 128Q352 128 385 161Q418 194 418 250Q418 306 385 339Q352 372 299 372Q246 372 213 339Q180 306 180 250Z"  horiz-adv-x="746" vert-adv-y="1000"  />

      
      <glyph glyph-name="uni0110" unicode="&#x0110;" d="M100 700L380 700Q524 700 622 599Q720 498 720 350Q720 201 622 100Q525 0 380 0L100 0L100 268L20 268L20 412L100 412L100 700M260 154L380 154Q463 154 514 207Q566 260 566 350Q566 440 514 492Q463 546 380 546L260 546L260 412L400 412L400 268L260 268L260 154Z"  horiz-adv-x="750" vert-adv-y="1000"  />

      
      <glyph glyph-name="uni0111" unicode="&#x0111;" d="M568 640L628 640L628 546L568 546L568 0L418 0L418 47Q366-14 269-14Q170-14 100 62Q30 138 30 250Q30 361 100 437Q171 514 269 514Q366 514 418 453L418 546L278 546L278 640L418 640L418 700L568 700L568 640M180 250Q180 250 180 222Q180 194 213 161Q246 128 299 128Q352 128 385 161Q418 194 418 250Q418 306 385 339Q352 372 299 372Q246 372 213 339Q180 306 180 250Z"  horiz-adv-x="628" vert-adv-y="1000"  />

      
      <glyph glyph-name="uni0112" unicode="&#x0112;" d="M128 879L428 879L428 759L128 759L128 879M220 278L220 154L500 154L500 0L60 0L60 700L495 700L495 546L220 546L220 430L470 430L470 278L220 278Z"  horiz-adv-x="530" vert-adv-y="1000"  />

      
      <glyph glyph-name="uni0113" unicode="&#x0113;" d="M140 684L440 684L440 564L140 564L140 684M544 190L189 190Q214 120 309 120Q370 120 405 158L525 89Q452-14 307-14Q182-14 105 61Q30 136 30 250Q30 362 104 438Q179 514 296 514Q405 514 477 438Q550 364 550 250Q550 218 544 190M186 302L401 302Q379 381 295 381Q208 381 186 302Z"  horiz-adv-x="580" vert-adv-y="1000"  />

      
      <glyph glyph-name="uni0116" unicode="&#x0116;" d="M337 770Q312 745 278 745Q244 745 218 770Q193 796 193 830Q193 864 218 889Q244 915 278 915Q312 915 337 889Q363 864 363 830Q363 796 337 770M220 278L220 154L500 154L500 0L60 0L60 700L495 700L495 546L220 546L220 430L470 430L470 278L220 278Z"  horiz-adv-x="530" vert-adv-y="1000"  />

      
      <glyph glyph-name="uni0117" unicode="&#x0117;" d="M349 575Q324 550 290 550Q256 550 230 575Q205 600 205 635Q205 670 230 695Q256 720 290 720Q324 720 349 695Q375 670 375 635Q375 600 349 575M544 190L189 190Q214 120 309 120Q370 120 405 158L525 89Q452-14 307-14Q182-14 105 61Q30 136 30 250Q30 362 104 438Q179 514 296 514Q405 514 477 438Q550 364 550 250Q550 218 544 190M186 302L401 302Q379 381 295 381Q208 381 186 302Z"  horiz-adv-x="580" vert-adv-y="1000"  />

      
      <glyph glyph-name="uni0118" unicode="&#x0118;" d="M500 154L500 0Q455-50 455-85Q453-111 477-111Q482-112 500-107L500-197Q457-214 412-214Q366-214 339-190.50Q312-167 312-123Q312-67 376 0L60 0L60 700L495 700L495 546L220 546L220 430L470 430L470 278L220 278L220 154L500 154Z"  horiz-adv-x="530" vert-adv-y="1000"  />

      
      <glyph glyph-name="uni0119" unicode="&#x0119;" d="M544 190L189 190Q214 120 309 120Q370 120 405 158L525 89Q511 69 489 49Q415-31 415-85Q415-111 437-111Q442-112 460-107L460-197Q417-214 372-214Q326-214 299-190.50Q272-167 272-123Q272-65 339-13Q332-14 307-14Q182-14 105 61Q30 136 30 250Q30 362 104 438Q179 514 296 514Q405 514 477 438Q550 364 550 250Q550 218 544 190M186 302L401 302Q379 381 295 381Q208 381 186 302Z"  horiz-adv-x="580" vert-adv-y="1000"  />

      
      <glyph glyph-name="uni011A" unicode="&#x011A;" d="M347 750L199 750L93 900L238 900L273 845L308 900L453 900L347 750M220 278L220 154L500 154L500 0L60 0L60 700L495 700L495 546L220 546L220 430L470 430L470 278L220 278Z"  horiz-adv-x="530" vert-adv-y="1000"  />

      
      <glyph glyph-name="uni011B" unicode="&#x011B;" d="M359 555L211 555L105 705L250 705L285 650L320 705L465 705L359 555M544 190L189 190Q214 120 309 120Q370 120 405 158L525 89Q452-14 307-14Q182-14 105 61Q30 136 30 250Q30 362 104 438Q179 514 296 514Q405 514 477 438Q550 364 550 250Q550 218 544 190M186 302L401 302Q379 381 295 381Q208 381 186 302Z"  horiz-adv-x="580" vert-adv-y="1000"  />

      
      <glyph glyph-name="uni011E" unicode="&#x011E;" d="M224 902L356 902Q356 856 399 856Q442 856 442 902L574 902Q574 830 528.50 791Q483 752 399 752Q315 752 269.50 791Q224 830 224 902M402 390L753 390L753 330Q753 174 655 79Q558-14 408-14Q245-14 137 91Q30 196 30 349Q30 502 136 608Q242 714 397 714Q494 714 575.50 670.50Q657 627 703 554L567 476Q543 513 497.50 535.50Q452 558 396 558Q307 558 248 499Q190 441 190 348Q190 258 250 199Q310 142 410 142Q548 142 589 250L402 250L402 390Z"  horiz-adv-x="783" vert-adv-y="1000"  />

      
      <glyph glyph-name="uni011F" unicode="&#x011F;" d="M118 702L250 702Q250 656 293 656Q336 656 336 702L468 702Q468 630 422.50 591Q377 552 293 552Q209 552 163.50 591Q118 630 118 702M422 449L422 500L568 500L568 25Q568-93 491-153Q415-214 304-214Q134-214 67-93L195-19Q230-82 309-82Q363-82 392.50-54Q422-26 422 25L422 71Q369 6 276 6Q171 6 100 80Q30 154 30 260Q30 366 100 439Q170 514 276 514Q369 514 422 449M214 176Q249 144 301 144Q353 144 388 176Q422 207 422 260Q422 313 388 344Q353 376 301 376Q249 376 214 344Q180 313 180 260Q180 207 214 176Z"  horiz-adv-x="623" vert-adv-y="1000"  />

      
      <glyph glyph-name="uni0120" unicode="&#x0120;" d="M459 780Q434 755 399 755Q364 755 339 780Q314 806 314 840Q314 874 339 899Q364 925 399 925Q434 925 459 899Q484 874 484 840Q484 806 459 780M402 390L753 390L753 330Q753 174 655 79Q558-14 408-14Q245-14 137 91Q30 196 30 349Q30 502 136 608Q242 714 397 714Q494 714 575.50 670.50Q657 627 703 554L567 476Q543 513 497.50 535.50Q452 558 396 558Q307 558 248 499Q190 441 190 348Q190 258 250 199Q310 142 410 142Q548 142 589 250L402 250L402 390Z"  horiz-adv-x="783" vert-adv-y="1000"  />

      
      <glyph glyph-name="uni0121" unicode="&#x0121;" d="M353 580Q328 555 293 555Q258 555 233 580Q208 606 208 640Q208 674 233 699Q258 725 293 725Q328 725 353 699Q378 674 378 640Q378 606 353 580M422 449L422 500L568 500L568 25Q568-93 491-153Q415-214 304-214Q134-214 67-93L195-19Q230-82 309-82Q363-82 392.50-54Q422-26 422 25L422 71Q369 6 276 6Q171 6 100 80Q30 154 30 260Q30 366 100 439Q170 514 276 514Q369 514 422 449M214 176Q249 144 301 144Q353 144 388 176Q422 207 422 260Q422 313 388 344Q353 376 301 376Q249 376 214 344Q180 313 180 260Q180 207 214 176Z"  horiz-adv-x="623" vert-adv-y="1000"  />

      
      <glyph glyph-name="uni0122" unicode="&#x0122;" d="M402 390L753 390L753 330Q753 174 655 79Q558-14 408-14Q245-14 137 91Q30 196 30 349Q30 502 136 608Q242 714 397 714Q494 714 575.50 670.50Q657 627 703 554L567 476Q543 513 497.50 535.50Q452 558 396 558Q307 558 248 499Q190 441 190 348Q190 258 250 199Q310 142 410 142Q548 142 589 250L402 250L402 390M447-270L327-270L337-60L477-60L447-270Z"  horiz-adv-x="783" vert-adv-y="1000"  />

      
      <glyph glyph-name="uni0123" unicode="&#x0123;" d="M246 790L366 790L356 580L216 580L246 790M422 449L422 500L568 500L568 25Q568-93 491-153Q415-214 304-214Q134-214 67-93L195-19Q230-82 309-82Q363-82 392.50-54Q422-26 422 25L422 71Q369 6 276 6Q171 6 100 80Q30 154 30 260Q30 366 100 439Q170 514 276 514Q369 514 422 449M214 176Q249 144 301 144Q353 144 388 176Q422 207 422 260Q422 313 388 344Q353 376 301 376Q249 376 214 344Q180 313 180 260Q180 207 214 176Z"  horiz-adv-x="623" vert-adv-y="1000"  />

      
      <glyph glyph-name="uni0126" unicode="&#x0126;" d="M620 613L680 613L680 497L620 497L620 0L460 0L460 253L240 253L240 0L80 0L80 497L20 497L20 613L80 613L80 700L240 700L240 613L460 613L460 700L620 700L620 613M240 407L460 407L460 497L240 497L240 407Z"  horiz-adv-x="700" vert-adv-y="1000"  />

      
      <glyph glyph-name="uni0127" unicode="&#x0127;" d="M353 514Q434 514 486 459Q540 403 540 307L540 0L390 0L390 285Q390 328 366 352Q342 376 303 376Q259 376 234.50 349.50Q210 323 210 273L210 0L60 0L60 546L0 546L0 640L60 640L60 700L210 700L210 640L350 640L350 546L210 546L210 453Q255 514 353 514Z"  horiz-adv-x="588" vert-adv-y="1000"  />

      
      <glyph glyph-name="uni012A" unicode="&#x012A;" d="M290 759L-10 759L-10 879L290 879L290 759M60 0L60 700L220 700L220 0L60 0Z"  horiz-adv-x="280" vert-adv-y="1000"  />

      
      <glyph glyph-name="uni012B" unicode="&#x012B;" d="M250 559L10 559L10 689L250 689L250 559M205 0L55 0L55 500L205 500L205 0Z"  horiz-adv-x="260" vert-adv-y="1000"  />

      
      <glyph glyph-name="uni012E" unicode="&#x012E;" d="M212-111Q217-112 235-107L235-197Q192-214 147-214Q101-214 74-190.50Q47-167 47-123Q47-64 96 0L60 0L60 700L220 700L220 0Q190-46 190-85Q188-111 212-111Z"  horiz-adv-x="280" vert-adv-y="1000"  />

      
      <glyph glyph-name="uni012F" unicode="&#x012F;" d="M193 570Q167 544 130 544Q93 544 66 570Q40 597 40 634Q40 671 66 697Q93 724 130 724Q167 724 193 697Q220 671 220 634Q220 597 193 570M195-111Q200-112 218-107L218-197Q175-214 130-214Q84-214 57-190.50Q30-167 30-123Q30-65 76 0L55 0L55 500L205 500L205 0Q173-53 173-85Q171-111 195-111Z"  horiz-adv-x="260" vert-adv-y="1000"  />

      
      <glyph glyph-name="uni0130" unicode="&#x0130;" d="M199 770Q174 745 140 745Q106 745 80 770Q55 796 55 830Q55 864 80 889Q106 915 140 915Q174 915 199 889Q225 864 225 830Q225 796 199 770M60 0L60 700L220 700L220 0L60 0Z"  horiz-adv-x="280" vert-adv-y="1000"  />

      
      <glyph glyph-name="uni0131" unicode="&#x0131;" d="M205 0L55 0L55 500L205 500L205 0Z"  horiz-adv-x="260" vert-adv-y="1000"  />

      
      <glyph glyph-name="uni0136" unicode="&#x0136;" d="M616 700L380 359L626 0L444 0L220 324L220 0L60 0L60 700L220 700L220 396L434 700L616 700M355-270L235-270L245-60L385-60L355-270Z"  horiz-adv-x="626" vert-adv-y="1000"  />

      
      <glyph glyph-name="uni0137" unicode="&#x0137;" d="M530 500L348 250L535 0L365 0L205 221L205 0L55 0L55 700L205 700L205 281L355 500L530 500M333-270L213-270L223-60L363-60L333-270Z"  horiz-adv-x="535" vert-adv-y="1000"  />

      
      <glyph glyph-name="uni0139" unicode="&#x0139;" d="M142 900L322 900L206 760L62 760L142 900M220 700L220 154L470 154L470 0L60 0L60 700L220 700Z"  horiz-adv-x="480" vert-adv-y="1000"  />

      
      <glyph glyph-name="uni013A" unicode="&#x013A;" d="M52 760L132 900L312 900L196 760L52 760M55 0L205 0L205 730L55 730L55 0Z"  horiz-adv-x="260" vert-adv-y="1000"  />

      
      <glyph glyph-name="uni013B" unicode="&#x013B;" d="M220 700L220 154L470 154L470 0L60 0L60 700L220 700M318-270L198-270L208-60L348-60L318-270Z"  horiz-adv-x="480" vert-adv-y="1000"  />

      
      <glyph glyph-name="uni013C" unicode="&#x013C;" d="M205 0L55 0L55 730L205 730L205 0M173-270L53-270L63-60L203-60L173-270Z"  horiz-adv-x="260" vert-adv-y="1000"  />

      
      <glyph glyph-name="uni013D" unicode="&#x013D;" d="M220 700L220 154L470 154L470 0L60 0L60 700L220 700M281 700L431 700L401 510L271 510L281 700Z"  horiz-adv-x="480" vert-adv-y="1000"  />

      
      <glyph glyph-name="uni013E" unicode="&#x013E;" d="M205 0L55 0L55 730L205 730L205 0M361 520L241 520L251 730L391 730L361 520Z"  horiz-adv-x="381" vert-adv-y="1000"  />

      
      <glyph glyph-name="uni0141" unicode="&#x0141;" d="M240 294L240 154L490 154L490 0L80 0L80 199L20 163L20 326L80 362L80 700L240 700L240 457L360 529L360 366L240 294Z"  horiz-adv-x="500" vert-adv-y="1000"  />

      
      <glyph glyph-name="uni0142" unicode="&#x0142;" d="M210 466L260 500L260 357L210 323L210 0L60 0L60 220L10 186L10 329L60 363L60 730L210 730L210 466Z"  horiz-adv-x="270" vert-adv-y="1000"  />

      
      <glyph glyph-name="uni0143" unicode="&#x0143;" d="M235 760L315 900L495 900L379 760L235 760M450 700L450 320L180 700L60 700L60 0L220 0L220 380L490 0L610 0L610 700L450 700Z"  horiz-adv-x="670" vert-adv-y="1000"  />

      
      <glyph glyph-name="uni0144" unicode="&#x0144;" d="M291 710L471 710L355 570L211 570L291 710M348 514Q429 514 481 459Q535 403 535 307L535 0L385 0L385 285Q385 328 361 352Q337 376 298 376Q254 376 229.50 349.50Q205 323 205 273L205 0L55 0L55 500L205 500L205 453Q250 514 348 514Z"  horiz-adv-x="583" vert-adv-y="1000"  />

      
      <glyph glyph-name="uni0145" unicode="&#x0145;" d="M450 320L450 700L610 700L610 0L490 0L220 380L220 0L60 0L60 700L180 700L450 320M383-270L263-270L273-60L413-60L383-270Z"  horiz-adv-x="670" vert-adv-y="1000"  />

      
      <glyph glyph-name="uni0146" unicode="&#x0146;" d="M348 514Q429 514 481 459Q535 403 535 307L535 0L385 0L385 285Q385 328 361 352Q337 376 298 376Q254 376 229.50 349.50Q205 323 205 273L205 0L55 0L55 500L205 500L205 453Q250 514 348 514M341-270L221-270L231-60L371-60L341-270Z"  horiz-adv-x="583" vert-adv-y="1000"  />

      
      <glyph glyph-name="uni0147" unicode="&#x0147;" d="M394 750L246 750L140 900L285 900L320 845L355 900L500 900L394 750M450 320L450 700L610 700L610 0L490 0L220 380L220 0L60 0L60 700L180 700L450 320Z"  horiz-adv-x="670" vert-adv-y="1000"  />

      
      <glyph glyph-name="uni0148" unicode="&#x0148;" d="M370 560L222 560L116 710L261 710L296 655L331 710L476 710L370 560M348 514Q429 514 481 459Q535 403 535 307L535 0L385 0L385 285Q385 328 361 352Q337 376 298 376Q254 376 229.50 349.50Q205 323 205 273L205 0L55 0L55 500L205 500L205 453Q250 514 348 514Z"  horiz-adv-x="583" vert-adv-y="1000"  />

      
      <glyph glyph-name="uni014A" unicode="&#x014A;" d="M450 320L450 700L610 700L610 0Q610-101 547.50-154Q485-207 370-200L370-55Q412-55 431-40Q450-25 450 10L450 56L220 380L220 0L60 0L60 700L180 700L450 320Z"  horiz-adv-x="670" vert-adv-y="1000"  />

      
      <glyph glyph-name="uni014B" unicode="&#x014B;" d="M348 514Q429 514 481 459Q535 403 535 307L535 0Q535-110 480-165.50Q425-221 315-214L315-70Q350-74 367.50-57.50Q385-41 385 0L385 285Q385 328 361 352Q337 376 298 376Q254 376 229.50 349.50Q205 323 205 273L205 0L55 0L55 500L205 500L205 453Q250 514 348 514Z"  horiz-adv-x="583" vert-adv-y="1000"  />

      
      <glyph glyph-name="uni014C" unicode="&#x014C;" d="M544 769L244 769L244 889L544 889L544 769M652 91Q546-14 394-14Q242-14 136 91Q30 196 30 350Q30 504 136 609Q242 714 394 714Q546 714 652 609Q758 504 758 350Q758 196 652 91M190 350Q190 350 190 304Q190 258 248 200Q306 142 394 142Q481 142 539 200Q598 259 598 350Q598 441 539 500Q481 558 394 558Q306 558 248 500Q190 442 190 350Z"  horiz-adv-x="788" vert-adv-y="1000"  />

      
      <glyph glyph-name="uni014D" unicode="&#x014D;" d="M445 569L145 569L145 689L445 689L445 569M483 62Q407-14 295-14Q183-14 107 62Q30 139 30 250Q30 360 107 437Q184 514 295 514Q406 514 483 437Q560 360 560 250Q560 139 483 62M180 250Q180 250 180 224Q180 198 213 165Q246 132 295 132Q344 132 377 165Q410 198 410 250Q410 302 377 335Q344 368 295 368Q246 368 213 335Q180 302 180 250Z"  horiz-adv-x="590" vert-adv-y="1000"  />

      
      <glyph glyph-name="uni0150" unicode="&#x0150;" d="M204 760L284 900L438 900L352 760L204 760M387 760L477 900L631 900L535 760L387 760M652 91Q758 196 758 350Q758 504 652 609Q546 714 394 714Q242 714 136 609Q30 504 30 350Q30 196 136 91Q242-14 394-14Q546-14 652 91M394 142Q306 142 248 200Q190 258 190 350Q190 442 248 500Q306 558 394 558Q481 558 539 500Q598 441 598 350Q598 259 539 200Q481 142 394 142Z"  horiz-adv-x="788" vert-adv-y="1000"  />

      
      <glyph glyph-name="uni0151" unicode="&#x0151;" d="M105 560L185 700L339 700L253 560L105 560M288 560L378 700L532 700L436 560L288 560M483 62Q560 139 560 250Q560 360 483 437Q406 514 295 514Q184 514 107 437Q30 360 30 250Q30 139 107 62Q183-14 295-14Q407-14 483 62M295 132Q295 132 270.50 132Q246 132 213 165Q180 198 180 250Q180 302 213 335Q246 368 295 368Q344 368 377 335Q410 302 410 250Q410 198 377 165Q344 132 295 132Z"  horiz-adv-x="590" vert-adv-y="1000"  />

      
      <glyph glyph-name="uni0152" unicode="&#x0152;" d="M646 278L646 154L886 154L886 0L486 0Q435-14 384-14Q233-14 131 90Q30 196 30 350Q30 505 131 609Q233 714 384 714Q435 714 486 700L881 700L881 546L646 546L646 430L856 430L856 278L646 278M486 157L486 543Q446 558 384 558Q298 558 244 500Q190 443 190 350Q190 258 244 199Q298 142 384 142Q446 142 486 157Z"  horiz-adv-x="916" vert-adv-y="1000"  />

      
      <glyph glyph-name="uni0153" unicode="&#x0153;" d="M924 190L569 190Q596 120 684 120Q750 120 785 158L905 89Q832-14 687-14Q552-14 484 87Q416-14 290-14Q180-14 105 62Q30 138 30 250Q30 362 105 438Q180 514 290 514Q416 514 484 413Q549 514 683 514Q792 514 861 439Q930 364 930 250Q930 218 924 190M566 304L781 304Q758 381 677 381Q592 381 566 304M180 250Q180 250 180 224Q180 198 213 165Q246 132 295 132Q344 132 377 165Q410 198 410 250Q410 302 377 335Q344 368 295 368Q246 368 213 335Q180 302 180 250Z"  horiz-adv-x="960" vert-adv-y="1000"  />

      
      <glyph glyph-name="uni0154" unicode="&#x0154;" d="M280 900L460 900L344 760L200 760L280 900M600 0L428 0L296 230L220 230L220 0L60 0L60 700L340 700Q440 700 510 630Q580 560 580 460Q580 397 544.50 342Q509 287 451 257L600 0M340 550L220 550L220 370L340 370Q373 370 396.50 396Q420 422 420 460Q420 498 396.50 524Q373 550 340 550Z"  horiz-adv-x="615" vert-adv-y="1000"  />

      
      <glyph glyph-name="uni0155" unicode="&#x0155;" d="M187 700L367 700L251 560L107 560L187 700M205 500L205 411Q219 458 260.50 484Q302 510 355 510L355 340Q299 349 252 321Q205 294 205 226L205 0L55 0L55 500L205 500Z"  horiz-adv-x="370" vert-adv-y="1000"  />

      
      <glyph glyph-name="uni0156" unicode="&#x0156;" d="M451 257L600 0L428 0L296 230L220 230L220 0L60 0L60 700L340 700Q440 700 510 630Q580 560 580 460Q580 397 544.50 342Q509 287 451 257M340 550L220 550L220 370L340 370Q373 370 396.50 396Q420 422 420 460Q420 498 396.50 524Q373 550 340 550M368-270L248-270L258-60L398-60L368-270Z"  horiz-adv-x="615" vert-adv-y="1000"  />

      
      <glyph glyph-name="uni0157" unicode="&#x0157;" d="M205 500L205 411Q219 458 260.50 484Q302 510 355 510L355 340Q299 349 252 321Q205 294 205 226L205 0L55 0L55 500L205 500M174-270L54-270L64-60L204-60L174-270Z"  horiz-adv-x="370" vert-adv-y="1000"  />

      
      <glyph glyph-name="uni0158" unicode="&#x0158;" d="M359 750L211 750L105 900L250 900L285 845L320 900L465 900L359 750M600 0L428 0L296 230L220 230L220 0L60 0L60 700L340 700Q440 700 510 630Q580 560 580 460Q580 397 544.50 342Q509 287 451 257L600 0M340 550L220 550L220 370L340 370Q373 370 396.50 396Q420 422 420 460Q420 498 396.50 524Q373 550 340 550Z"  horiz-adv-x="615" vert-adv-y="1000"  />

      
      <glyph glyph-name="uni0159" unicode="&#x0159;" d="M266 550L118 550L12 700L157 700L192 645L227 700L372 700L266 550M205 500L205 411Q219 458 260.50 484Q302 510 355 510L355 340Q299 349 252 321Q205 294 205 226L205 0L55 0L55 500L205 500Z"  horiz-adv-x="370" vert-adv-y="1000"  />

      
      <glyph glyph-name="uni015A" unicode="&#x015A;" d="M206 770L286 910L466 910L350 770L206 770M305-14Q421-14 493 43Q565 101 565 201Q565 279 517 331Q499 352 463 370Q430 389 405 397L340 418Q264 440 238 460Q214 480 214 505Q214 528 234 543Q254 558 289 558Q372 558 410 477L545 556Q507 633 441 673.50Q375 714 289 714Q193 714 123 656Q54 598 54 501Q54 406 118 354Q176 311 260 288Q342 266 374 247Q405 231 405 199Q405 142 310 142Q205 142 163 239L25 159Q56 77 128 31.50Q200-14 305-14Z"  horiz-adv-x="585" vert-adv-y="1000"  />

      
      <glyph glyph-name="uni015B" unicode="&#x015B;" d="M222 710L402 710L286 570L142 570L222 710M197 354Q197 341 218 331.50Q239 322 284 310Q444 275 443 150Q443 69 383 27Q322-14 235-14Q77-14 20 105L150 179Q170 120 235 120Q289 120 289 151Q289 173 202 195Q170 204 147 213.50Q124 223 97.50 240.50Q71 258 57 286Q43 314 43 350Q43 427 99 471Q155 514 239 514Q370 514 434 407L306 338Q282 382 239 382Q197 382 197 354Z"  horiz-adv-x="468" vert-adv-y="1000"  />

      
      <glyph glyph-name="uni015E" unicode="&#x015E;" d="M565 201Q565 118 513 62.50Q461 7 371-9L371-46Q398-53 416-72.50Q434-92 434-123Q434-230 209-216L209-112Q304-120 304-98Q304-83 251-78L251-11Q81 13 25 159L163 239Q205 142 310 142Q405 142 405 199Q405 231 374 247Q342 266 260 288Q176 311 118 354Q54 406 54 501Q54 598 123 656Q193 714 289 714Q375 714 441 673.50Q507 633 545 556L410 477Q372 558 289 558Q254 558 234 543Q214 528 214 505Q214 480 238 460Q264 440 340 418L405 397Q430 389 463 370Q499 352 517 331Q565 279 565 201Z"  horiz-adv-x="585" vert-adv-y="1000"  />

      
      <glyph glyph-name="uni015F" unicode="&#x015F;" d="M443 150Q443 89 407.50 49Q372 9 309-6L309-46Q336-53 354-72.50Q372-92 372-123Q372-230 147-216L147-112Q242-120 242-98Q242-83 189-78L189-11Q69 5 20 105L150 179Q170 120 235 120Q289 120 289 151Q289 173 202 195Q170 204 147 213.50Q124 223 97.50 240.50Q71 258 57 286Q43 314 43 350Q43 427 99 471Q155 514 239 514Q370 514 434 407L306 338Q282 382 239 382Q197 382 197 354Q197 341 218 331.50Q239 322 284 310Q444 275 443 150Z"  horiz-adv-x="468" vert-adv-y="1000"  />

      
      <glyph glyph-name="uni0160" unicode="&#x0160;" d="M365 760L217 760L111 910L256 910L291 855L326 910L471 910L365 760M340 418L405 397Q430 389 463 370Q499 352 517 331Q565 279 565 201Q565 102 493 43Q421-14 305-14Q200-14 128 31.50Q56 77 25 159L163 239Q205 142 310 142Q405 142 405 199Q405 231 374 247Q342 266 260 288Q176 311 118 354Q54 406 54 501Q54 598 123 656Q193 714 289 714Q375 714 441 673.50Q507 633 545 556L410 477Q372 558 289 558Q254 558 234 543Q214 528 214 505Q214 480 238 460Q264 440 340 418Z"  horiz-adv-x="585" vert-adv-y="1000"  />

      
      <glyph glyph-name="uni0161" unicode="&#x0161;" d="M301 560L153 560L47 710L192 710L227 655L262 710L407 710L301 560M197 354Q197 341 218 331.50Q239 322 284 310Q444 275 443 150Q443 69 383 27Q322-14 235-14Q77-14 20 105L150 179Q170 120 235 120Q289 120 289 151Q289 173 202 195Q170 204 147 213.50Q124 223 97.50 240.50Q71 258 57 286Q43 314 43 350Q43 427 99 471Q155 514 239 514Q370 514 434 407L306 338Q282 382 239 382Q197 382 197 354Z"  horiz-adv-x="468" vert-adv-y="1000"  />

      
      <glyph glyph-name="uni0162" unicode="&#x0162;" d="M10 700L530 700L530 546L350 546L350 0L190 0L190 546L10 546L10 700M318-270L198-270L208-60L348-60L318-270Z"  horiz-adv-x="540" vert-adv-y="1000"  />

      
      <glyph glyph-name="uni0163" unicode="&#x0163;" d="M348 500L348 356L245 356L245 179Q245 150 268 141.50Q291 133 348 136L348 0Q206-15 150 27Q95 70 95 179L95 356L15 356L15 500L95 500L95 595L245 640L245 500L348 500M272-270L152-270L162-60L302-60L272-270Z"  horiz-adv-x="388" vert-adv-y="1000"  />

      
      <glyph glyph-name="uni0164" unicode="&#x0164;" d="M339 750L191 750L85 900L230 900L265 845L300 900L445 900L339 750M10 700L530 700L530 546L350 546L350 0L190 0L190 546L10 546L10 700Z"  horiz-adv-x="540" vert-adv-y="1000"  />

      
      <glyph glyph-name="uni0165" unicode="&#x0165;" d="M286 540L296 730L436 730L406 540L286 540M95 595L245 640L245 500L348 500L348 356L245 356L245 179Q245 150 268 141.50Q291 133 348 136L348 0Q206-15 150 27Q95 70 95 179L95 356L15 356L15 500L95 500L95 595Z"  horiz-adv-x="416" vert-adv-y="1000"  />

      
      <glyph glyph-name="uni0166" unicode="&#x0166;" d="M530 700L530 546L350 546L350 412L460 412L460 268L350 268L350 0L190 0L190 268L80 268L80 412L190 412L190 546L10 546L10 700L530 700Z"  horiz-adv-x="540" vert-adv-y="1000"  />

      
      <glyph glyph-name="uni0167" unicode="&#x0167;" d="M348 500L348 356L245 356L245 308L320 308L320 188L245 188L245 179Q245 150 268 141.50Q291 133 348 136L348 0Q206-15 150 27Q95 70 95 179L95 188L40 188L40 308L95 308L95 356L15 356L15 500L95 500L95 595L245 640L245 500L348 500Z"  horiz-adv-x="388" vert-adv-y="1000"  />

      
      <glyph glyph-name="uni016A" unicode="&#x016A;" d="M475 759L175 759L175 879L475 879L475 759M55 226L55 700L215 700L215 240Q215 142 325 142Q435 142 435 240L435 700L595 700L595 226Q595 115 519 51Q442-14 325-14Q208-14 131 51Q55 115 55 226Z"  horiz-adv-x="650" vert-adv-y="1000"  />

      
      <glyph glyph-name="uni016B" unicode="&#x016B;" d="M138 679L438 679L438 559L138 559L138 679M378 227L378 500L528 500L528 0L378 0L378 47Q333-14 235-14Q155-14 101 41Q48 97 48 193L48 500L198 500L198 215Q198 172 222 148Q246 124 285 124Q329 124 353.50 150.50Q378 177 378 227Z"  horiz-adv-x="583" vert-adv-y="1000"  />

      
      <glyph glyph-name="uni016E" unicode="&#x016E;" d="M325 705Q267 705 229.50 740.50Q192 776 192 830Q192 884 229.50 919.50Q267 955 325 955Q384 955 421 919.50Q458 884 458 830Q458 776 421 740.50Q384 705 325 705M299 805Q308 796 325 796Q342 796 351 805Q361 815 361 830Q361 845 351 854Q342 864 325 864Q308 864 299 854Q290 845 290 830Q290 815 299 805M55 226L55 700L215 700L215 240Q215 142 325 142Q435 142 435 240L435 700L595 700L595 226Q595 115 519 51Q442-14 325-14Q208-14 131 51Q55 115 55 226Z"  horiz-adv-x="650" vert-adv-y="1000"  />

      
      <glyph glyph-name="uni016F" unicode="&#x016F;" d="M288 535Q230 535 192.50 570.50Q155 606 155 660Q155 714 192.50 749.50Q230 785 288 785Q347 785 384 749.50Q421 714 421 660Q421 606 384 570.50Q347 535 288 535M314 684Q305 694 288 694Q271 694 262 684Q253 675 253 660Q253 645 262 635Q271 626 288 626Q305 626 314 635Q324 645 324 660Q324 675 314 684M378 227L378 500L528 500L528 0L378 0L378 47Q333-14 235-14Q155-14 101 41Q48 97 48 193L48 500L198 500L198 215Q198 172 222 148Q246 124 285 124Q329 124 353.50 150.50Q378 177 378 227Z"  horiz-adv-x="583" vert-adv-y="1000"  />

      
      <glyph glyph-name="uni0170" unicode="&#x0170;" d="M135 750L215 890L369 890L283 750L135 750M318 750L408 890L562 890L466 750L318 750M55 226Q55 115 131 51Q208-14 325-14Q442-14 519 51Q595 115 595 226L595 700L435 700L435 240Q435 142 325 142Q215 142 215 240L215 700L55 700L55 226Z"  horiz-adv-x="650" vert-adv-y="1000"  />

      
      <glyph glyph-name="uni0171" unicode="&#x0171;" d="M178 690L332 690L246 550L98 550L178 690M525 690L429 550L281 550L371 690L525 690M378 227L378 500L528 500L528 0L378 0L378 47Q333-14 235-14Q155-14 101 41Q48 97 48 193L48 500L198 500L198 215Q198 172 222 148Q246 124 285 124Q329 124 353.50 150.50Q378 177 378 227Z"  horiz-adv-x="583" vert-adv-y="1000"  />

      
      <glyph glyph-name="uni0172" unicode="&#x0172;" d="M435 240L435 700L595 700L595 226Q595 111 509 43Q462 0 443-28.50Q424-57 422-85Q420-108 444-111Q449-112 467-107L467-197Q424-214 379-214Q333-214 306-190.50Q279-167 279-123Q279-72 330-14L325-14Q208-14 131 51Q55 115 55 226L55 700L215 700L215 240Q215 142 325 142Q435 142 435 240Z"  horiz-adv-x="650" vert-adv-y="1000"  />

      
      <glyph glyph-name="uni0173" unicode="&#x0173;" d="M528 500L528 0Q483-50 483-85Q481-111 505-111Q510-112 528-107L528-197Q485-214 440-214Q394-214 367-190.50Q340-167 340-123Q340-67 404 0L378 0L378 47Q333-14 235-14Q155-14 101 41Q48 97 48 193L48 500L198 500L198 215Q198 172 222 148Q246 124 285 124Q329 124 353.50 150.50Q378 177 378 227L378 500L528 500Z"  horiz-adv-x="583" vert-adv-y="1000"  />

      
      <glyph glyph-name="uni0174" unicode="&#x0174;" d="M568 750L533 805L498 750L353 750L459 900L607 900L713 750L568 750M699 210L820 700L988 700L795 0L613 0L499 413L385 0L203 0L10 700L178 700L299 210L434 700L564 700L699 210Z"  horiz-adv-x="998" vert-adv-y="1000"  />

      
      <glyph glyph-name="uni0175" unicode="&#x0175;" d="M415 550L380 605L345 550L200 550L306 700L454 700L560 550L415 550M533 232L605 500L765 500L605 0L465 0L385 267L305 0L165 0L5 500L165 500L237 232L315 500L455 500L533 232Z"  horiz-adv-x="770" vert-adv-y="1000"  />

      
      <glyph glyph-name="uni0176" unicode="&#x0176;" d="M345 750L310 805L275 750L130 750L236 900L384 900L490 750L345 750M448 700L630 700L395 269L395 0L235 0L235 269L0 700L182 700L315 430L448 700Z"  horiz-adv-x="630" vert-adv-y="1000"  />

      
      <glyph glyph-name="uni0177" unicode="&#x0177;" d="M296 550L261 605L226 550L81 550L187 700L335 700L441 550L296 550M276 194L370 500L530 500L359 15Q317-102 248.50-153.50Q180-205 74-200L74-60Q126-60 154-41.50Q182-23 199 23L0 500L165 500L276 194Z"  horiz-adv-x="530" vert-adv-y="1000"  />

      
      <glyph glyph-name="uni0178" unicode="&#x0178;" d="M295 815Q295 815 295 799.50Q295 784 273 762Q251 740 220 740Q189 740 167 762Q145 784 145 815Q145 846 167 868Q189 890 220 890Q251 890 273 868Q295 846 295 815M485 815Q485 815 485 799.50Q485 784 463 762Q441 740 410 740Q379 740 357 762Q335 784 335 815Q335 846 357 868Q379 890 410 890Q441 890 463 868Q485 846 485 815M448 700L630 700L395 269L395 0L235 0L235 269L0 700L182 700L315 430L448 700Z"  horiz-adv-x="630" vert-adv-y="1000"  />

      
      <glyph glyph-name="uni0179" unicode="&#x0179;" d="M265 900L445 900L329 760L185 760L265 900M510 576L242 154L515 154L515 0L35 0L35 124L303 546L40 546L40 700L510 700L510 576Z"  horiz-adv-x="540" vert-adv-y="1000"  />

      
      <glyph glyph-name="uni017A" unicode="&#x017A;" d="M230 700L410 700L294 560L150 560L230 700M430 400L241 140L440 140L440 0L40 0L40 100L229 360L50 360L50 500L430 500L430 400Z"  horiz-adv-x="475" vert-adv-y="1000"  />

      
      <glyph glyph-name="uni017B" unicode="&#x017B;" d="M335 770Q310 745 275 745Q240 745 215 770Q190 796 190 830Q190 864 215 889Q240 915 275 915Q310 915 335 889Q360 864 360 830Q360 796 335 770M510 576L242 154L515 154L515 0L35 0L35 124L303 546L40 546L40 700L510 700L510 576Z"  horiz-adv-x="540" vert-adv-y="1000"  />

      
      <glyph glyph-name="uni017C" unicode="&#x017C;" d="M299 570Q274 545 240 545Q206 545 180 570Q155 596 155 630Q155 664 180 689Q206 715 240 715Q274 715 299 689Q325 664 325 630Q325 596 299 570M430 400L241 140L440 140L440 0L40 0L40 100L229 360L50 360L50 500L430 500L430 400Z"  horiz-adv-x="475" vert-adv-y="1000"  />

      
      <glyph glyph-name="uni017D" unicode="&#x017D;" d="M344 750L196 750L90 900L235 900L270 845L305 900L450 900L344 750M510 576L242 154L515 154L515 0L35 0L35 124L303 546L40 546L40 700L510 700L510 576Z"  horiz-adv-x="540" vert-adv-y="1000"  />

      
      <glyph glyph-name="uni017E" unicode="&#x017E;" d="M309 550L161 550L55 700L200 700L235 645L270 700L415 700L309 550M430 400L241 140L440 140L440 0L40 0L40 100L229 360L50 360L50 500L430 500L430 400Z"  horiz-adv-x="475" vert-adv-y="1000"  />

      
      <glyph glyph-name="uni0192" unicode="&#x0192;" d="M442 705L442 555Q423 563 403 563.50Q383 564 365 548Q347 532 342 503L329 424L411 424L411 280L304 280L251-32Q233-141 166-183.50Q99-226 0-201L0-51Q19-59 39-59.50Q59-60 77-44Q95-28 100 1L147 280L71 280L71 424L172 424L191 536Q209 645 276 687.50Q343 730 442 705Z"  horiz-adv-x="442" vert-adv-y="1000"  />

      
      <glyph glyph-name="uni0218" unicode="&#x0218;" d="M305-14Q200-14 128 31.50Q56 77 25 159L163 239Q205 142 310 142Q405 142 405 199Q405 231 374 247Q342 266 260 288Q176 311 118 354Q54 406 54 501Q54 598 123 656Q193 714 289 714Q375 714 441 673.50Q507 633 545 556L410 477Q372 558 289 558Q254 558 234 543Q214 528 214 505Q214 480 238 460Q264 440 340 418L405 397Q430 389 463 370Q499 352 517 331Q565 279 565 201Q565 102 493 43Q421-14 305-14M352-270L232-270L242-60L382-60L352-270Z"  horiz-adv-x="585" vert-adv-y="1000"  />

      
      <glyph glyph-name="uni0219" unicode="&#x0219;" d="M197 354Q197 341 218 331.50Q239 322 284 310Q444 275 443 150Q443 69 383 27Q322-14 235-14Q77-14 20 105L150 179Q170 120 235 120Q289 120 289 151Q289 173 202 195Q170 204 147 213.50Q124 223 97.50 240.50Q71 258 57 286Q43 314 43 350Q43 427 99 471Q155 514 239 514Q370 514 434 407L306 338Q282 382 239 382Q197 382 197 354M290-270L170-270L180-60L320-60L290-270Z"  horiz-adv-x="468" vert-adv-y="1000"  />

      
      <glyph glyph-name="uni021A" unicode="&#x021A;" d="M10 700L530 700L530 546L350 546L350 0L190 0L190 546L10 546L10 700M318-270L198-270L208-60L348-60L318-270Z"  horiz-adv-x="540" vert-adv-y="1000"  />

      
      <glyph glyph-name="uni021B" unicode="&#x021B;" d="M348 500L348 356L245 356L245 179Q245 150 268 141.50Q291 133 348 136L348 0Q206-15 150 27Q95 70 95 179L95 356L15 356L15 500L95 500L95 595L245 640L245 500L348 500M272-270L152-270L162-60L302-60L272-270Z"  horiz-adv-x="388" vert-adv-y="1000"  />

      
      <glyph glyph-name="uni02C6" unicode="&#x02C6;" d="M274 700L380 550L235 550L200 605L165 550L20 550L126 700L274 700Z"  horiz-adv-x="400" vert-adv-y="1000"  />

      
      <glyph glyph-name="uni02C7" unicode="&#x02C7;" d="M200 645L235 700L380 700L274 550L126 550L20 700L165 700L200 645Z"  horiz-adv-x="400" vert-adv-y="1000"  />

      
      <glyph glyph-name="uni02D8" unicode="&#x02D8;" d="M20 692L152 692Q152 646 195 646Q238 646 238 692L370 692Q370 620 324.50 581Q279 542 195 542Q111 542 65.50 581Q20 620 20 692Z"  horiz-adv-x="390" vert-adv-y="1000"  />

      
      <glyph glyph-name="uni02D9" unicode="&#x02D9;" d="M165 570Q140 545 105 545Q70 545 45 570Q20 596 20 630Q20 664 45 689Q70 715 105 715Q140 715 165 689Q190 664 190 630Q190 596 165 570Z"  horiz-adv-x="220" vert-adv-y="1000"  />

      
      <glyph glyph-name="uni02DA" unicode="&#x02DA;" d="M153 535Q95 535 57.50 570.50Q20 606 20 660Q20 714 57.50 749.50Q95 785 153 785Q212 785 249 749.50Q286 714 286 660Q286 606 249 570.50Q212 535 153 535M127 635Q136 626 153 626Q170 626 179 635Q189 645 189 660Q189 675 179 684Q170 694 153 694Q136 694 127 684Q118 675 118 660Q118 645 127 635Z"  horiz-adv-x="306" vert-adv-y="1000"  />

      
      <glyph glyph-name="uni02DB" unicode="&#x02DB;" d="M120-214Q74-214 47-190.50Q20-167 20-123Q20-67 84 0L208 0Q163-50 163-85Q161-111 185-111Q190-112 208-107L208-197Q165-214 120-214Z"  horiz-adv-x="228" vert-adv-y="1000"  />

      
      <glyph glyph-name="uni02DC" unicode="&#x02DC;" d="M140 553L20 553Q20 614 37.50 653Q55 692 84 704.50Q113 717 147 712.50Q181 708 216 686Q242 670 250.50 675Q259 680 259 710L379 710Q379 649 361.50 610Q344 571 315 558.50Q286 546 252 550.50Q218 555 183 577Q158 593 149 588Q140 583 140 553Z"  horiz-adv-x="399" vert-adv-y="1000"  />

      
      </font>
</defs>
</svg>
